<svg id="Layer_1" data-name="Layer 1" xmlns="http://www.w3.org/2000/svg" viewBox="0 0 600 600"><defs><style>.cls-1{fill:none;stroke:#1d1d1b;stroke-width:3px;}.cls-1,.cls-2{stroke-miterlimit:10;}.cls-2{stroke:#000;}</style></defs><title>marcotransparente</title><path class="cls-1" d="M30.39,16.71a30.85,30.85,0,0,0-19.8,23.07C7,58,15.31,75.57,33.93,80.66s35.85-5,41-18.81c5.21-14.09,2.49-26-6-33.06s-16.94-8-19.11-7.72c-2,.24.16,1,7.15,6.23s11.92,9.25,9.3,25.38c-2.41,14.71-24.38,21.37-34.72,14-10.08-7.2-13-16.54-8.08-28.53,4.07-10,11.65-11.45,14-12A14.82,14.82,0,0,1,39,25.8c1.81-.22,5.37-.58,8.15.71,3.4,1.58,4.38,1.31,5.18-.27s-4.09-2.27-4.9-5,6.81-.91,9.9-.18,4.27-.46,4.36-3-3.63-1.36-5.54-3.36S51.78,9,45.11,9.8,37.66,14.16,30.39,16.71Z"/><ellipse cx="51.72" cy="14.11" rx="0.56" ry="0.99"/><ellipse class="cls-2" cx="59.83" cy="17.86" rx="0.66" ry="0.34" transform="translate(1.91 41.19) rotate(-38.56)"/></svg>