<svg id="Layer_1" data-name="Layer 1" xmlns="http://www.w3.org/2000/svg" viewBox="0 0 720 720"><defs><style>.cls-1{opacity:0.9;}.cls-2{fill:#ff0a0a;stroke:#000;stroke-miterlimit:10;stroke-width:0.25px;}</style></defs><title>somamanr</title><g class="cls-1"><path class="cls-2" d="M242.32,261.73a5.9,5.9,0,0,0,1,2.79,3.77,3.77,0,0,1,.45.84,25.27,25.27,0,0,0,2.2,4.53.51.51,0,0,1,.14.23c.22,1.48,1.41,2.53,1.75,4a4.44,4.44,0,0,0,1.2,2,3.91,3.91,0,0,1,.9,1.52,2.77,2.77,0,0,0,1.26,1.53c4.66,3.12,9.36,6.18,13.94,9.42,2.86,2,5.6,4.23,8.5,6.2a7.62,7.62,0,0,0,1.67.94,20.46,20.46,0,0,1,3.38,1.76l3.51,2.13a1.94,1.94,0,0,0,1,.37.7.7,0,0,0,.75-.64,1.31,1.31,0,0,0,0-.28,34.36,34.36,0,0,1-.08-4.76,17.72,17.72,0,0,0-.24-2,7.58,7.58,0,0,1-.13-.81c-.11-1.86-.27-3.73-.3-5.59s-.22-3.82-.36-5.72c-.11-1.6-.31-3.18-.52-4.76s-.15-3.35-.22-5a18,18,0,0,0-.39-3.11,7.71,7.71,0,0,1-.16-1.91c0-.91.05-1.82.07-2.73a1.88,1.88,0,0,0,0-.41,21.43,21.43,0,0,1-.34-6,15,15,0,0,0-.46-4.47,3.7,3.7,0,0,1-.1-1.48,7.81,7.81,0,0,0-.1-2.31,22.73,22.73,0,0,1-.19-3.4,12.37,12.37,0,0,0-.27-2.72,6.74,6.74,0,0,1-.08-3.25,1.87,1.87,0,0,0,0-.94,9.67,9.67,0,0,1-.26-4.31,1.73,1.73,0,0,0,0-.68c-.34-1.8-.19-3.65-.45-5.45a36.81,36.81,0,0,1-.3-5.45c0-.64-.2-1.27-.22-1.9,0-.91.14-1.83.06-2.73s-.38-1.77-.37-2.7a4.51,4.51,0,0,0-.33-2.14,1.57,1.57,0,0,1-.08-.81,18.65,18.65,0,0,0,0-5.17.82.82,0,0,1,0-.27c.19-1.38-.32-2.7-.32-4.07a1.94,1.94,0,0,0-.19-.65,1.36,1.36,0,0,1-.07-.93c.43-1.32,0-2.62-.1-3.92,0-.13-.14-.28-.11-.39.32-1.21-.28-2.26-.6-3.36a.53.53,0,0,1,0-.39,1.94,1.94,0,0,0,0-1.84c-.05-.11,0-.26,0-.4.15-1.26.31-2.52.46-3.78,0-.09.05-.2,0-.27-.44-.94-.19-2-.46-3a1.81,1.81,0,0,1,.09-1.46,1,1,0,0,0,0-.92.38.38,0,0,1,.17-.47.26.26,0,0,0,0-.45,1.27,1.27,0,0,1-.35-1,19.08,19.08,0,0,0-.32-2.71,35.4,35.4,0,0,1-.59-6.66c0-.6,0-1.22.67-1.53a.39.39,0,0,0,.18-.2,5.42,5.42,0,0,0,.13-2.16,1.2,1.2,0,0,0-.56-1,1.94,1.94,0,0,1-.31-.26.57.57,0,0,1,.13-1c.23-.14.5-.22.51-.56s0-.57-.22-.75-.4-.4-.18-.68a2.43,2.43,0,0,0,.32-1.84c-.27-2.63-.52-5.26-.78-7.89-.18-1.86-.36-3.72-.56-5.58a1,1,0,0,1,.09-.65,26.45,26.45,0,0,0,2-4.64c.44-1.05.82-2.13,1.33-3.15.41-.81.62-1.72,1-2.56.86-2.11,1.75-4.21,2.61-6.32.64-1.61,1.23-3.23,1.87-4.85.48-1.23,1-2.45,1.49-3.67.28-.72.54-1.45.83-2.17.85-2.17,1.73-4.32,2.56-6.49.77-2,1.45-4,2.24-6a18.13,18.13,0,0,0,.91-2.56,8.44,8.44,0,0,1,.81-1.58,7,7,0,0,0,.7-3.55,2.19,2.19,0,0,1,.4-1.68,1.86,1.86,0,0,0,.39-1.28c0-.5,0-1,0-1.51a11.73,11.73,0,0,1,.09-1.77,18.11,18.11,0,0,0-.15-3.82c-.14-1.63-.29-3.27-.47-4.9A79.1,79.1,0,0,0,292.79,74a9.61,9.61,0,0,1-.21-1.77c0-1,.29-1.31,1.25-1.47a3.86,3.86,0,0,1,1.22,0,28.34,28.34,0,0,0,3.68.27,7.46,7.46,0,0,1,.95.11,11.45,11.45,0,0,0,2.86.24,22.63,22.63,0,0,1,3.68.17,2.13,2.13,0,0,1,1.47.61.51.51,0,0,0,.83,0c.16-.16.34-.11.44.09a.55.55,0,0,1-.11.74,3.2,3.2,0,0,1-1.45.35c-.13,0-.27,0-.41-.06a9.05,9.05,0,0,0-3.24.06.79.79,0,0,1-.4,0c-1.3-.36-2.62,0-3.92-.15l-3.92-.49a4.75,4.75,0,0,1-.63-.23.65.65,0,0,0-.89.57,1.4,1.4,0,0,0,0,.41c.09.63.18,1.26.3,1.89,0,.21.24.24.43.15l.11-.08c.18-.13.29-.42.56-.32s.35.41.32.68c-.1.82.22,1.63.05,2.46a.7.7,0,0,0,.06.4,5.53,5.53,0,0,1,.29,2.42,8.83,8.83,0,0,0,.17,2.05.8.8,0,0,1,0,.27c-.08,1.44.11,2.88,0,4.32a.72.72,0,0,1-.05.27c-.54.93,0,1.57.61,2.14A.54.54,0,0,1,297,91a2,2,0,0,0-.34,1.17c0,1,0,2.1.05,3.14,0,.86.33,1.11,1.19,1.19a34.58,34.58,0,0,0,5.19,0,15.55,15.55,0,0,1,2.73.1,5.58,5.58,0,0,0,.81.09l4.79.06c2.51,0,5,.08,7.52.09,1.69,0,3.38,0,5.06,0,2.24,0,4.47,0,6.7.06a17.73,17.73,0,0,0,1.78-.12,1.18,1.18,0,0,0,1.15-1c.41-2.2,1.79-3.86,3.05-5.6a1.7,1.7,0,0,1,1-.73,10.91,10.91,0,0,0,3-1.62,12.84,12.84,0,0,1,2.27-1.25,2.49,2.49,0,0,0,.71-.4,6.86,6.86,0,0,1,1.72-.84,4.14,4.14,0,0,0,.76-.3,3.63,3.63,0,0,1,2.6-.63,1.42,1.42,0,0,0,.54,0,11.09,11.09,0,0,1,3.1-.25,6.74,6.74,0,0,0,3.43-.8,4.43,4.43,0,0,1,2.65-.46,12.52,12.52,0,0,0,1.5,0,26.49,26.49,0,0,1,5.94.89,27.28,27.28,0,0,1,5.06,2.69,18.89,18.89,0,0,1,3.64,3.67,2.53,2.53,0,0,1,.48.82,10.41,10.41,0,0,0,1,2.4,2.34,2.34,0,0,1,.18.93,14.58,14.58,0,0,0,.44,2.28,1.1,1.1,0,0,0,1.06.91c.45,0,.91.07,1.37.08,1.69,0,3.38,0,5.06.08,2.05.08,4.1.22,6.15.36.64,0,1.27.07,1.91.07,2.1,0,4.2,0,6.29.06,1.19,0,2.38.05,3.56.05a14,14,0,0,1,2.33.1,2.57,2.57,0,0,0,.68,0,31.58,31.58,0,0,1,4.24,0c2,.06,3.92.1,5.88,0a12.78,12.78,0,0,1,1.64,0,22.08,22.08,0,0,0,3.15,0,6.62,6.62,0,0,1,1.09,0,38.49,38.49,0,0,0,5.88.19l4.79,0c.55,0,1.09,0,1.64,0,1.18-.08,1.45-.4,1.35-1.54a2.7,2.7,0,0,0-.05-.41,16.94,16.94,0,0,0-.5-3c-.43-1.21-.6-2.47-.91-3.7a31.52,31.52,0,0,1-.76-3.75,27.32,27.32,0,0,0-.81-3.86,32.21,32.21,0,0,1-.91-5.25,27.09,27.09,0,0,0-.88-3.15.64.64,0,0,0-.61-.46l-.28,0c-2.42,0-4.82-.35-7.24-.32-2.05,0-4.1-.12-6.15-.19h-.28c-5.2.28-10.39-.16-15.59,0-2.92.07-5.84,0-8.76,0-1.6,0-3.19.11-4.79.11s-3.28-.09-4.92-.13c-.82,0-1.64,0-2.46,0-1.6,0-3.2-.06-4.79-.06s-3.18-.11-4.78,0-3.28.06-4.92.09c-1.19,0-2.38.1-3.55.1-1.54,0-3.08.11-4.64,0a20,20,0,0,0-5.46.06,1.41,1.41,0,0,1-.54,0,4.56,4.56,0,0,0-2.56.2,3.88,3.88,0,0,1-1.76.1.59.59,0,0,1-.49-.81,1.8,1.8,0,0,1,.16-.38c.28-.51.64-.66,1.11-.32a1.18,1.18,0,0,0,1.12.16,24.15,24.15,0,0,1,2.83-.44,38.21,38.21,0,0,1,6.42-.16,3.75,3.75,0,0,0,.82,0,40.51,40.51,0,0,1,6.7-.05c1,0,2-.08,3-.1.59,0,1.19,0,1.78,0a5.12,5.12,0,0,1,.68,0c.71.08,1.34-.59,2-.33a4.92,4.92,0,0,0,2.14.24,15.46,15.46,0,0,1,2,0c1.51.15,3,0,4.51.07a3.22,3.22,0,0,0,1.73-.31,1,1,0,0,1,.53-.13c1.09.1,2.18-.18,3.28,0a2.21,2.21,0,0,0,.81,0,1.44,1.44,0,0,1,1.58.52.43.43,0,0,0,.61.09,1.47,1.47,0,0,1,1-.24,12.7,12.7,0,0,0,3.52-.32,19.25,19.25,0,0,1,4.08-.38c1,0,2.1,0,3.13-.09s2.28-.09,3.41-.19a2.47,2.47,0,0,1,1.83.38,1.15,1.15,0,0,0,1.16.14,10.52,10.52,0,0,1,3.79-.38c.9,0,1.82,0,2.73,0,.55,0,1-.34,1.6-.31a41.17,41.17,0,0,1,5.32.22,6.09,6.09,0,0,0,1.9-.16,6.64,6.64,0,0,1,2-.09,4,4,0,0,0,1.08-.09,3.6,3.6,0,0,1,1.08,0,2.89,2.89,0,0,0,2.25-.21l.13,0a.78.78,0,0,1,1,.36,1.34,1.34,0,0,0,1.32.79,3.26,3.26,0,0,1,1.57.44.52.52,0,0,1,.29.57.52.52,0,0,1-.33.41c-.28.09-.58.16-1,.27a4.49,4.49,0,0,0,1.69.35c1,.07,2,.14,3,.24s1.15.33,1.18,1.19a30,30,0,0,1-.06,3.42c-.19,2.18-.19,4.37-.25,6.56-.11,4-.18,7.94-.26,11.91a6.59,6.59,0,0,0,.38,2.81,5.18,5.18,0,0,0,.4.86l3.07,4.35a2.2,2.2,0,0,0,.47.49,2.76,2.76,0,0,1,1,1.28,6.67,6.67,0,0,0,1,1.48c1,1.32,1.89,2.8,3.05,4a4.31,4.31,0,0,1,.39.56c.82,1.38,1.9,2.57,2.81,3.88s2,2.62,2.85,4c1,1.57,2.17,3,3.3,4.53a3.72,3.72,0,0,1,.81,1.85,8.37,8.37,0,0,1-.07,3.79,3.33,3.33,0,0,0-.09.95c0,1.41,0,2.81.07,4.23.1,1.63,0,3.28,0,4.92a64.76,64.76,0,0,0,.25,7c.07.5,0,1,0,1.51a34.88,34.88,0,0,0,.18,4,5.23,5.23,0,0,1,0,.68c0,1.83,0,3.65,0,5.47,0,.32,0,.64.05.95.06.91,0,1.82,0,2.73a12.93,12.93,0,0,0,.35,4.2,1,1,0,0,1,.09.4c-.23,1.36.12,2.72,0,4.09a13.93,13.93,0,0,0,0,2.74c.24,2.73.13,5.47.18,8.21,0,2.5.07,5,.25,7.52.14,2,.19,4.1.25,6.15,0,.73.26,1.43.29,2.16.2,3.79.08,7.58.15,11.36,0,.78.06,1.55.09,2.33a15,15,0,0,1,0,1.64,40.26,40.26,0,0,0,.21,6.68c0,.59.1,1.18.13,1.77.12,2.28.17,4.56.36,6.84.32,4.05.47,8.1.51,12.16a4.34,4.34,0,0,0,.11,1.09,2.6,2.6,0,0,1,0,1.61,2.17,2.17,0,0,0-.09.67,82.09,82.09,0,0,0,.48,8.73,12.62,12.62,0,0,1,.07,1.51,48.33,48.33,0,0,0,.44,6.13,5.66,5.66,0,0,1,.06.82c0,2.42.32,4.83.35,7.24,0,1.69.14,3.38.17,5.06a11.41,11.41,0,0,1,.06,2.86,1.2,1.2,0,0,0,.06.41.36.36,0,0,0,.55.18,22.07,22.07,0,0,0,4.23-5.15,3.14,3.14,0,0,1,.38-.57c1.16-1.34,2.26-2.73,3.5-4a23.3,23.3,0,0,0,2.89-3.81c1-1.62,2-3.25,3.07-4.86a6.72,6.72,0,0,1,.9-1.2,6.56,6.56,0,0,0,1.48-2.27,17.44,17.44,0,0,1,1.27-2.42,15.55,15.55,0,0,0,.93-2c1.69-4,3.44-8.05,5-12.13.92-2.38,2-4.66,3.08-7,.06-.13.13-.24.18-.37.19-.42.92-.47.83-1-.06-.36-.51-.64-.67-1a25.37,25.37,0,0,1-1.7-4,4.28,4.28,0,0,1,0-2.43,19.77,19.77,0,0,0,.53-2.4,11.15,11.15,0,0,1,.53-2.12,5.2,5.2,0,0,0,.2-.8c.46-2.23.9-4.47,1.4-6.69.22-1,.55-1.92.86-2.88.52-1.6,1-3.21,1.38-4.86a1,1,0,0,1,.08-.26,8.59,8.59,0,0,0,.91-3.82c.07-.64.16-1.27.29-1.89a13.24,13.24,0,0,0,.11-3.14c-.08-1.78-.29-3.55-.29-5.32a24.44,24.44,0,0,1,.27-5.73,12.09,12.09,0,0,1,.32-1.18,2,2,0,0,1,2.27-1.38,4.28,4.28,0,0,1,3.2,2.08,8.9,8.9,0,0,1,1,3.94c.13,1.73.21,3.46.31,5.19a16.35,16.35,0,0,0,.35,2.43c.26,1.34.37,2.71.53,4.07a4.31,4.31,0,0,0,.37,1.45.55.55,0,0,0,.92,0,1.43,1.43,0,0,0,.26-.61c.33-2.12.85-4.2,1.29-6.3.1-.49.08-1,.17-1.49q.49-2.76,1-5.5a7.47,7.47,0,0,1,.87-2.15,12.57,12.57,0,0,1,2-3.06,1.06,1.06,0,0,1,1.36-.26,4.53,4.53,0,0,1,2.6,2.65,2.9,2.9,0,0,1,.18,1.2c-.33,3.17-.38,6.38-.92,9.53-.23,1.3-.5,2.6-.75,3.89-.34,1.71-.61,2.3,1.54,1.75a7.17,7.17,0,0,1,.81-.11,1.91,1.91,0,0,1,1.54.4c.42.35.87.67,1.32,1a2,2,0,0,1,1,1.71c0,1,.09,2,.07,3A5,5,0,0,0,518,207a1.61,1.61,0,0,1,.08.54.93.93,0,0,1-.53,1c-.61.24-.86.77-1.17,1.28-1.35,2.22-2.6,4.49-3.85,6.78a12.29,12.29,0,0,1-1,1.3,2.82,2.82,0,0,0-.57,2.93c.15.37.18.8.33,1.18a1,1,0,0,0,1.21.62,2,2,0,0,0,1-.45,9,9,0,0,0,1.44-1.26c.15-.19.33-.53.65-.33s.18.49.15.76a6.64,6.64,0,0,1-.81,2.72c-.92,1.67-1.77,3.39-2.56,5.14a4.9,4.9,0,0,1-2.9,2.89c-1,.35-1.92.83-2.88,1.25a3.75,3.75,0,0,0-.49.25.37.37,0,0,0,0,.66c.2.1.42.17.63.25s.62.17.92.29a.62.62,0,0,1,.41.76c-.08.36-.22.7-.32,1.05a.89.89,0,0,0,.2,1,1.14,1.14,0,0,1,.14,1.5,45.92,45.92,0,0,0-1.94,5c-.55,1.55-1.16,3.07-1.74,4.61a59.3,59.3,0,0,0-2,5.66,12.4,12.4,0,0,1-.75,1.91c-.75,1.61-1.53,3.2-2.15,4.87a3.2,3.2,0,0,1-.26.48,17.13,17.13,0,0,0-1.83,4.68c-.05.23-.11.47-.35.55a1.24,1.24,0,0,0-.77,1c-.1.44-.22.88-.33,1.3.13.06.22.13.28.12.24-.05.47-.08.53.23a.54.54,0,0,1-.25.59c-.89.6-.85.71-1.16,1.88a10.93,10.93,0,0,1-1,2.81c-.42.71-.88,1.39-1.27,2.11a10.8,10.8,0,0,1-2.91,3.4,29.21,29.21,0,0,0-2.76,2.46,16.76,16.76,0,0,1-1.85,1.62,32.57,32.57,0,0,0-3.71,3.43c-2.57,2.67-4.87,5.56-7.35,8.3-2.3,2.53-4.61,5.05-6.9,7.6-1.49,1.66-2.93,3.37-4.42,5a3.29,3.29,0,0,0-.86,2.37c.05,2.87,0,5.75.07,8.63q.12,7,.31,14c.1,4,.23,7.93.42,11.89.15,2.92.09,5.84.18,8.76s.27,5.56.37,8.34c.07,1.91.08,3.83.1,5.75,0,1.05.07,2.09.16,3.14.12,1.5.08,3,.15,4.51.11,2.51.16,5,.41,7.51.06.59,0,1.18.07,1.78.16,3.23.22,6.47.37,9.71.21,4.37.29,8.75.65,13.11.24,2.87.28,5.74.44,8.61a2.18,2.18,0,0,1-.74,1.82q-2.08,2.09-4.15,4.18c-1.92,1.95-3.85,3.89-5.76,5.85-2.93,3-5.82,6.05-8.9,8.91-1.33,1.25-2.69,2.46-4.05,3.68l-.61.55c-3.37,3.14-6.73,6.29-10,9.58a44.89,44.89,0,0,0-3.81,4.11,4.42,4.42,0,0,1-3.47,1.62c-.36,0-.73.05-1.09.06a42.63,42.63,0,0,0-4.37.22c-1.67.19-3.37.21-5.05.29a9.88,9.88,0,0,0-2.17.31.63.63,0,0,0-.51.69,3.88,3.88,0,0,0,.24,2.12,2.74,2.74,0,0,1,.15,2.13,28.16,28.16,0,0,0-.45,3.8,7.17,7.17,0,0,1-.08.81c-.84,3.2-.74,6.52-1.28,9.76-.35,2.11-.38,4.27-.64,6.39a17.35,17.35,0,0,1-.82,4.15,14.53,14.53,0,0,0-.44,1.87c-.8,3.23-1.64,6.45-2.41,9.69-.46,1.95-1,3.88-1.55,5.81a30.46,30.46,0,0,0-1,4.11c-.12.85-.59,1.63-.68,2.5-.21,2-.8,3.92-1.19,5.89a37.44,37.44,0,0,0-.6,8.72,40.94,40.94,0,0,1-.22,7.09c-.22,1.4-.56,2.77-.76,4.17-.45,3.16-1,6.3-1.61,9.43-.26,1.39-.64,2.75-.85,4.16-.47,3-.93,6-1.1,9.09-.09,1.69-.3,3.37-.32,5.05,0,2.42-.29,4.83-.19,7.25a8.45,8.45,0,0,1-.06,1.23c-.05.63-.18,1.27-.19,1.9,0,1.83-.34,3.63-.49,5.44-.2,2.37-.35,4.74-.34,7.11,0,1.87-.2,3.72-.32,5.58a8.91,8.91,0,0,0,0,1.36,11.23,11.23,0,0,1-.05,2.46,28.18,28.18,0,0,0-.06,4.5,6.15,6.15,0,0,1,0,1,5.17,5.17,0,0,0,.65,3.42,1.28,1.28,0,0,1,.11.24.47.47,0,0,1-.38.7c-.13,0-.28,0-.41,0-.39.09-.45.23-.29.57a9.12,9.12,0,0,0,2.72,3.22,9.12,9.12,0,0,1,2,2.22,21,21,0,0,1,2.71,6.1c.7,2.5,1.42,5,2.23,7.47a29.77,29.77,0,0,0,2.31,5.39,1.41,1.41,0,0,1,.18.37,15.25,15.25,0,0,0,1.43,3.38,4.57,4.57,0,0,1,0,3.73c-.37.92-.85,1.81-1.3,2.71-.79,1.59-1.58,3.18-2.5,4.7a1.68,1.68,0,0,1-1.26.91c-2.07.32-4.1.86-6.2,1.05a27.52,27.52,0,0,0-3.89.75,5.46,5.46,0,0,1-4.09-.59c-.8-.44-1.61-.86-2.45-1.22a16.53,16.53,0,0,1-2.77-1.74,3.44,3.44,0,0,1-1.24-1.6c-.88-2.11-1.92-4.13-2.95-6.17a64.65,64.65,0,0,1-3.44-8,14.75,14.75,0,0,0-1.16-2.48c-1-1.71-1.77-3.5-2.64-5.26-.28-.57-.6-1.12-.9-1.69s-.72-1.37-1.07-2.06a1.47,1.47,0,0,1,.1-1.64,9.78,9.78,0,0,0,1.27-3,1.89,1.89,0,0,1,.88-1.33c1.32-.7,2-2,2.8-3.12a4.7,4.7,0,0,1,1.19-1.47.65.65,0,0,0,.27-.3c.43-1.54,1.39-3,.73-4.73a12.33,12.33,0,0,1-.5-4.19c0-1-.06-2-.08-3a12.8,12.8,0,0,0-.52-3.37,9.18,9.18,0,0,1-.27-1.48,19.82,19.82,0,0,0-.84-3.58c-.62-2.1-1.38-4.16-2-6.26-.36-1.27-.5-2.59-.76-3.89-.32-1.61-.62-3.23-1-4.82s-.54-3.23-.79-4.85a2.18,2.18,0,0,1,.14-1.07,4.86,4.86,0,0,0,.18-1.89,83.93,83.93,0,0,1,.16-10.4c.09-.86.18-1.73.31-2.58a15.6,15.6,0,0,0,.17-2c0-1.14.39-2.24.39-3.39a21.58,21.58,0,0,1,.54-3.65c.37-2.15.8-4.3,1.19-6.46.3-1.65.58-3.32.87-5a7.62,7.62,0,0,1,.2-.79,21.58,21.58,0,0,0,.44-9.49c-.09-.58-.26-1.15-.4-1.72a.52.52,0,0,0-.11-.25c-1-.91-.87-2.37-1.58-3.44-1.14-3.37-2.31-6.73-3.4-10.11a25.12,25.12,0,0,1-.91-4.55c0-.23,0-.46-.09-.68-.63-3.92-1.3-7.83-1.9-11.75a82.14,82.14,0,0,1-1-9.24,2.73,2.73,0,0,0,0-.41,61,61,0,0,1-.6-7.63c0-.37-.07-.73-.06-1.09.08-3.56-.14-7.12.11-10.68a6.83,6.83,0,0,0-.5-2.53,1.35,1.35,0,0,0-1.09-.75c-1.07-.24-2.14-.44-3.22-.64-.54-.09-1.08-.16-1.63-.21a.65.65,0,0,0-.79.58c-.29,1.38-.57,2.77-.84,4.16-.46,2.46-.56,5-1.11,7.43-.14.62-.14,1.27-.24,1.9-.4,2.62-.82,5.23-1.23,7.84a3.45,3.45,0,0,0-.07.55,17.61,17.61,0,0,1-1.22,5.44c-1,2.91-2.27,5.67-3.37,8.52-.27.68-.61,1.32-.91,2-1,2.29-2.07,4.57-3,6.9-1,2.55-2.36,4.94-3.39,7.47a4,4,0,0,1-.44.85,14.38,14.38,0,0,0-1.83,4.1c-.3.9-.7,1.78-1,2.69a6.48,6.48,0,0,0-.3,1.74c-.13,2.73-.34,5.46-.21,8.2a.77.77,0,0,1-.48.88c-.3.13-.32.41-.29.7.1.72.16,1.45.29,2.17a6.75,6.75,0,0,1,.14,1.9,2.85,2.85,0,0,0,.22,1.47,6.15,6.15,0,0,1,.62,2.09,1.22,1.22,0,0,0,.46.81,3.11,3.11,0,0,1,.73,1.3c.46,1.48,1,2.95,1.41,4.43a27.18,27.18,0,0,1,.62,2.67c.31,1.61.76,3.19,1.18,4.78a7.69,7.69,0,0,1,.24,1.34c.19,2.4.36,4.81.54,7.21,0,.46.09.91.13,1.36a9.55,9.55,0,0,1,.11,1.5,65.15,65.15,0,0,1-.49,6.82c-.46,2.5-.83,5-1.42,7.52-.5,2.12-1.05,4.25-1.48,6.39-.58,2.9-1.45,5.75-1.87,8.69a21.8,21.8,0,0,1-.56,2.39,64.25,64.25,0,0,0-1.2,7.15,30.72,30.72,0,0,0-.1,4c0,1.23.05,2.46.09,3.69a2,2,0,0,1-.21.92,6.75,6.75,0,0,0-.53,2c-.13.87.3,1.06.91.9a2.83,2.83,0,0,1,.4-.08,1.72,1.72,0,0,1,1.91.73c.34.48.78.9,1.15,1.36a6.29,6.29,0,0,1,1,1.31,6.52,6.52,0,0,0,1.47,2.11,1.68,1.68,0,0,1,.39,1.27c0,1.5.07,3,.09,4.51,0,.83.16,1.64.18,2.46.06,2.32.07,4.65,0,7,0,1.23-.26,2.45-.39,3.67a5.68,5.68,0,0,0-.1,1.23,4.6,4.6,0,0,1-.93,2.8,1.71,1.71,0,0,1-1.47.85c-1.78.08-3.55.19-5.33.3l-5.45.38c-.14,0-.27,0-.41,0-3.29,0-6.55.52-9.82.76-3.46.26-6.93.56-10.39.49-3-.06-6,.18-9,0-2-.11-4,0-6,0-1.69,0-3.37-.07-5.06-.1a1.81,1.81,0,0,1-1.74-1.07c-1.45-2.68-2.86-5.39-4.51-8a2.15,2.15,0,0,1-.19-2.2,18.38,18.38,0,0,0,.79-1.89,2.84,2.84,0,0,1,1.78-1.78c1.07-.39,2-1.06,3.12-1.37a2.79,2.79,0,0,0,.73-.37,15.94,15.94,0,0,1,4.37-1.92,9.38,9.38,0,0,0,1.63-.69,3.29,3.29,0,0,0,1.15-.94,7,7,0,0,1,1.82-1.64,5.6,5.6,0,0,0,1.27-1,6,6,0,0,1,3.39-1.9,3.3,3.3,0,0,0,1-.35,16,16,0,0,1,3.09-1.42,44.87,44.87,0,0,1,4.65-1.62,10.33,10.33,0,0,0,1.41-.51,5.66,5.66,0,0,1,2.15-.37,2.43,2.43,0,0,1,1.62.64c.88.74,1.43.32,1.44-.73s.12-2,.11-3c0-.82-.12-1.63-.18-2.45a29.82,29.82,0,0,0-.3-3.54c-.2-1-.28-2.07-.4-3.11-.13-1.22-.22-2.45-.32-3.67a18.14,18.14,0,0,0-.82-3.87,6,6,0,0,1-.32-1.74,6.28,6.28,0,0,0-.16-1.62,35,35,0,0,1-.87-5.26c-.16-1.5-.35-3-.63-4.46a17.71,17.71,0,0,1-.16-2.73,13.5,13.5,0,0,0-.46-2.82,23.16,23.16,0,0,1-.61-6.1c.06-1.37.09-2.74.12-4.1a7.82,7.82,0,0,0-.08-1.37,21.48,21.48,0,0,1-.22-6,6.13,6.13,0,0,0,0-1,87.6,87.6,0,0,1,.31-9c.25-3.6.49-7.19.73-10.79a11.19,11.19,0,0,0,.05-1.64,28.36,28.36,0,0,1,.33-4.22c.06-.64.13-1.28.23-1.9a5.36,5.36,0,0,0-.42-3.21,12.3,12.3,0,0,1-.49-2c-.84-2.8-1.65-5.6-2.51-8.39-.65-2.09-1.06-4.24-1.55-6.37a31.1,31.1,0,0,0-1.23-4.47,2.87,2.87,0,0,1-.21-.8,10.83,10.83,0,0,0-.82-3.16,9.12,9.12,0,0,1-.37-1.74,60.52,60.52,0,0,1-.67-8.72,40.09,40.09,0,0,0-.35-4.51,43.14,43.14,0,0,1-.38-6.82c.11-1.87.29-3.73.4-5.6a43,43,0,0,1,1.26-7.12c.59-2.58.81-5.23,1.3-7.83a19.85,19.85,0,0,0,.31-2.3c.07-.93-.22-1.24-1.17-1.27-2-.08-4-.13-6-.19a1.42,1.42,0,0,0-.41,0c-1.61.6-3.24.07-4.86.05-.73,0-1.46-.12-2.19-.17a1.94,1.94,0,0,1-.91-.25,1.24,1.24,0,0,1-.68-1c0-.6-.13-1.18-.16-1.78-.22-4.42-.42-8.84-.64-13.26-.06-1.09-.12-2.19-.24-3.27-.18-1.69-.2-3.37-.28-5.06q-.24-4.92-.54-9.84c-.19-3.23-.4-6.47-.61-9.7-.06-1-.13-2.09-.2-3.14-.14-1.91-.26-3.82-.42-5.73-.18-2.18-.39-4.36-.47-6.55s-.28-4.1-.41-6.14c-.07-1-.11-2-.16-3-.14-3.23-.17-6.48-.47-9.7-.38-4.19-.36-8.39-.62-12.57-.14-2.37-.1-4.74-.34-7.11a37.46,37.46,0,0,1-.1-4.24c0-2.51-.1-5-.25-7.52a45.1,45.1,0,0,0-.22-4.51,18.72,18.72,0,0,0-1.58-6.06,2.27,2.27,0,0,1-.18-1.33,1.88,1.88,0,0,0-1-1.94c-1.39-.86-2.77-1.75-4.15-2.64-1.69-1.07-3.43-2.07-5.07-3.23-.7-.5-1.45-.94-2.19-1.4-1.66-1-3.27-2.17-5-3.1-.48-.26-.9-.63-1.36-.92-2-1.24-3.93-2.48-5.91-3.69-2.53-1.55-5.07-3.07-7.61-4.61a3.2,3.2,0,0,1-.45-.3l-3.78-3.15c-1.61-1.34-3.22-2.68-4.82-4-1.15-1-2.28-2-3.42-2.95-2.51-2.18-5.05-4.33-7.69-6.36a6.87,6.87,0,0,1-2.18-2.75q-1.87-4.33-3.76-8.65a8.55,8.55,0,0,1-.45-1.15c-1.11-4.1-2.72-8-4.06-12.05-1.19-3.55-2.5-7.05-3.77-10.57-.09-.26-.21-.5-.32-.75-.72-1.65-.68-1.73-2.33-2.45a20.52,20.52,0,0,1-7.46-6.08c-.82-1-1.67-1.93-2.43-2.95-1.13-1.5-2.29-2.95-3.46-4.41a11.21,11.21,0,0,1-2-5,2.25,2.25,0,0,1,.2-1.33,5.75,5.75,0,0,1,.93-1.51,2.56,2.56,0,0,1,1.73-1c1.43-.18,1.61-.48,1-1.74a4.32,4.32,0,0,1,.57-4.51,3.52,3.52,0,0,1,.36-.41c.12-.14.25-.27.36-.41.76-1,.76-1.13-.06-2.11-1.6-1.94-3.22-3.85-4.8-5.8-.89-1.09-1.74-2.23-2.59-3.35a5.4,5.4,0,0,1-.9-3.24.92.92,0,0,1,.14-.52c1-1.34,3-2,4.3-.85.68.61,1.42,1.14,2.14,1.71.47.36.92.75,1.41,1.08a53.15,53.15,0,0,1,5.68,4.71c1.14,1,2.21,2.16,3.35,3.22a12.35,12.35,0,0,0,1.07.84,1.41,1.41,0,0,0,.77.27.84.84,0,0,0,1-1,3.41,3.41,0,0,0-.5-1.41c-.75-1.29-1.53-2.58-2.25-3.9-.49-.92-.89-1.89-1.34-2.84L210.22,208c-.06-.12-.1-.25-.17-.37-1.07-1.88-.71-3.69.25-5.47a4.38,4.38,0,0,1,.37-.58,1,1,0,0,1,1.1-.33,3.88,3.88,0,0,1,.75.33c1.28.79,2.58,1.55,3.82,2.4a10.59,10.59,0,0,1,4,4.58,5.27,5.27,0,0,0,.48.83,13.59,13.59,0,0,1,1.44,2.94,6.57,6.57,0,0,0,1.06,1.9c.59.75,1.19,1.5,1.77,2.26a3,3,0,0,1,.45.69,25.65,25.65,0,0,0,2.59,4,8.91,8.91,0,0,1,.57.93c1.73,3.46,3.48,6.93,5.19,10.4a24.39,24.39,0,0,1,1.77,4.58c.4,1.54.76,3.1,1.13,4.65a8.72,8.72,0,0,1,.18,2.17,3.06,3.06,0,0,1-1,2.3c-.75.72-1.41,1.55-2.1,2.34a.28.28,0,0,0-.06.24c.06.16.22.16.35.11.41-.18.81-.41,1.23-.57a.82.82,0,0,1,1.16.4c.44,1.31,1.23,2.44,1.73,3.71.37.93.76,1.86,1.06,2.82a22.26,22.26,0,0,0,1.36,3.13,15.77,15.77,0,0,1,1.31,3c0,.15.23.26.34.4ZM345.54,90.67l.39-.06c.29,0,.46-.2.29-.23a.59.59,0,0,0-.37.05,1.53,1.53,0,0,0-.31.26.74.74,0,0,0-.92-.72.29.29,0,0,0-.19.15.23.23,0,0,0,.11.2A3.61,3.61,0,0,1,345.54,90.67Zm4.09-.56-.27-.06c-1.45-.45-2-.62-2.36,1.49a1.19,1.19,0,0,0,.62,1.37c.5.31,1,.62,1.5,1,.18.12.4.28.29.54a.57.57,0,0,1-.59.27,1.9,1.9,0,0,1-.66-.14,1.42,1.42,0,0,0-1.65.2.44.44,0,0,1-.62,0c-.28-.22-.57-.45-.84-.69s-.57-.52-.55-.91c.07-.87-.5-1.33-1.08-1.79a1.41,1.41,0,0,0-2.14.28,4.39,4.39,0,0,1-1.42,1.61,1.22,1.22,0,0,0-.49.8,2.37,2.37,0,0,1-1.22,1.54c-.74.37-.65,1.21.14,1.57.36.16.65.26.7.71a.84.84,0,0,0,.25.46c1,.81,2,1.61,3,2.41a1.67,1.67,0,0,0,.73.36,6.85,6.85,0,0,1,2.88,1.46,2,2,0,0,0,.6.3c.4.11.8.18,1.2.26s.54.72.95.94a11.52,11.52,0,0,1,2.3,1.47,1.38,1.38,0,0,0,.5.2,7.76,7.76,0,0,0,3.17.34,1.78,1.78,0,0,0-.87-1.33c-.2-.11-.42-.19-.5-.43,0,0,0-.11,0-.13s.15-.17.19-.15a2.62,2.62,0,0,1,.75.3,6.65,6.65,0,0,0,2.47,1.11c.53.14.7.1.74-.43s.42-.86.94-1a1.09,1.09,0,0,1,.26,0,13.14,13.14,0,0,1,2.58-.2.69.69,0,0,0,.52-.08,1.8,1.8,0,0,1,1.78-.33,1.88,1.88,0,0,0,.8-.12c.53-.15.62-.42.36-.92a23,23,0,0,0-1.67-2.16,9.26,9.26,0,0,0-3.09-3,6.52,6.52,0,0,1-.55-.41,1.94,1.94,0,0,1-.9-1.6l0,0a1.84,1.84,0,0,1,1.16.34c.2.11.42.32.6.29.72-.14,1,.33,1.23.83a8.14,8.14,0,0,0,1.5,1.76,2.4,2.4,0,0,0,2,.91,2.24,2.24,0,0,1,1.83.76,2.46,2.46,0,0,0,.55.41.55.55,0,0,0,.63-.07.48.48,0,0,0,.09-.62c-.35-.69-.72-1.36-1.08-2-.09-.17-.15-.35,0-.49a.46.46,0,0,1,.51-.06c.28.14.55.32.83.47A4.46,4.46,0,0,0,369,98a.39.39,0,0,0,.35-.13.4.4,0,0,0,0-.37,8.57,8.57,0,0,0-1.49-1.58,12.27,12.27,0,0,1-3-2.74,3.22,3.22,0,0,0-.64-.5,2.4,2.4,0,0,1-.42-.34.41.41,0,0,1-.05-.51.5.5,0,0,1,.61-.16c.28.09.4.35.57.56s.48.78.94,1a4.48,4.48,0,0,1,1.45,1.22,12.59,12.59,0,0,0,1.17,1.14c.62.53,1.13.43,1.59-.24a.61.61,0,0,0,0-.87A6.36,6.36,0,0,1,368.76,93a.78.78,0,0,0-.31-.25,3.06,3.06,0,0,1-1.39-1.45,3.21,3.21,0,0,1,1.66.57,3.61,3.61,0,0,0,2,1c.19,0,.38.24.56.37s.28.22.43.32.39-.06.4-.24a2.53,2.53,0,0,0-.57-1.78,7,7,0,0,0-2.35-1.84,3.39,3.39,0,0,0-1.86-.32c-.54,0-.74.32-.62.82s.22.79.34,1.19a4,4,0,0,1-1-.94.9.9,0,0,1-.18-1c.08-.16.21-.34.1-.51s-.41,0-.62,0a.29.29,0,0,1-.13,0,.86.86,0,0,1-.69-.74c0-.23.36-.34.82-.23s.79.22,1.19.3a3,3,0,0,0,.67,0,.28.28,0,0,0,.29-.24c0-.13,0-.31-.12-.37a2.71,2.71,0,0,0-2.16-.65,4.69,4.69,0,0,1-2.41-.15,1.52,1.52,0,0,0-1.2,0c-1,.61-2.15.26-3.22.41a.7.7,0,0,1-.63-.19,1.83,1.83,0,0,0-1.79-.36,7.54,7.54,0,0,1-2.72.08,2.25,2.25,0,0,0-.68,0c-.18,0-.38.1-.39.31s.22.22.39.21.27,0,.37.11c0,.35-.35.49-.44.79s-.15.75.3.9a1.64,1.64,0,0,1,1.1,1.29c.07.31.15.62.22.92l0,0a11,11,0,0,0-1.08-.56,3.4,3.4,0,0,1-1.91-1.6c-.25-.53-.76-.6-1.25-.66a.62.62,0,0,0-.64.56c-.08.43.17.78.25,1.17Zm78.54,52.69a6.27,6.27,0,0,1-1.86,1.37,2.92,2.92,0,0,0-.9.61,2.32,2.32,0,0,1-1.55.77,1.12,1.12,0,0,0-1,.67,9.25,9.25,0,0,0-1.09,4.18c0,.41,0,.82,0,1.23.07,1.05.2,2.09.21,3.14,0,2.14,0,4.28,0,6.42,0,3.51.1,7,.14,10.54,0,2.05,0,4.1,0,6.15a8.79,8.79,0,0,0,.53,3.76.83.83,0,0,1-.06.79,3.55,3.55,0,0,0-.35,2.12c0,1,.05,2,.08,3,.06,1.69.12,3.38.16,5.06,0,.73-.08,1.46-.06,2.19.09,2.73.24,5.47.29,8.2.11,5.61.13,11.22.27,16.82.06,2.33.07,4.66.14,7s.17,4.38.22,6.57c0,1.64,0,3.28,0,4.92,0,.37,0,.75.27,1,.14.12.39.17.43.31.1.29-.22.33-.39.45a.85.85,0,0,0-.3.86c.17,1.59-.22,3.2.27,4.77a2,2,0,0,1,0,.54c0,1.46-.05,2.91,0,4.37,0,1.82.09,3.65.21,5.47a28.71,28.71,0,0,0,.27,4.63,1.43,1.43,0,0,1,0,.68,13.43,13.43,0,0,0-.13,3.41,1.31,1.31,0,0,0,.83,1.29c.68.32.69.46.14.92a2.18,2.18,0,0,0-.77,1.55c0,.22,0,.45,0,.68,0,2.23,0,4.47.17,6.7a3.91,3.91,0,0,1,0,.68c-.23,2.6.05,5.2,0,7.8,0,1.59.21,3.19.14,4.78-.09,2.28.15,4.55.15,6.83,0,2.87.23,5.74.35,8.61a7.48,7.48,0,0,1,0,.82,32.52,32.52,0,0,0,0,3.56,3.79,3.79,0,0,0,.47,2.1,1.38,1.38,0,0,1,.08,1.3,9.78,9.78,0,0,0-.51,3.22c0,1.41.14,2.82.16,4.23,0,2.37.16,4.74.11,7.11,0,.6,0,1.19,0,1.78.06,3.28.34,6.56.3,9.85,0,1.91.11,3.82.17,5.73,0,1,.07,2,.07,3,0,5.43,0,10.86.22,16.28a7.67,7.67,0,0,1,0,.83c-.09,1.91-.1,3.82,0,5.74.11,3.05.17,6.11.25,9.16,0,1.65.12,3.29.1,4.93,0,3.1.06,6.21.17,9.31.07,2,.21,4,.2,6a14.41,14.41,0,0,1,.08,2.17,41.34,41.34,0,0,0-.15,6.29c0,2.69.08,5.38.24,8.07.07,1.27,0,2.54,0,3.81,0,2.37.15,4.74.2,7.11,0,.56.28,1.06.31,1.6s-.38,1.12-.35,1.73,0,1,0,1.5c0,1.37,0,2.73,0,4.1s.12,2.91.08,4.37c0,1.64,0,3.28.05,4.92a51,51,0,0,1,.12,6.42,3.45,3.45,0,0,0,.06,1c.07.48.37.6.77.29a11.7,11.7,0,0,0,.94-.8l2.54-2.48c1.05-1,2.12-2,3.17-3,2-1.94,3.95-3.91,5.94-5.86l7.15-7c2-2,4-4,6-6,1.69-1.73,3.5-3.34,5.26-5a6.35,6.35,0,0,0,.58-.58,15.25,15.25,0,0,1,2.17-2.08c.57-.52,1.18-1,1.71-1.57a2.57,2.57,0,0,0,1-1.9c-.1-1,0-2,0-3-.07-1.83-.13-3.65-.16-5.47-.06-3.52,0-7-.2-10.54-.2-3.09,0-6.2-.23-9.3-.16-2.13-.1-4.28-.26-6.42-.23-3.13-.26-6.28-.36-9.43,0-1,0-2-.07-3-.13-2.41-.31-4.82-.43-7.23-.09-1.74-.07-3.47-.16-5.2-.18-3-.36-6-.51-9-.14-2.78,0-5.56-.21-8.34-.18-2.22-.21-4.45-.28-6.68-.11-3.69-.26-7.39-.27-11.08,0-3.38-.3-6.75-.38-10.13a2.69,2.69,0,0,0-.15-.79.3.3,0,0,0-.45-.16,1.42,1.42,0,0,0-.54.6,42.11,42.11,0,0,1-4.92,5.5c-.79.76-1.56,1.54-2.35,2.29a15.24,15.24,0,0,0-1.92,2.66,2.38,2.38,0,0,0-.32,1.31,22.94,22.94,0,0,1-.4,3c-.17,1.09-.56,2.12-.78,3.19a4.58,4.58,0,0,1-1.24,2.23c-1.3,1.41-2.45,1.28-4,.34-.11-.07-.19-.2-.3-.28a10.72,10.72,0,0,0-1.13-.77,4.7,4.7,0,0,1-1.71-1.54,23.89,23.89,0,0,1-1.81-2.73,47.22,47.22,0,0,1-2.59-5.59,6.64,6.64,0,0,0-.76-1.59,7.74,7.74,0,0,1-1-2.25c-.36-1.23-.7-2.46-1-3.69-.5-1.75-1-3.51-1.52-5.25a12.92,12.92,0,0,1-.61-2.94,9.06,9.06,0,0,0-.49-2.41,4.93,4.93,0,0,1-.24-1.48,14.89,14.89,0,0,0-.12-1.77,13.65,13.65,0,0,1,.34-4.89,2.2,2.2,0,0,1,1.16-1.59c.64-.35,1.29-.7,1.93-1a1.27,1.27,0,0,1,.51-.19,4.91,4.91,0,0,1,2.93.43c.89.54,1.89,1,2.13,2.16a.67.67,0,0,0,.06.12,1.2,1.2,0,0,0,1.79.69c.37-.16.7-.44,1.07-.59a15,15,0,0,0,4.09-2.93A6.91,6.91,0,0,1,448,291a19.47,19.47,0,0,0,5.27-4.29c.64-.72,1.3-1.41,1.95-2.11.43-.47.81-1,1.22-1.47.8-.9,1.32-2,2.46-2.68a2.07,2.07,0,0,0,1.08-2.32,4.48,4.48,0,0,1,.05-1.09,9.28,9.28,0,0,0,0-2,15.16,15.16,0,0,1-.09-1.78c0-1.78,0-3.55-.13-5.33,0-.5,0-1,0-1.5s0-.91,0-1.37c-.12-2.5-.28-5-.36-7.51-.1-3-.08-6-.29-9,0-.36,0-.73,0-1.09-.07-1.74-.13-3.47-.19-5.2-.12-2.92-.22-5.83-.35-8.75-.11-2.41,0-4.83-.26-7.25-.13-1.5-.26-3-.27-4.5,0-2.6-.3-5.19-.2-7.79,0-.18,0-.37,0-.55-.06-1.5-.12-3-.16-4.51s0-3.19-.1-4.79c-.11-3.23-.27-6.47-.38-9.7-.07-2.19-.06-4.38-.23-6.57-.13-1.68-.21-3.37-.27-5.05-.11-3-.18-5.93-.27-8.89-.06-1.92-.1-3.84-.21-5.74-.14-2.46-.16-4.92-.31-7.38-.22-3.55-.22-7.11-.33-10.67s-.23-6.84-.35-10.25c0-1.1-.06-2.19-.11-3.28-.06-1.64-.17-3.28-.17-4.92,0-1-.2-1.91-.28-2.86,0-.48-.34-.7-.87-.66a3.83,3.83,0,0,0-1.83.5c-1,.69-2.19,1.13-3.24,1.76a8.63,8.63,0,0,0-1.12.78,3.14,3.14,0,0,1-.92.57,6,6,0,0,0-1.2.64l-3.43,2a31,31,0,0,0-4.88,3.23,2,2,0,0,1-1.21.58,2.43,2.43,0,0,0-1.74,1,1.1,1.1,0,0,1-.65.47,2.41,2.41,0,0,0-1.15.7c-.31.26-.61.55-.92.81a3.17,3.17,0,0,1-2,1,1.11,1.11,0,0,0-.85.63c-.13.18-.32.14-.5.06ZM387,428.09h3.2l8.63.11c2.19,0,4.38.14,6.57.09,1.64,0,3.28-.05,4.92,0s3.38.13,5.06.07c2.19-.08,4.38-.12,6.57-.05a16,16,0,0,0,2.59-.21c.67-.09.88-.3.93-1,.09-1,.15-2,.17-3s-.15-1.74-.07-2.59a32.54,32.54,0,0,0,.08-3.42c0-3.19-.12-6.38-.19-9.58,0-.22-.06-.45-.06-.68,0-1.86,0-3.73-.07-5.59,0-1.64,0-3.28-.07-4.92,0-1.28-.1-2.55-.11-3.83,0-3.88,0-7.76-.05-11.64,0-1-.12-2.09-.14-3.14,0-2,0-3.92,0-5.88,0-3.47-.26-6.93-.13-10.4a5.27,5.27,0,0,0,0-.68c0-.77-.09-1.55-.11-2.32-.05-3.33-.08-6.67-.14-10,0-1.23-.11-2.46-.13-3.69,0-3.6-.07-7.21-.1-10.81,0-.82,0-1.65,0-2.47,0-2.17-.5-4.34-.23-6.53,0,0,0-.09,0-.13,0-1.83-.16-3.65-.2-5.47a48.28,48.28,0,0,1-.07-7.51,5.3,5.3,0,0,0,0-.69l-.18-7.11-.06-3.42c0-1,0-2,0-3,0-2.42,0-4.83,0-7.25-.07-4-.2-8-.29-12s-.19-7.76-.27-11.63c0-2.15,0-4.29-.08-6.44-.06-2.37-.18-4.74-.24-7.11s-.09-4.55-.13-6.83c0-.82,0-1.64-.05-2.46-.08-3.19-.17-6.38-.23-9.57,0-1.91,0-3.83-.07-5.75q-.09-6.23-.22-12.44c-.07-3.56-.17-7.12-.25-10.67q-.15-7.66-.29-15.33a5,5,0,0,0-.1-.95.63.63,0,0,0-.55-.53c-.55-.07-1.09-.13-1.64-.17-3.05-.24-6.11-.07-9.17-.11-3.55,0-7.11-.06-10.67-.14-.78,0-1.55.12-2.32.05-3.19-.26-6.38.08-9.57-.1-.32,0-.64,0-1,0a9.91,9.91,0,0,1-1.09,0,11.21,11.21,0,0,0-2.59,0c-2.59.3-5.19,0-7.79.08-.13,0-.27-.05-.4-.05a24.82,24.82,0,0,0-2.86,0c-2.19.22-4.37,0-6.55.11-3.33.08-6.66-.08-10,.17a7.49,7.49,0,0,1-.82,0c-2.47,0-4.93-.12-7.39-.09a35,35,0,0,1-5.32,0,8.42,8.42,0,0,0-1.5.07c-.23,0-.45.06-.68.06-1.68,0-3.36,0-5,0s-3.1.06-4.65.07c-3.51,0-7,0-10.54.07-4.19.06-8.39,0-12.58.16-2.73.08-5.47.05-8.21.06a4.62,4.62,0,0,1-2.15-.21,1,1,0,0,0-.67,0,5.69,5.69,0,0,1-.81.13c-2.05.08-4.09.17-6.14.23-.64,0-1.28-.05-1.91-.06a5.66,5.66,0,0,0-1.09,0,18.89,18.89,0,0,1-2.6.15,17.75,17.75,0,0,0-2.17.23.86.86,0,0,0-.83.92,7.88,7.88,0,0,0,.05,1.09c0,.28.14.54.15.81.09,1.82.1,3.64.27,5.46.14,1.45.1,2.91.16,4.37a22.62,22.62,0,0,0,.17,2.32c.33,2.3.37,4.63.56,6.95.09,1,.17,2.09.24,3.14l.27,4.64c0,.82.06,1.64.13,2.46.35,3.68.57,7.37.71,11.06,0,.69.08,1.36.16,2,.16,1.41.28,2.82.33,4.23.15,4.06.23,8.12.62,12.16.13,1.41.22,2.82.27,4.24.07,2,.17,3.92.28,5.88.08,1.54.14,3.1.31,4.64.11,1.13.15,2.27.22,3.41.05.82.11,1.64.17,2.45.12,1.41.28,2.82.37,4.23,0,.72-.06,1.46,0,2.19.07,2.6.16,5.2.24,7.79a18.1,18.1,0,0,0,.14,2.33c.47,2.94.37,5.91.64,8.86a2.89,2.89,0,0,1-.79,2.65.44.44,0,0,0,0,.63c.6.52.49,1.07.22,1.71a2.29,2.29,0,0,0,0,.94,9.49,9.49,0,0,1,.08,1.5,37.33,37.33,0,0,0,.09,4c0,2.1.36,4.18.3,6.29a10.41,10.41,0,0,0,.12,1.36c.14,1.82.31,3.64.41,5.46.08,1.64.08,3.28.1,4.92s.58,3.23.36,4.89a2.14,2.14,0,0,0,.2.79.8.8,0,0,1,0,.66,2.5,2.5,0,0,0,0,2.23,12.67,12.67,0,0,1,.5,4.33,8.71,8.71,0,0,0,0,1.91,42.34,42.34,0,0,1,.31,4.5c.14,2.87.41,5.73.43,8.61a22.38,22.38,0,0,0,.09,2.32c.37,3.55.4,7.11.66,10.66.18,2.45.21,4.92.34,7.38.11,2,.26,3.91.39,5.87.14,2.13.26,4.27.43,6.41s-.09,4,.26,6a27.84,27.84,0,0,1,.24,4.08c.09,2.82.52,5.63.41,8.47,0,.18,0,.36,0,.55.12,1.68.28,3.36.36,5a82.2,82.2,0,0,0,.75,9.14,6.47,6.47,0,0,1,0,1.08,23.43,23.43,0,0,0,.18,3.14.77.77,0,0,0,.69.74c.23,0,.46.06.68.08,2,.2,3.9.34,5.87.36,4.06,0,8.11.2,12.17.26,4.75.08,9.5.09,14.24.14,5.7.06,11.41.11,17.11.18,1,0,2.1.1,3.14.18a5.63,5.63,0,0,0,1.64,0,6.43,6.43,0,0,1,1.91,0c.77.07,1.54.1,2.32.12l6.57.13c3.33.06,6.66.13,10,.17,2.28,0,4.57,0,6.85.05C379.64,427.93,383.19,428,387,428.09Zm11.73-284.3h0l8.89.13,8.49.14c1,0,2.09,0,3.14,0a1.32,1.32,0,0,0,1.11-.45,10.27,10.27,0,0,0,1.55-2.4,16.18,16.18,0,0,0,.8-2.9,7.16,7.16,0,0,1,.46-1.56,15.82,15.82,0,0,0,.9-2.43,12.73,12.73,0,0,1,1.11-3.63,3.37,3.37,0,0,0,.24-.78,4.17,4.17,0,0,1,.28-.77c.24-.45.5-.86.2-1.4-.09-.15,0-.34.15-.49s.37-.37.37-.56a5.69,5.69,0,0,1,.73-2.12c.16-.37.28-.76.46-1.12a9.29,9.29,0,0,0,.6-1.38c.37-1.22.71-2.45,1.06-3.68a3.39,3.39,0,0,1,.35-1,4.73,4.73,0,0,0,.62-1.51c.48-1.85,1.31-3.6,1.67-5.49a4,4,0,0,1,.48-1.28,20.37,20.37,0,0,0,1.09-3.37.9.9,0,0,0,0-.54,2.66,2.66,0,0,1,.27-2.34,3.75,3.75,0,0,0,.37-1.31c.13-.63-.07-1-.68-1.12a12.73,12.73,0,0,0-2-.29c-2.42-.1-4.83-.11-7.25-.22-3-.14-5.93-.07-8.89-.13q-8.08-.15-16.15-.43c-4.78-.17-9.57-.19-14.36-.27-.55,0-1.09,0-1.64,0l-4.92,0a2.68,2.68,0,0,0-.4,0c-.72.11-1,.35-1,1.05a15.71,15.71,0,0,0,0,3.69,16.41,16.41,0,0,1,.19,3.13,8,8,0,0,0,.05,1.1,49.94,49.94,0,0,1,.31,5,13.88,13.88,0,0,0,.19,2.73,1.8,1.8,0,0,1-.13,1.07,5.78,5.78,0,0,0-.37,1,1.86,1.86,0,0,1-1.51,1.59,3.57,3.57,0,0,0-2.22,1.67,9.08,9.08,0,0,1-2.68,2.49,28.9,28.9,0,0,1-5.2,2.72,15.55,15.55,0,0,1-3.84,1c-2.58.31-5.16.57-7.74.88a13.23,13.23,0,0,1-4.35-.09,4.24,4.24,0,0,0-1.22-.14,22.48,22.48,0,0,1-6.64-.7,10.46,10.46,0,0,1-5.14-2.65,6.9,6.9,0,0,0-2-1.65,1.55,1.55,0,0,1-.75-1.25,9.88,9.88,0,0,1-.11-1.22c-.06-1.83-.1-3.65-.16-5.47a15.07,15.07,0,0,0-.14-1.78,24.82,24.82,0,0,1-.19-2.86c0-.82,0-1.64-.1-2.46-.14-1.87-.2-3.74-.19-5.6,0-1,0-1.92,0-2.88,0-.71-.17-.89-.84-1a9.77,9.77,0,0,0-2.16-.29c-2.28,0-4.56-.08-6.84-.11-1.28,0-2.56,0-3.83,0-1.82,0-3.64-.14-5.47-.16-2.51,0-5,0-7.52,0-2.65,0-5.3-.06-7.94.09s-2.23-.09-3.21,2.19-1.91,4.83-2.9,7.23c-.54,1.31-1.12,2.59-1.74,3.86a15.65,15.65,0,0,0-.72,1.62c-.6,1.67-1.18,3.35-1.8,5-.45,1.24-.89,2.49-1.46,3.69-1.1,2.31-2,4.67-3,7.06q-1.62,4.14-3.3,8.25c-.64,1.56-1.31,3.11-1.83,4.72-.1.3-.21.6-.28.91-.13.55,0,.8.59.83,1.32.08,2.64.18,4,.19,3.29,0,6.57,0,9.86,0,1.28,0,2.55-.05,3.83-.07,1.91,0,3.83,0,5.75,0,2.78,0,5.56-.1,8.34-.1s5.39.17,8.07.08c2.92-.11,5.84.33,8.75,0,4.19.09,8.39-.1,12.58.24a7.48,7.48,0,0,0,.82,0c2.28,0,4.56-.11,6.84-.11,4.79,0,9.57.07,14.36.1,1,0,1.92-.1,2.87,0,2.6.2,5.2.06,7.8.06,1.68,0,3.37-.06,5.06-.08,1.4,0,2.82.06,4.23.08C387.38,143.7,393,143.73,398.7,143.79Zm-14.26,34.9v0c3.78,0,7.57,0,11.36,0,3.46,0,6.92.07,10.39.15,4.38.1,8.75-.09,13.13,0a7.48,7.48,0,0,0,.82,0c.65-.06.81-.21.87-.83a16.19,16.19,0,0,0-.05-2.87c0-.59-.09-1.18-.11-1.77-.06-3.15-.14-6.3-.1-9.44.05-3.7-.06-7.39-.24-11.08a35,35,0,0,0-.34-3.82,6.84,6.84,0,0,0-.35-1.17,1.52,1.52,0,0,0-1.68-1.08c-1.14,0-2.28,0-3.42,0a5.31,5.31,0,0,1-.8-.11s-.08-.08-.07-.1.06-.19.11-.2a2,2,0,0,1,.54-.07h3.42c.32,0,.64,0,1,0s.46-.12.44-.4-.22-.29-.4-.3c-.5,0-1,0-1.51-.05-3.47,0-6.94,0-10.4-.12s-6.75-.17-10.13-.2c-5.06-.05-10.12-.08-15.18-.21-.36,0-.73,0-1.09.05l-4.78.14a3.14,3.14,0,0,1-.68-.07,4.38,4.38,0,0,0-1.49,0,3.37,3.37,0,0,1-1,0,3.46,3.46,0,0,0-1.63.12,1.71,1.71,0,0,1-1.2,0,1.6,1.6,0,0,0-.66-.09c-1,0-2,0-3,.05a3,3,0,0,0-1.09.1,2.46,2.46,0,0,1-2.21,0,.8.8,0,0,0-.41,0c-1.73.13-3.45-.18-5.18,0a10.57,10.57,0,0,1-1.37.07c-2.73-.13-5.47-.12-8.21-.11-3,0-6,0-9,0q-3.5,0-7-.12c-6-.15-12,.09-18.06,0-2.1,0-4.2,0-6.3,0-.95,0-1.92.06-2.87,0-2.33-.11-4.65-.19-7-.09-.68,0-1.36,0-2.05,0-.36,0-.73-.06-1.09,0a60,60,0,0,1-7.93,0,10.15,10.15,0,0,0-1.23,0l-7.09.46a.89.89,0,0,0-.94.82,3.88,3.88,0,0,0,0,1.36,10.21,10.21,0,0,1,0,2.59,5.13,5.13,0,0,0,.31,2.69,4.93,4.93,0,0,1,.3,1.61c0,.5.08,1,.11,1.5.11,1.5.26,3,.31,4.5.1,2.82.21,5.64.53,8.46a34.17,34.17,0,0,1,.34,5.45,27.56,27.56,0,0,0,.14,3,3.63,3.63,0,0,0,.52,1.68c.31.49.29.53.93.35a1,1,0,0,1,.79,0,2.88,2.88,0,0,0,1.48.21h1.09a30.46,30.46,0,0,0,5.73-.29,1.94,1.94,0,0,1,.68,0,20.8,20.8,0,0,0,5.46.07,7.69,7.69,0,0,1,1,0l7.94-.07c.73,0,1.46-.11,2.18-.06,2.6.18,5.2.06,7.8.06,1.64,0,3.28-.16,4.91-.09,2.79.12,5.56-.18,8.35-.14s5.65,0,8.47,0c3.15,0,6.3,0,9.44,0,2.56,0,5.11-.14,7.66-.15,5.38,0,10.77,0,16.15,0ZM363.61,455.12a1.27,1.27,0,0,1,1.44-.89c2,.06,4,.09,6,.13,5.34.1,10.67.21,16,.29,4.79.06,9.58.08,14.38.11,1.23,0,2.46,0,3.69,0,3.74,0,7.49,0,11.23-.07l7,0a12.44,12.44,0,0,0,1.37-.07c.74-.08.92-.26,1-1a12.36,12.36,0,0,0,0-1.36c0-.6,0-1.19,0-1.78,0-3.65,0-7.31-.07-11,0-1.7-.18-1.81-1.94-1.79q-3.9,0-7.8,0c-2.69,0-5.39-.05-8.07.15-2.51.2-5,.09-7.52.05-1.51,0-3-.31-4.5-.36-3-.09-6-.15-9-.21-2.1-.05-4.2-.07-6.3-.11l-6-.16-5.07-.11c-2.46-.07-4.92-.16-7.39-.2-5.2-.09-10.4-.07-15.6-.28-1.82-.08-3.65,0-5.48,0-3.42,0-6.84-.26-10.26-.26-3.65,0-7.3-.06-10.95-.22-3.83-.17-7.66-.19-11.49-.28-2,0-3.93-.07-5.89-.18-2.64-.15-5.29-.24-7.93-.25a6.59,6.59,0,0,0-1.09.1.49.49,0,0,0-.42.47,2.52,2.52,0,0,0,0,.55c.07,1.73.24,3.46.21,5.19-.05,2.88.31,5.74.34,8.61a3,3,0,0,0,.21,1.07,1.39,1.39,0,0,0,1.17,1c.68.09,1.36.23,2,.28,1.54.09,3.08.28,4.64.26,3-.05,5.91.33,8.88.31,3.51,0,7,.08,10.54.21,4.38.16,8.76.15,13.14.24,2.42.05,4.83.11,7.25.23,3.37.15,6.75.23,10.13.19s6.48,0,9.71.31A3.63,3.63,0,0,1,363.61,455.12ZM235,240a13.71,13.71,0,0,0-.17-2.59,4.58,4.58,0,0,0-1.62-2.93,2.21,2.21,0,0,1-.7-.82,4.6,4.6,0,0,0-2.47-2.06c-.49-.23-1-.43-1.5-.64a26.2,26.2,0,0,0-3.21-1.17c-.57-.15-1.16-.23-1.73-.41a7.46,7.46,0,0,0-2.69-.37c-1,.05-1.92.07-2.87.18a7.39,7.39,0,0,0-3.7,1.66,3.31,3.31,0,0,0-.71.82,1.51,1.51,0,0,0,.35,2.18,13.07,13.07,0,0,0,1.48,1,4.3,4.3,0,0,0,1.37.61,29.73,29.73,0,0,0,3.51.53,17.61,17.61,0,0,1,5.58,1.26,6.33,6.33,0,0,1,2,1.17,10.56,10.56,0,0,1,2.21,2.41.74.74,0,0,1,.15.64.94.94,0,0,1-1.26.44,1.59,1.59,0,0,1-.52-.63,3.3,3.3,0,0,0-1.15-1.33,25.42,25.42,0,0,0-2.37-1.36,9.45,9.45,0,0,0-2.77-.73,3.22,3.22,0,0,0-.82,0,.46.46,0,0,0-.39.6c.13.62.31,1.24.4,1.87a3,3,0,0,1-1,2.45,2,2,0,0,1-1.9.5l-.27,0c-1.64,0-1.54-.09-2,1.42a4.77,4.77,0,0,1-3,3,1.83,1.83,0,0,1-.81.1,7.81,7.81,0,0,1-2.92-.66,11.65,11.65,0,0,0-1.53-.56c-.13-.05-.31-.05-.37.09a.65.65,0,0,0,0,.39,2.35,2.35,0,0,0,.88,1,12.65,12.65,0,0,1,1.19,1.13c.79.88,1.58,1.76,2.44,2.57a11.71,11.71,0,0,0,2.45,1.74,4.36,4.36,0,0,0,2.34.66,5.09,5.09,0,0,1,.93.18,5.81,5.81,0,0,0,1.08.14,13.36,13.36,0,0,0,3.92-.55,22,22,0,0,0,3.44-1.29,30.71,30.71,0,0,0,4.6-3.2,7.24,7.24,0,0,0,2.53-3,9.21,9.21,0,0,0,.47-1.84,1.4,1.4,0,0,1,.38-1,2.08,2.08,0,0,0,.73-2C235,241.17,235,240.72,235,240Zm255-18.61a22.17,22.17,0,0,0,.08,3.82,5.17,5.17,0,0,0,1.47,3,9.5,9.5,0,0,0,2.32,1.65,18.41,18.41,0,0,0,5.11,2.21,2.21,2.21,0,0,1,.77.27,8.28,8.28,0,0,0,3.31.75,3.3,3.3,0,0,0,1.08-.09,8.59,8.59,0,0,0,5.58-3.62,4.3,4.3,0,0,1,.61-.73,5.07,5.07,0,0,0,1.4-2.61c.19-.7.06-.91-.63-1.09a2.55,2.55,0,0,1-1.38-.54c-.72-.8-1.61-1.52-1.49-2.79a1.09,1.09,0,0,0-.64-1.13,7.87,7.87,0,0,0-2.48-.72.42.42,0,0,0-.4.65c.67.86,1,2,1.84,2.69a.66.66,0,0,1,.25.61,1,1,0,0,1-1.61.75,3.6,3.6,0,0,1-.63-.71c-.45-.62-.9-1.26-1.32-1.91a6.73,6.73,0,0,1-1.11-2,2.45,2.45,0,0,0-.71-1.15.33.33,0,0,0-.49,0,2.31,2.31,0,0,0-.34.42,25,25,0,0,0-1.81,3.67,3,3,0,0,1-.65,1.18,1.09,1.09,0,0,1-1.39,0,.83.83,0,0,1-.32-1.08,7.28,7.28,0,0,1,1-1.93,4,4,0,0,0,.74-1.6,7.16,7.16,0,0,1,2.39-4,11.16,11.16,0,0,1,4-2.5,23.21,23.21,0,0,0,2.54-1,4.07,4.07,0,0,0,1.52-1.14,2.17,2.17,0,0,0-1.22-3.6c-.66-.14-1.35-.16-2-.26a3.26,3.26,0,0,0-1.08-.06c-2.26.34-4.38,1.22-6.62,1.61a1.86,1.86,0,0,0-.25.1c-1.06.44-2.11.87-3.15,1.33a5,5,0,0,0-2.68,2.61,10.72,10.72,0,0,0-.76,2.19A30.86,30.86,0,0,0,490.05,221.38ZM218.81,223c.06.4-.22.86-.8,1.2a3.41,3.41,0,0,1-3.34-.28,36.64,36.64,0,0,1-5-4.6,54.69,54.69,0,0,0-5.94-5.85,11.07,11.07,0,0,0-2.34-1.38,3.46,3.46,0,0,0-1.74-.3.88.88,0,0,0-.87,1.12,5.59,5.59,0,0,0,1.29,2.82c.91,1.08,1.76,2.2,2.65,3.29a23.73,23.73,0,0,0,2.39,2.62,6.22,6.22,0,0,1,.77.77,23.15,23.15,0,0,0,3,3.13,16.66,16.66,0,0,0,3.38,2.53,3.28,3.28,0,0,1,.87.66c.51.51.52.49,1.15.19a9.51,9.51,0,0,1,2.38-1,19,19,0,0,1,5.16-.44c.83.08,1.61.3,2.42.45a20.4,20.4,0,0,1,5.06,1.59,2,2,0,0,0,1.42.36c.27-.59-.08-1-.34-1.5-.74-1.31-1.49-2.61-2.21-3.93a12,12,0,0,0-1.71-2.78,3.07,3.07,0,0,1-.43-.69,9.6,9.6,0,0,0-1.41-1.83,11.19,11.19,0,0,1-1.27-2.09l-.09-.1a20.19,20.19,0,0,1-2.11-2.85,7.15,7.15,0,0,1-.77-1.6,18.62,18.62,0,0,0-2-4,23.51,23.51,0,0,0-3.77-3.95,7.25,7.25,0,0,0-2.22-1.33c-1-.39-1.72.17-1.64,1.26a7.19,7.19,0,0,0,.13.81c.08.41.19.8.25,1.21a7.94,7.94,0,0,0,.84,2.44c1.6,3.17,3.61,6.11,5.29,9.24C218.42,219.43,218.59,221.07,218.81,223ZM431.27,121.72a1.18,1.18,0,0,0-1.44.86,2.25,2.25,0,0,0-.2.51c-.38,1.69-1.1,3.28-1.63,4.92a46.35,46.35,0,0,0-1.73,5.75,3,3,0,0,1-.28.77,10.72,10.72,0,0,0-.76,2.19,23.31,23.31,0,0,1-1.38,4.29,4,4,0,0,0-.24.92.35.35,0,0,0,.46.36,3.13,3.13,0,0,0,.51-.19c1.17-.61,2.39-1.14,3.5-1.84,2.54-1.61,5.28-2.87,7.73-4.64,1.62-1.17,3.38-2.15,5.08-3.2a12.62,12.62,0,0,1,2.25-1.28,25.59,25.59,0,0,0,3.52-2,14.54,14.54,0,0,1,1.88-1.08,2,2,0,0,0,1.23-1.37c.25-.81.06-1.05-.65-1.13-.45,0-.9-.18-1.35-.22a3.5,3.5,0,0,1-1.8-.56,2,2,0,0,0-1.17-.32,9.88,9.88,0,0,1-1.62-.23,9.27,9.27,0,0,0-1.9-.18,4,4,0,0,1-1.34-.19c-1.12-.38-2.29-.57-3.42-.88s-2.47-.66-3.71-1C432.28,121.85,431.74,121.8,431.27,121.72ZM392.6,595.67a18.29,18.29,0,0,1,0-3.14,4,4,0,0,0-.07-1.09.47.47,0,0,0-.45-.43,5.48,5.48,0,0,0-.81,0c-1.37.07-2.73.16-4.1.22a5.79,5.79,0,0,0-2.39.47.92.92,0,0,1-.92.07,2.74,2.74,0,0,0-2-.14,13.8,13.8,0,0,1-3.27.26,1.79,1.79,0,0,0-.4,0c-.82.06-1.06.34-.88,1.16a22.94,22.94,0,0,1,.5,4.75,9.37,9.37,0,0,0,.16,1.76c.42,1.74.22,3.55.68,5.28a2.26,2.26,0,0,1,0,.82c-.25,2.06-.16,2.1,1.91,1.63a29.52,29.52,0,0,1,9.24-.23c1.82.17,2.55-.32,2.52-1.95v-.54c0-1.55,0-3.1.07-4.64S392.54,597.08,392.6,595.67ZM320,609.17A19.67,19.67,0,0,1,320,612a3.78,3.78,0,0,0,0,1,.88.88,0,0,0,.78.82,2.48,2.48,0,0,0,1.35-.12,9.61,9.61,0,0,1,3.65-.39,11.85,11.85,0,0,0,2.73-.12,15,15,0,0,1,4-.08c.18,0,.36.06.54.07.56,0,.82-.21.88-.79a5.67,5.67,0,0,0,0-.82,4.83,4.83,0,0,1,.57-2.64,1.54,1.54,0,0,0,.19-.79c0-1.51,0-3-.11-4.51a21.5,21.5,0,0,1,.22-4.09c0-.22.1-.45.13-.67a.49.49,0,0,0-.44-.58,20,20,0,0,0-2,0c-1.64.11-3.26.38-4.91.41a5,5,0,0,0-1.49.21,6.88,6.88,0,0,1-5.06-.39,7.3,7.3,0,0,0-1-.37.57.57,0,0,0-.76.56,12.71,12.71,0,0,0,.08,1.63c.16,1.27.4,2.52.51,3.79C319.91,605.79,320,607.48,320,609.17Zm191.5-422.63h-.09c0-.55,0-1.1,0-1.64a21.85,21.85,0,0,0-.37-2.29.61.61,0,0,0-1.05-.33,2.92,2.92,0,0,0-.8,1.1c-.34.89-.7,1.78-1,2.69a53.09,53.09,0,0,0-1.71,8c-.37,2-1,3.88-1.55,5.8a3.58,3.58,0,0,1-.29.77,3.21,3.21,0,0,1-2.3,1.76,1.27,1.27,0,0,1-1.5-.69,6.18,6.18,0,0,1-.6-1.51,25.9,25.9,0,0,1-.4-3.26c-.31-2.44-.42-4.91-.5-7.36-.05-1.38-.29-2.72-.38-4.08a6.51,6.51,0,0,0-.2-1.07,3.41,3.41,0,0,0-.84-1.55,1,1,0,0,0-1.69.25,5,5,0,0,0-.66,1.93,27.78,27.78,0,0,0-.16,4.37c.07.77.18,1.54.22,2.32a35.36,35.36,0,0,1,.09,5.73,58.39,58.39,0,0,1-1.44,6.68c-.24,1.07-.56,2.12-.83,3.18a.39.39,0,0,0,.49.47,5.41,5.41,0,0,0,.63-.24,17.17,17.17,0,0,1,4-1.39,2.4,2.4,0,0,0,.66-.19,17.76,17.76,0,0,1,4.75-1.22,4.86,4.86,0,0,1,1.9,0,10.75,10.75,0,0,0,1.5.16,1.09,1.09,0,0,0,1.12-.63c.25-.49.41-1,.69-1.49a4.19,4.19,0,0,0,.51-2.77,2.34,2.34,0,0,1,.16-1.33,4.14,4.14,0,0,0,.19-.79c.55-2.41.73-4.87,1.1-7.3C511.36,189.28,511.42,187.91,511.54,186.54Zm-156.06-61a21.88,21.88,0,0,0,2.73-.94,4.85,4.85,0,0,1,2.16-.78.72.72,0,0,0,.72-.7,13.72,13.72,0,0,0,.18-3.67c-.24-1.36-.1-2.73-.23-4.09a2.24,2.24,0,0,1,.11-.67.26.26,0,0,1,.18-.17.24.24,0,0,1,.2.12c0,.22.06.44.09.67.21,2,.41,4,.65,6,0,.32,0,.82.42.92a1.45,1.45,0,0,0,1.21-.52.84.84,0,0,0,.18-.5,10,10,0,0,0,0-1.64,54.87,54.87,0,0,1-.26-5.74,6.75,6.75,0,0,1,.14-1.9,2.6,2.6,0,0,0-.13-1.74,1.43,1.43,0,0,1,0-1.32,1.44,1.44,0,0,0,0-.94c-.09-.44-.35-.66-.77-.57a13.87,13.87,0,0,0-3,1,1,1,0,0,0-.69,1.09,32.34,32.34,0,0,1,0,3.55c.07,2.92.07,5.84.09,8.76a1.34,1.34,0,0,1-.16.92.47.47,0,0,1-.34.17.41.41,0,0,1-.3-.22,1.87,1.87,0,0,1-.09-.67c0-.68.06-1.36.12-2,.2-2.55.2-5.1.21-7.65a2,2,0,0,0-.16-1.07,1.07,1.07,0,0,1-.06-1,1.71,1.71,0,0,0,.1-.67.56.56,0,0,0-.38-.52,1.16,1.16,0,0,0-1.14.26.78.78,0,0,0-.24,1,1.4,1.4,0,0,1,.19,1,4.64,4.64,0,0,0,0,2.16c.12,1.23.21,2.45.3,3.68s.15,2.46.23,3.69c0,.73.09,1.46.13,2.19a.81.81,0,0,1-.16.64c-.1.11-.25.15-.34,0a2.27,2.27,0,0,1-.37-1.16,25.66,25.66,0,0,1-.22-3.27c.09-3.11-.32-6.19-.44-9.28a.55.55,0,0,0-.81-.44.56.56,0,0,0-.37.65,4.59,4.59,0,0,1-.26,1.87c-.46-.19-.27-.6-.45-.84a.33.33,0,0,0-.35-.15.33.33,0,0,0-.18.17,10.17,10.17,0,0,0-.24,2.58c0,.78,0,1.56,0,2.33a1.05,1.05,0,0,1-.12.38s-.07,0-.11,0a.16.16,0,0,1-.11-.05,3.11,3.11,0,0,1-.14-.66c0-1.32,0-2.64,0-4a6.3,6.3,0,0,0-.07-1.23.74.74,0,0,0-.8-.61.7.7,0,0,0-.69.55,5,5,0,0,0-.16,1.08,29.74,29.74,0,0,0,.15,3.14c.1.88,0,1.73,0,2.6a.25.25,0,0,1-.16.17c-.06,0-.21-.06-.21-.1a17,17,0,0,1-.2-3.26,19.13,19.13,0,0,0,.12-2.73,1.75,1.75,0,0,0-1.49-2,.83.83,0,0,0-1.18.75,13.19,13.19,0,0,0,0,1.78c.07,1.59.19,3.18.26,4.77.06,1.28.06,2.56.13,3.83.05.9.17,1.79.28,2.94.45-2.43.3-4.66.87-7.13a18.23,18.23,0,0,1,.35,3.84c-.05,1.23,0,2.46,0,3.69s.06,1.69,1.75,1.83a4.87,4.87,0,0,0,.54,0c.36,0,.5-.18.41-.55a28.77,28.77,0,0,1-.27-4.36,14.48,14.48,0,0,1,.16-2.45,1.83,1.83,0,0,1,.15-.52.25.25,0,0,1,.22-.11c.08,0,.2,0,.22.11a1.1,1.1,0,0,1,.12.52c-.14,1.33.16,2.64.11,4a1.24,1.24,0,0,0,0,.27c0,.19.13.36.33.37s.3-.2.28-.38a5.3,5.3,0,0,1-.11-1.63,5.82,5.82,0,0,0,0-2,2.85,2.85,0,0,1,0-1.09,12.55,12.55,0,0,0,.05-3,3.09,3.09,0,0,1,.16-1.21c.06-.16.12-.36.42-.22C355.12,117.39,354.86,121.41,355.48,125.51Zm-22.7,507.78a31.25,31.25,0,0,0,6.4-.52,2,2,0,0,0,1.93-2c.15-.85.3-1.71.42-2.56a6.33,6.33,0,0,0,.05-1.23c0-.5-.15-.62-.61-.77a11.67,11.67,0,0,0-3.38-.39,1.53,1.53,0,0,0-1.65.94,5.71,5.71,0,0,1-.45.68,2.63,2.63,0,0,1-2.25,1.34c-.45,0-.9.1-1.36.13l-2.73.19c-1.86.13-3.72.28-5.59.39a19.74,19.74,0,0,0-3.25.47,1.57,1.57,0,0,0-1.22,1,25.82,25.82,0,0,1-1.37,3,1.49,1.49,0,0,0-.12.39.43.43,0,0,0,.37.48c.32,0,.64,0,.95,0,.87-.06,1.73-.15,2.6-.18a21.85,21.85,0,0,0,3.52-.44A38,38,0,0,1,332.78,633.29Zm-14.53,6.21a20.6,20.6,0,0,0-2.74-.14c-.36,0-.73,0-1.09,0-.8-.09-1-.38-.85-1.18s.06-.78-.65-.77a26.32,26.32,0,0,1-3.55-.11,2.44,2.44,0,0,0-.54,0,44.69,44.69,0,0,1-11-.6,10.62,10.62,0,0,0-2.45-.14c-.86.06-1.72.15-2.58.22l-4.35.33c-.5,0-1,.06-1.5.12a.48.48,0,0,0-.29.83c.18.21.4.37.59.57a6.28,6.28,0,0,1,.8.92,1.55,1.55,0,0,0,1.48.79,45,45,0,0,0,5.19-.09,22.66,22.66,0,0,1,3.95,0,24.53,24.53,0,0,0,4.37,0c.77-.06,1.54-.12,2.31-.15,2.28-.08,4.56-.12,6.83-.24,1,0,2-.06,3,0,.78,0,1.55,0,2.33,0A.81.81,0,0,0,318.25,639.5ZM212.46,246.09A2.38,2.38,0,0,0,214.8,244a1.53,1.53,0,0,0-.4-1.38,7.94,7.94,0,0,1-.88-1,7.39,7.39,0,0,0-2.63-2.34,25.33,25.33,0,0,1-3.47-2.42,9.72,9.72,0,0,0-2.6-1.48,5.32,5.32,0,0,0-1.19-.3,1.23,1.23,0,0,0-1.09.43,2.43,2.43,0,0,0-.72,1.86,4.61,4.61,0,0,0,.87,2.41c.47.67,1,1.26,1.52,1.92a7.16,7.16,0,0,0,2.26,1.95c1.14.67,2.29,1.32,3.48,1.9A5.66,5.66,0,0,0,212.46,246.09ZM516,203.78v-.68a3,3,0,0,0-.92-2.07,1.28,1.28,0,0,0-1.73-.28,3,3,0,0,0-1.51,1.52,8,8,0,0,1-1.29,2.19,1.94,1.94,0,0,0-.11,2.29,4.66,4.66,0,0,1,.15,4.34,5,5,0,0,1-2.79,2.66,4.05,4.05,0,0,0-1.89,1.52,1.88,1.88,0,0,0,1.37,3,1.94,1.94,0,0,0,1.48-.56c.48-.43.95-.86,1.4-1.31a7.21,7.21,0,0,0,1.32-1.73q1.43-2.64,2.93-5.24a4,4,0,0,0,.59-1.65,1.9,1.9,0,0,1,.27-1A4.58,4.58,0,0,0,516,203.78ZM218.37,241.52c.92,0,1.41-.48,1.28-1.44a1.8,1.8,0,0,0-.18-.65,17,17,0,0,0-1-1.64,1.76,1.76,0,0,0-1.27-.73,11.89,11.89,0,0,1-3.49-1.18,3.74,3.74,0,0,1-1.59-1.25,3.31,3.31,0,0,1-.41-3.25c.27-.73.33-.94-.46-1.45a4,4,0,0,1-.32-.26,13.57,13.57,0,0,0-3.38-2c-.73-.24-1.09-.18-1.54.43a2.88,2.88,0,0,0-.43,2.84,5.49,5.49,0,0,0,2,2.52,9.82,9.82,0,0,1,1.77,1.7,12.86,12.86,0,0,0,2,2c1.43,1.13,2.92,2.19,4.29,3.39A4.55,4.55,0,0,0,218.37,241.52Zm127.44-128c-.27-.65-.29-.66-.19-1.19.2-1.14-.26-2.25-.21-3.38a.33.33,0,0,0,0-.13.48.48,0,0,0-.45-.24.56.56,0,0,0-.36.15,1.37,1.37,0,0,0-.27.9c-.06,1-.14,1.91-.16,2.86-.08,3.37-.2,6.74-.08,10.11a7.94,7.94,0,0,1,0,1.09c-.13,1.32-.09,1.4,1.08,2a3.12,3.12,0,0,0,.49.23.7.7,0,0,0,.93-.33c.17-.28.28-.59.67-.59.65,0,.86-.4.92-1,0-.37.06-.73.06-1.09.07-4.1-.1-8.19-.24-12.28a4.47,4.47,0,0,0-.07-.82,3.3,3.3,0,0,0-.35-.87.67.67,0,0,0-1.14,0,2,2,0,0,0-.37,1.16c0,.73,0,1.45-.05,2.18A2.62,2.62,0,0,1,345.81,113.53Zm45.44,534.64s0-.1,0-.12c-.39-.21-.78-.46-1.19-.64a12,12,0,0,1-5-4.16c-1.24-1.68-2.23-3.54-3.55-5.17a2.08,2.08,0,0,1-.28-.48c-1-2.16-2.22-4.18-3.35-6.26a33.46,33.46,0,0,1-1.62-3c-.3-.71-.51-1.47-.85-2.16a50,50,0,0,1-2.22-4.82,4.53,4.53,0,0,1-.39-1.16,11.8,11.8,0,0,0-1.07-3.23c-.07-.17-.19-.34-.39-.28s-.22.18-.25.3a3.47,3.47,0,0,0,.08,2.27c.34.74.59,1.52.95,2.26a14.81,14.81,0,0,1,.77,1.9,26.15,26.15,0,0,0,1.91,4.08,51.52,51.52,0,0,1,2.83,5.9c.75,2,1.59,4,2.44,5.94a13.2,13.2,0,0,0,2.12,3.49,38.71,38.71,0,0,0,3.45,3.68,7.27,7.27,0,0,0,5.42,1.82C391.12,648.31,391.18,648.22,391.25,648.17ZM365.91,123.64a.3.3,0,0,0,.13,0,9.91,9.91,0,0,0,4.45-2.55,1.35,1.35,0,0,0,.29-1.14c-.28-4-.17-8.1-.1-12.15,0-.59,0-1.18-.06-1.77a.53.53,0,0,0-.56-.49c-.18,0-.36,0-.54,0s-.23,0-.24-.08a.57.57,0,0,1,0-.37c.32-.5.68-1,1-1.48a.69.69,0,0,0-.18-.87.67.67,0,0,0-.88,0c-.51.38-1,.77-1.49,1.18a.61.61,0,0,0-.16.75,3.24,3.24,0,0,0,.21.35,2.73,2.73,0,0,1,.44,2.45,3.79,3.79,0,0,0-.07,1.35c.05,1.36-.08,2.72,0,4.09.13,1.63.09,3.27.1,4.91,0,.78,0,1.55-.08,2.32a1.59,1.59,0,0,1-.61,1.18,18.94,18.94,0,0,0-1.39,1.31,3.37,3.37,0,0,0-.47.65C365.66,123.47,365.77,123.59,365.91,123.64ZM386,623.18a2.54,2.54,0,0,0,.47-.07,12.17,12.17,0,0,1,2.16-.28c1.46-.14,2.91-.31,4.35-.49a3.31,3.31,0,0,0,1.31-.38c.21-.12.4-.29.35-.54a6.93,6.93,0,0,0-.58-2.23.68.68,0,0,0-.65-.41,14.89,14.89,0,0,0-1.64.11,43.43,43.43,0,0,1-5.58.46,5.79,5.79,0,0,0-1.89.3c-.42.15-.63.47-.47.84a9.37,9.37,0,0,0,1.48,2.44A.82.82,0,0,0,386,623.18Zm-1.32-9.95a23.74,23.74,0,0,0,5.82-.53c1.34-.28,1.21-.89.64-1.86a1.54,1.54,0,0,0-.29-.28,2.91,2.91,0,0,0-2-.73c-2.49-.11-5,.29-7.48.09a1.36,1.36,0,0,0-1.35,2,1.56,1.56,0,0,0,1.53,1.1C382.74,613.11,383.92,613.25,384.69,613.23ZM365.28,114.58c.09,2.46.15,4.14.21,5.82a7.36,7.36,0,0,0,.06.81.55.55,0,0,0,.62.4A1.32,1.32,0,0,0,367.3,120a11.77,11.77,0,0,1-.2-2.58c0-1,0-2,0-3s0-1.91,0-2.86,0-2,0-3c-.68-.92.12-1.84,0-2.77,0,0,0-.09,0-.13,0-.25.11-.59-.24-.71s-.42.11-.59.26-.35.28-.52.44a1.47,1.47,0,0,0-.46,1.73,2.27,2.27,0,0,1,.1,1.82,3,3,0,0,0-.11.94C365.23,111.91,365.27,113.63,365.28,114.58Zm20.65,500.54c-.87,0-1.73,0-2.59,0-1.31.09-1.63.15-1,1.7.32.77.55.89,1.36.81a15.48,15.48,0,0,1,2.45-.21,11.19,11.19,0,0,0,2.31-.12c1.22-.15,2.44-.32,3.66-.49a5.39,5.39,0,0,0,.8-.16.53.53,0,0,0,.36-.65,3.46,3.46,0,0,0-.75-1.58.62.62,0,0,0-.74-.2,7.29,7.29,0,0,1-1.15.43A27,27,0,0,1,385.93,615.12ZM342.42,121.45h0c0,.37.06.73.06,1.1a1.88,1.88,0,0,1-.12.66.44.44,0,0,1-.29.24.41.41,0,0,1-.35-.13c-.2-.25-.34-.54-.52-.8a.44.44,0,0,0-.48-.19,1,1,0,0,0-.73.56.46.46,0,0,0,0,.38,3.44,3.44,0,0,0,2.33,1.53.55.55,0,0,0,.6-.44,7.36,7.36,0,0,0,.06-.81c0-.87,0-1.74,0-2.6.1-3.28.22-6.56.32-9.84a2.69,2.69,0,0,1,.34-1.31,2.18,2.18,0,0,0,.22-1.33c-.1-.94-.32-1.15-1.3-1.21a.61.61,0,0,0-.64.39c-.21.37-.24.35-.63,0-.21-.16-.37-.13-.39.08a8.27,8.27,0,0,0,0,2c0,.11.16.31.2.3.69-.2.59.35.63.7.08.68.12,1.36.16,2,.11,2,0,3.92.3,5.87C342.27,119.63,342.32,120.54,342.42,121.45ZM317.58,637a.79.79,0,0,0,.77.29c1.87,0,3.74,0,5.61-.11,1.41-.12,2.82-.12,4.23-.21a56.62,56.62,0,0,1,7.92-.25,3.14,3.14,0,0,0,2.89-1.22.48.48,0,0,0,.11-.36c0-.15-.18-.18-.32-.17-.77.08-1.54.21-2.31.23-1.91,0-3.83.06-5.75.08a13.79,13.79,0,0,0-2.71.29,45,45,0,0,1-9.59,1.37C318.2,637,318,637,317.58,637Zm57.45-21c0-.45-.06-.77-.1-1.08a.54.54,0,0,0-.42-.48.44.44,0,0,0-.54.3,2.45,2.45,0,0,1-.29.61,1.14,1.14,0,0,0-.11,1.28,10.8,10.8,0,0,1,.8,2.61.88.88,0,0,0,.14.38,11.89,11.89,0,0,1,1.16,2.75,4.22,4.22,0,0,0,.4.86,12.89,12.89,0,0,1,1.48,3.36,29,29,0,0,0,1.33,2.81.83.83,0,0,0,.17.21.48.48,0,0,0,.72,0,1.79,1.79,0,0,0,.39-2,16.17,16.17,0,0,0-1.6-3.16,3.42,3.42,0,0,1-.53-.79c-.48-1.18-1.36-2.16-1.67-3.42a1.82,1.82,0,0,0-.43-.7A3.32,3.32,0,0,1,375,616.06Zm-68.14,9.09c.27,0,.55-.06.81-.12.66-.14.81-.38.61-1.09-.34-1.26-.72-2.52-1.07-3.78-.19-.66-.33-1.32-.53-2a.62.62,0,0,0-.87-.43,6.17,6.17,0,0,0-2.09,1.24,1.17,1.17,0,0,0-.3,1.25,11.72,11.72,0,0,0,1.93,4.16A1.59,1.59,0,0,0,306.89,625.15ZM372.61,110c-.06-.6-.13-1.23-.19-1.86,0-.3.14-.56.3-.5a.46.46,0,0,1,.33.39c0,.32.06.64.07,1a28.42,28.42,0,0,0,.6,4.32c0,.14.12.29.27.22s.15-.23.14-.34c-.22-2-.13-4-.27-6a15,15,0,0,0-.27-1.61c0-.13-.12-.29-.27-.25s-.17.17-.23.29-.14.33-.23.49a.27.27,0,0,1-.45,0,1.78,1.78,0,0,1-.16-.51c0-.36,0-.72,0-1.09s-.12-.46-.39-.47-.39.22-.47.43a3.09,3.09,0,0,0-.13,1.21c.08,2,.19,3.9.2,5.85,0,2.28.13,4.55.33,6.81a2.5,2.5,0,0,0,.14.67.56.56,0,0,0,.29.25.4.4,0,0,0,.48-.16,1.46,1.46,0,0,0,.26-1.28,12.66,12.66,0,0,1-.21-4.34,1.08,1.08,0,0,0,0-.4A9.59,9.59,0,0,1,372.61,110Zm-62,506.38c-1.38.06-1.88.6-1.82,2a.66.66,0,0,0,0,.14A20.63,20.63,0,0,0,310,623a2.32,2.32,0,0,0,.34.59.76.76,0,0,0,1.07.26c.51-.29,1-.61,1.51-.92a.51.51,0,0,0,.25-.57,19.08,19.08,0,0,0-1.36-4.55,9.06,9.06,0,0,0-.67-1.17A.54.54,0,0,0,310.64,616.42ZM338.19,116c.9-.65.93-.65,1-1.53a56.65,56.65,0,0,0,.21-8,3.31,3.31,0,0,0-.34-1.44c-.31-.64-.58-.83-1.46-1a22.82,22.82,0,0,0-.15,4.21c.06,2,.22,3.9.34,5.85A7.28,7.28,0,0,0,338.19,116ZM302.12,625.34c.16,0,.34,0,.52-.05a.53.53,0,0,0,.46-.69,1.61,1.61,0,0,0-.12-.39,9.76,9.76,0,0,1-1.28-3.71.8.8,0,0,0-.11-.25.63.63,0,0,0-.79-.36,3.93,3.93,0,0,0-2.62,2.4,1.63,1.63,0,0,0,.81,2.09A7.53,7.53,0,0,0,302.12,625.34Zm91.34-1v-.06l-5.84.73a1.34,1.34,0,0,0-.38.14.41.41,0,0,0-.23.56c.14.46.57.7.84,1.06a1.83,1.83,0,0,0,1.94.72,26.89,26.89,0,0,0,2.65-.64,3.24,3.24,0,0,0,1.8-1.19c.24-.33.5-.71.24-1.12s-.57-.2-.88-.2Zm24.83-168.17h-6a1.85,1.85,0,0,0-1.06.17.48.48,0,0,0-.24.46.39.39,0,0,0,.33.38,3,3,0,0,0,.67,0c3.6-.08,7.2-.16,10.8-.26a17.58,17.58,0,0,0,2-.25.57.57,0,0,0,.23-.12.24.24,0,0,0,.06-.11c0-.08-.07-.2-.12-.22a3,3,0,0,0-.67-.09ZM316.42,618.33a3.44,3.44,0,0,0-1.2-2.64,1.42,1.42,0,0,0-1.4-.31.36.36,0,0,0-.27.42,28.41,28.41,0,0,0,.63,2.91,17,17,0,0,0,1,2.36.64.64,0,0,0,.83.26c.32-.14.59-.48.48-.74A4.24,4.24,0,0,1,316.42,618.33Zm20.21-514.54a1.39,1.39,0,0,0-.74-1.56.48.48,0,0,0-.68.2,2.23,2.23,0,0,0-.14.67c0,.81,0,1.64.06,2.45a32.44,32.44,0,0,1,.25,3.94,2.48,2.48,0,0,0,.06.54.3.3,0,0,0,.18.17s.16-.09.17-.14a11.29,11.29,0,0,1,.21-1.76A36.54,36.54,0,0,0,336.63,103.79ZM324.35,596.4c0-.48-.1-.75-.47-.86l-1.18-.34c-.69-.2-1.05,0-1.1.74a1.19,1.19,0,0,0,.93,1.44,3.05,3.05,0,0,0,.66.17.87.87,0,0,0,1.1-.74C324.32,596.63,324.34,596.45,324.35,596.4Zm12.43-487c-.11.76-.2,1.29-.25,1.82a23.21,23.21,0,0,0,.17,5.71.53.53,0,0,0,.13.23.15.15,0,0,0,.11,0s.11,0,.12,0a1.91,1.91,0,0,0,.13-.51c0-1.87,0-3.74,0-5.6A3.43,3.43,0,0,0,336.78,109.36ZM327,597.17c.18,0,.53-.07.88-.16a1.37,1.37,0,0,0,1-1.29.5.5,0,0,0-.43-.57,4.12,4.12,0,0,0-2,.42,1,1,0,0,0-.32,1.21C326.27,597.11,326.52,597.16,327,597.17Zm7.59-.67c.7,0,1-.26,1-.94a3.6,3.6,0,0,0-.12-.8c-.12-.51-.37-.64-.89-.5a1.33,1.33,0,0,0-1,.82C333.21,596.09,333.47,596.49,334.58,596.5Zm40.71-487.16c0-.26,0-.53,0-.79-.08-1.5-.16-3-.27-4.49,0-.48.14-1-.21-1.45-.49.41-.28,1-.29,1.46a21.32,21.32,0,0,0,.15,3A3.93,3.93,0,0,0,375.29,109.34ZM335.47,639a56,56,0,0,0-8.79.3C329.61,639.16,332.57,639.65,335.47,639ZM320,594.53a1.57,1.57,0,0,0,0-.22c-.08-.37-.37-.49-.69-.57a.74.74,0,0,0-.76.07.37.37,0,0,0-.12.23,5.87,5.87,0,0,0,0,.94,1.34,1.34,0,0,0,.46.81.53.53,0,0,0,.93-.28C320,595.2,320,594.89,320,594.53ZM340.88,101a.4.4,0,0,0-.41.48,1.15,1.15,0,0,0,.62.69,3.22,3.22,0,0,1,1.63,1.52.43.43,0,0,0,.09.1c.2.23.48.3.58.16a.52.52,0,0,0,0-.51,1.75,1.75,0,0,0-.2-.35,15.11,15.11,0,0,0-2-2A.82.82,0,0,0,340.88,101Zm-1.66,537.5a1.64,1.64,0,0,0,1.75-1.19.38.38,0,0,0-.12-.49.46.46,0,0,0-.38,0,5,5,0,0,0-1.5,1.33.23.23,0,0,0,0,.24C339,638.48,339.14,638.49,339.22,638.52ZM364.5,122.77a1,1,0,0,0-.09-.24.29.29,0,0,0-.36-.1,2.49,2.49,0,0,0-1.25,1.36.26.26,0,0,0,.1.35.55.55,0,0,0,.38,0,3,3,0,0,0,1.17-1.11A.71.71,0,0,0,364.5,122.77Zm-5.44-16c-.6.16-1.29.06-1.73.63a.3.3,0,0,0,0,.24.29.29,0,0,0,.19.17,2.63,2.63,0,0,0,1.92-.79.26.26,0,0,0-.09-.21C359.25,106.79,359.15,106.81,359.06,106.8Zm-23.69,11.7c.07.52-.06,1,.38,1.43a.37.37,0,0,0,.24.08.27.27,0,0,0,.15-.18,3.71,3.71,0,0,0-.38-1.82c0-.05-.15-.07-.23-.08s-.07,0-.08.09S335.39,118.37,335.37,118.5Zm-3.95,476.3a.43.43,0,0,0-.44.26,1.64,1.64,0,0,0-.11.66c0,.26,0,.6.33.67s.43-.25.5-.51a3.52,3.52,0,0,0,.15-.66A.42.42,0,0,0,331.42,594.8Zm46.18-4.51c.33,0,.66,0,.92-.21a.32.32,0,0,0,.12-.22.26.26,0,0,0-.1-.22,1.3,1.3,0,0,0-1.38,0,.23.23,0,0,0-.11.22.61.61,0,0,0,.19.32A1.19,1.19,0,0,0,377.6,590.29Zm-5.74-489.2c0-.08-.05-.19-.12-.23s-.27-.13-.36-.09a1.66,1.66,0,0,0-.82,1s.09.18.14.19A1,1,0,0,0,371.86,101.09Zm19.07,488c.47.06,1,.37,1.34-.21a.15.15,0,0,0,0-.13C391.71,588.38,391.35,588.85,390.93,589.08Zm-4.23.41a3.78,3.78,0,0,0,.47-.09c.06,0,.16-.13.15-.18a.52.52,0,0,0-.17-.32.63.63,0,0,0-.84.12.36.36,0,0,0-.07.24.32.32,0,0,0,.15.19A.83.83,0,0,0,386.7,589.49Zm-12.54-474c0-.14-.07-.35-.13-.56a.16.16,0,0,0-.11,0s-.09,0-.1,0a.87.87,0,0,0,0,.88c0,.06.13.08.21.11s.07-.06.08-.1S374.14,115.7,374.16,115.53Zm-1.3-12.36c0,.1,0,.15,0,.19s0,.39.26.36c.09,0,.21-.17.23-.28a1.53,1.53,0,0,0,0-.52s-.13-.08-.21-.11a.11.11,0,0,0-.1,0C372.93,103,372.89,103.1,372.86,103.17Zm-1.35-6.82a.49.49,0,0,0-.48-.51.23.23,0,0,0-.23.26c0,.31.21.54.46.51A.3.3,0,0,0,371.51,96.35Zm-12.33,8.87a2.37,2.37,0,0,0,.34-.1.29.29,0,0,0,.15-.35.28.28,0,0,0-.35-.13,1.17,1.17,0,0,0-.25.07c-.13.05-.25.13-.23.29S359,105.19,359.18,105.22Zm14.06-5.78c0-.08-.06-.19-.13-.22a.28.28,0,0,0-.23.06.71.71,0,0,0-.17.62.25.25,0,0,0,.21.08A.66.66,0,0,0,373.24,99.44ZM339,122.54c.07,0,.18-.05.21-.12a.22.22,0,0,0-.13-.32.21.21,0,0,0-.3.16C338.76,122.42,338.86,122.51,339,122.54Zm6-18a.52.52,0,0,0-.25-.41s-.11,0-.12,0-.12.15-.1.2a.75.75,0,0,0,.2.3s.15,0,.23,0S345,104.54,345,104.5Zm36.79,485.33c-.05-.06-.08-.16-.14-.18s-.28,0-.34.1a.26.26,0,0,0,.48.08Zm-4.55,27.66a.23.23,0,0,0,.14-.34c0-.13-.14-.26-.28-.22s-.15.21-.11.34S377.12,617.5,377.24,617.49Zm.46.77c0,.07-.09.15-.07.21s.1.26.25.23.09-.15.08-.22S377.87,618.24,377.7,618.26ZM503.2,216.73l-.1.18s.09.05.1,0a1,1,0,0,0,.1-.18Zm-65.95-99.92s0-.07,0-.1a.09.09,0,0,0-.09,0c-.09,0-.11.08,0,.16S437.22,116.81,437.25,116.81ZM276.37,146.24l-.05.11s.07.05.1,0a.1.1,0,0,0,.05-.1S276.4,146.25,276.37,146.24Zm92.28-45.32,0-.1-.19,0s0,.07,0,.1Zm-30.44,0a.28.28,0,0,0,.11,0s0-.07,0-.11-.09,0-.1,0S338.2,100.84,338.21,100.87Zm25.67,355.4.07,0,0-.08Z"/><path class="cls-2" d="M341.45,73.46a12.23,12.23,0,0,1-3.63-.12,8.11,8.11,0,0,0-1.63,0,.88.88,0,0,1-.68-1.21.37.37,0,0,1,.33-.15c.3.1.58.27.87.39a.77.77,0,0,0,1-.13,1.07,1.07,0,0,1,1.36-.27,1.27,1.27,0,0,0,1,0,3.52,3.52,0,0,1,2.65,0,10.49,10.49,0,0,0,1.57.46.43.43,0,0,1,.32.39c0,.23-.15.33-.32.39a7.06,7.06,0,0,1-1.89.25A9.49,9.49,0,0,1,341.45,73.46Z"/><path class="cls-2" d="M313.28,73.62a1.87,1.87,0,0,1-.6-.08,3.13,3.13,0,0,0-2.13-.17.6.6,0,0,1-.39-.08.49.49,0,0,1-.22-.31c0-.36.38-1,.67-.89.58.11,1.05-.24,1.6-.25s1.09,0,1.41.58a.47.47,0,0,0,.7.17c.24-.13.46-.31.7-.42a1.28,1.28,0,0,1,1.41.1,1.73,1.73,0,0,0,2.26.08,1.32,1.32,0,0,1,1.3-.12.7.7,0,0,1,.37.91.71.71,0,0,1-.78.4,2.52,2.52,0,0,1-.49-.25.84.84,0,0,0-.77-.09,7.92,7.92,0,0,1-3.21.29A8.26,8.26,0,0,0,313.28,73.62Zm2.29-1-.22.11s-.06.08-.05.1.11.09.16,0a2.09,2.09,0,0,0,.08-.23Z"/><path class="cls-2" d="M324.57,73.63l-1.06.05a1.46,1.46,0,0,1-.91-.22c-.15-.12-.28-.25-.23-.45a.44.44,0,0,1,.4-.32.85.85,0,0,1,.77.12.79.79,0,0,0,1,.1.89.89,0,0,1,.52-.11,1,1,0,0,0,1-.39.9.9,0,0,1,.73-.3c.18,0,.38,0,.49.18a.51.51,0,0,1,0,.52,1.45,1.45,0,0,1-1.53.91C325.33,73.68,325,73.66,324.57,73.63Z"/><path class="cls-2" d="M332.84,73.63a1.42,1.42,0,0,1-.36,0,.69.69,0,0,1-.32-1.17,1.81,1.81,0,0,1,2.23-.24.75.75,0,0,1-.06,1.24A3.35,3.35,0,0,1,332.84,73.63Z"/><path class="cls-2" d="M242.33,261.76a1.71,1.71,0,0,0,.23-.13c.53-.48.75-.45.88.14a.65.65,0,0,1,0,.5c-.21.24-.39,0-.56-.13l-.53-.41Z"/><path class="cls-2" d="M272.12,173c.16,0,.26.11.27.27a.5.5,0,0,1-.59.53.31.31,0,0,1-.25-.4A.49.49,0,0,1,272.12,173Z"/><path class="cls-2" d="M321.3,73.17a.12.12,0,0,1,.18.12.1.1,0,0,1-.05.1.12.12,0,0,1-.18-.11S321.28,73.21,321.3,73.17Z"/><path class="cls-2" d="M354.2,331.1c.05-1.94-.13-3.4,0-4.86.16-1.77.35-3.54.45-5.32a34.47,34.47,0,0,0,0-6,3.29,3.29,0,0,1-.05-.54c.22-2.47-.18-4.92-.1-7.39,0-1.5.22-3,.24-4.5a2.6,2.6,0,0,1,2.7-2.36,9.38,9.38,0,0,0,3-.19,3.41,3.41,0,0,1,3.18.81,10.34,10.34,0,0,1,3,4.5,9.79,9.79,0,0,0,.4,1,13.62,13.62,0,0,1,1,2.82,19.11,19.11,0,0,0,1.27,3.46,52.84,52.84,0,0,1,2.22,5.59c.16.43.33.85.51,1.27a.48.48,0,0,0,.54.32.59.59,0,0,0,.49-.42,1.11,1.11,0,0,0,.07-.26c.41-2.25,1-4.44,1.62-6.65a13,13,0,0,1,1-2.8,11.88,11.88,0,0,0,.81-2.18,12.39,12.39,0,0,1,1-2.67,8.3,8.3,0,0,0,.65-1.79,1.53,1.53,0,0,1,1.22-1.15,6.66,6.66,0,0,1,3.1-.33,4,4,0,0,0,1.09,0,11.14,11.14,0,0,1,2.58.18,3.52,3.52,0,0,1,2.28,1.4,2.1,2.1,0,0,1,.53,1.24,12,12,0,0,0,.7,3.19,17.72,17.72,0,0,1,.91,4.68,7.54,7.54,0,0,0,.67,2.91,3.08,3.08,0,0,1,.23,2,2.4,2.4,0,0,0,0,1.22,9.39,9.39,0,0,1,.16,2.18c0,1.55-.06,3.1-.05,4.65a43.07,43.07,0,0,1-.79,7.6c-.08.45-.16.9-.23,1.35a4.89,4.89,0,0,1-1.08,2.47,3.29,3.29,0,0,1-1.68,1.09c-1.64.47-3.33.54-5,.85a3.84,3.84,0,0,1-1.22,0,1.83,1.83,0,0,1-1.92-1.76,32.32,32.32,0,0,1-.48-5.72c.07-1.78,0-3.56.2-5.33a5.29,5.29,0,0,0-.24-1.89.48.48,0,0,0-.38-.36.48.48,0,0,0-.56.28,17,17,0,0,0-1.33,3.59,14.63,14.63,0,0,1-1.09,2.94,5.68,5.68,0,0,1-4.4,3.31,14.16,14.16,0,0,1-4.9.22,2.77,2.77,0,0,1-1.63-.58,4,4,0,0,1-1.34-2.18,25.48,25.48,0,0,1-.49-3.38,14.45,14.45,0,0,0-.51-3,14.22,14.22,0,0,1-.47-2.13,3.74,3.74,0,0,0-.86-1.83.45.45,0,0,0-.78.08,2.68,2.68,0,0,0-.23,1.73,39.19,39.19,0,0,1,.22,5.19,10.29,10.29,0,0,0,.15,1.36c.07.5.18,1,.23,1.49a15,15,0,0,0,.41,2.56,6.6,6.6,0,0,1,0,3.39A3.55,3.55,0,0,1,359,339c-2,.76-2.9.56-4-1.53a4.75,4.75,0,0,1-.54-2C354.4,333.89,354.11,332.26,354.2,331.1Z"/><path class="cls-2" d="M398.19,337.56a5.12,5.12,0,0,1,0,.68,1.54,1.54,0,0,1-1.6,1.52,19.87,19.87,0,0,1-3.53-.39,1.1,1.1,0,0,1-1-1.24,8.93,8.93,0,0,1,.53-3.36,34.58,34.58,0,0,1,2.05-5.06,2.24,2.24,0,0,0,.33-.89,12,12,0,0,1,1.13-3.36,23,23,0,0,0,1.09-4.22c.29-1.34.4-2.71.63-4.05a12.51,12.51,0,0,1,.61-2.39,10.63,10.63,0,0,0,.53-1.83c.33-1.76,1.08-3.38,1.56-5.09a5.83,5.83,0,0,0,.28-1.05,7.44,7.44,0,0,1,.68-2.49,8.9,8.9,0,0,0,.48-1.43,1.84,1.84,0,0,1,1.76-1.46,6.28,6.28,0,0,1,1.5,0,28.6,28.6,0,0,0,3.82.24c.31,0,.63,0,.95,0a1.48,1.48,0,0,1,1.32,1,6.09,6.09,0,0,1,.47,2.41,16.49,16.49,0,0,0,.53,3.64c.55,2.63,1.14,5.25,1.74,7.88.2.88.46,1.76.73,2.63.63,2.1,1.3,4.18,1.91,6.28.26.92.41,1.87.6,2.81.41,2.05.84,4.1,1.23,6.16a9.4,9.4,0,0,1,.23,2.85c-.1.72-.3,1-1,1.12a9.6,9.6,0,0,1-1.07.2l-7.33.91-.27,0c-.81,0-1.19-.26-1.31-1.08a15.44,15.44,0,0,1-.16-2,3.68,3.68,0,0,0-.62-1.93,1.15,1.15,0,0,0-1.13-.61c-1.82.18-3.64,0-5.46,0h-.14c-1.46.09-1.83.45-2,1.89,0,.55-.09,1.09-.14,1.64Zm5.33-8.3a3.65,3.65,0,0,0,2.19-.5,1.14,1.14,0,0,0,.54-.9,4.33,4.33,0,0,0-.05-.95,10.61,10.61,0,0,0-.33-1.32c-.35-1.17-.71-2.35-1.08-3.52a2.64,2.64,0,0,0-.61-1.2.35.35,0,0,0-.57.08c-.13.39-.25.78-.35,1.18-.42,1.81-.83,3.63-1.42,5.41-.38,1.17-.18,1.63,1.24,1.72Z"/><path class="cls-2" d="M308.59,338.35a9,9,0,0,1-4.36-1,6.2,6.2,0,0,1-2.64-2.48,2,2,0,0,1-.09-2,1.79,1.79,0,0,1,1.88-1.1,7.29,7.29,0,0,1,2.37.62c.57.29,1.17.51,1.75.79a6.65,6.65,0,0,0,4.68.29c2.26-.6,2.82-2.33,2.46-4.38a1.79,1.79,0,0,0-1.33-1.43,9.22,9.22,0,0,0-1.48-.29q-1.77-.21-3.54-.36a19.77,19.77,0,0,1-2-.33,6.65,6.65,0,0,1-3.56-2.17,5.49,5.49,0,0,0-.44-.52,9.21,9.21,0,0,1-2.5-4,39.76,39.76,0,0,1-2-7.53c-.12-.72-.27-1.43-.38-2.15a18.54,18.54,0,0,1,.15-5.05,25.31,25.31,0,0,1,1.16-4.21,2,2,0,0,1,.55-.77c.63-.59,1.3-1.15,1.94-1.73A6.64,6.64,0,0,1,304.8,297c.58-.09,1.16-.22,1.74-.35a12.23,12.23,0,0,1,4.74-.36,4.63,4.63,0,0,0,1.23.08,15.49,15.49,0,0,1,4.07.38,4.55,4.55,0,0,1,4,3.58,13,13,0,0,1,.4,4.47,3.19,3.19,0,0,1-.62,1.78,4.5,4.5,0,0,0-.52,1.11,1.45,1.45,0,0,1-1.61,1,2.8,2.8,0,0,1-2.25-1.1c-.11-.15-.23-.28-.34-.43a3.92,3.92,0,0,0-4.16-1.71,2.53,2.53,0,0,0-2.34,2.31,15,15,0,0,0-.12,2.32,29.69,29.69,0,0,0,.71,5.56A5.52,5.52,0,0,0,314,320a7.92,7.92,0,0,1,2.43.9,6.69,6.69,0,0,1,3,4.25,18.21,18.21,0,0,1,.51,5.56,7.93,7.93,0,0,1-3.51,5.59A14.79,14.79,0,0,1,308.59,338.35Z"/><path class="cls-2" d="M338.72,298.83c1.44.17,2.76.28,4.06.49a4.17,4.17,0,0,1,3,1.93,13.66,13.66,0,0,1,2,4.47c.44,1.86.91,3.71,1.35,5.58a32.52,32.52,0,0,1,1,7.41c0,.37.07.73.11,1.09a7.52,7.52,0,0,1,0,2.32,19.29,19.29,0,0,0-.2,3.13,19.81,19.81,0,0,1-.23,3.54,10.44,10.44,0,0,1-2.24,4.92,11.72,11.72,0,0,0-.81.93,7.8,7.8,0,0,1-2.37,2,10.49,10.49,0,0,1-4.37,1.46,13.54,13.54,0,0,1-4.75-.12,6,6,0,0,1-2.22-1,15.31,15.31,0,0,1-2.88-2.92,13.55,13.55,0,0,1-1.81-2.72,9.3,9.3,0,0,1-1.09-3.49,9.81,9.81,0,0,0-.44-2.14,6.88,6.88,0,0,1-.23-2.3,6.83,6.83,0,0,0,0-1.5c-.49-2.7-.57-5.44-.84-8.16a22.13,22.13,0,0,1,.81-7.71,9.44,9.44,0,0,1,2.93-4.5,3.59,3.59,0,0,1,1.28-.78c1.2-.43,2.39-.92,3.61-1.27A26.07,26.07,0,0,1,338.72,298.83Zm7.56,22.75c-.07-.86-.12-1.73-.2-2.59-.11-1.18-.28-2.35-.34-3.53a30.28,30.28,0,0,0-.88-6.21,4,4,0,0,0-2.67-3,6,6,0,0,0-2.84-.24,3.18,3.18,0,0,0-2.69,2.69,5,5,0,0,1-.18.94,10.71,10.71,0,0,0-.43,3.78c0,1.55,0,3.09.07,4.64,0,1.86.3,3.72.48,5.58a6.56,6.56,0,0,0,.26,1.06c.29,1,.58,1.92.91,2.87a18.22,18.22,0,0,0,.79,1.88A4.39,4.39,0,0,0,339.7,331a3.16,3.16,0,0,0,3.34.21,5.88,5.88,0,0,0,2.58-4c.07-.59.16-1.18.28-1.76A15.62,15.62,0,0,0,346.28,321.58Z"/><path class="cls-2" d="M319,235.94c0-1.87-.11-3.73,0-5.6a25.67,25.67,0,0,1,1.41-8.05c.34-.89.62-1.81.88-2.73a6.21,6.21,0,0,1,1-2.06c.62-.84,1.17-1.73,1.86-2.53a16,16,0,0,1,2.67-2.53,22.93,22.93,0,0,0,2.78-2.43,17.12,17.12,0,0,1,3.37-2.56,2.43,2.43,0,0,1,.61-.29c1.36-.41,2.61-1.1,4-1.46,1.81-.48,3.51-1.29,5.26-1.93a18.48,18.48,0,0,1,4.35-1.15,29.52,29.52,0,0,0,4-.89,36.12,36.12,0,0,1,8.66-1.16,35.5,35.5,0,0,1,8.53,1,7.38,7.38,0,0,1,3.28,1.58,8.06,8.06,0,0,0,.9.63,23.7,23.7,0,0,1,4.14,3.74,69.11,69.11,0,0,1,4.73,6.34,17.37,17.37,0,0,1,1.22,2.14,35.18,35.18,0,0,1,1.94,5.25c.15.48.27,1,.41,1.45a17.78,17.78,0,0,1,.73,3.61c0,.46.1.91.17,1.36.4,2.8.81,5.59,1,8.42a8.86,8.86,0,0,1-.06,1.63c-.19,1.68-.39,3.35-.47,5a18.56,18.56,0,0,1-.64,3.91,24.23,24.23,0,0,0-.84,3.46.76.76,0,0,1-.06.26c-1.22,3-1.69,6.14-2.48,9.22-.38,1.5-.58,3.05-1.05,4.52-.74,2.35-1,4.81-1.84,7.15-.39,1.16-.77,2.33-1.26,3.46-.57,1.3-1.18,2.57-1.79,3.84a18.31,18.31,0,0,1-2.52,3.74c-.43.52-.83,1.08-1.29,1.58a18.65,18.65,0,0,1-3.57,3.18c-1.31.82-2.5,1.82-3.8,2.66a13.58,13.58,0,0,1-5.48,2,23.17,23.17,0,0,1-5.33.17c-.73-.06-1.42-.34-2.14-.43a18.28,18.28,0,0,1-5.47-2.05,25.21,25.21,0,0,1-4.58-2.95,3.48,3.48,0,0,1-1.31-1.7,4.74,4.74,0,0,0-1.57-2.21,29,29,0,0,1-3.2-3.36,8.07,8.07,0,0,0-.73-.82,48.56,48.56,0,0,1-5-5.45c-1.17-1.39-2.25-2.86-3.49-4.19a7.42,7.42,0,0,1-1.05-1.91,25.6,25.6,0,0,0-1.68-3,5.17,5.17,0,0,1-.7-1.62,16,16,0,0,0-1.15-3.07,6.87,6.87,0,0,1-.38-.88,48.81,48.81,0,0,1-2.34-10.11c-.06-.5-.15-1-.23-1.49a5.12,5.12,0,0,1-.1-.54,40.37,40.37,0,0,1-.29-5.72C319.14,239,319,237.45,319,235.94Zm1.21.57h.11c0,.63,0,1.27,0,1.91,0,.82.13,1.65.07,2.46a16.88,16.88,0,0,0,.15,3.41c.17,1.4.41,2.8.62,4.19a35.33,35.33,0,0,0,1.48,6.67c0,.13.05.27.08.4a9.13,9.13,0,0,0,.78,2.33,8.74,8.74,0,0,1,.87,2.58,3.55,3.55,0,0,0,.44,1.14c.75,1.46,1.41,3,2.19,4.41a16.76,16.76,0,0,0,2.31,3.37c1.66,1.82,3.28,3.67,4.91,5.52a1.67,1.67,0,0,0,.88.62,1.81,1.81,0,0,1,1.16.88c.26.38.55.73.81,1.11a5.76,5.76,0,0,0,1.36,1.51,9,9,0,0,1,.92.83c1.08,1,2.14,2.11,3.25,3.13a18.13,18.13,0,0,1,1.64,1.64,15.43,15.43,0,0,0,5,4,12.74,12.74,0,0,0,2.37,1,34.12,34.12,0,0,0,3.64.61,2.21,2.21,0,0,0,.68,0,50,50,0,0,0,5.29-.67,9.94,9.94,0,0,0,2.66-1,55,55,0,0,0,5-3.54,12.59,12.59,0,0,0,2.83-2.95,4.79,4.79,0,0,1,.62-.73,12.12,12.12,0,0,0,2.19-3.12c.88-1.7,1.69-3.43,2.42-5.21a22,22,0,0,0,1.26-3.75c.49-2.32,1-4.64,1.59-6.93.75-2.72,1.22-5.52,2-8.23s1.53-5.25,2.27-7.89a18.93,18.93,0,0,0,.77-4.3c.05-1,.09-2.1.2-3.14a28.23,28.23,0,0,0-.2-6.56c-.23-1.81-.49-3.61-.73-5.42a16.81,16.81,0,0,0-.27-2,55.22,55.22,0,0,0-2.31-7.3,7.46,7.46,0,0,0-.47-1,35.39,35.39,0,0,0-4.06-5.81c-.68-.74-1.17-1.66-1.91-2.32a35.26,35.26,0,0,0-5.2-4.22,6.5,6.5,0,0,0-2-.87,46.73,46.73,0,0,0-6.09-.86,21.17,21.17,0,0,0-3.56,0,46.91,46.91,0,0,0-8.85,1.71,14.69,14.69,0,0,1-1.86.41,24.41,24.41,0,0,0-5.3,1.35c-2,.78-4,1.49-6.05,2.16a15.59,15.59,0,0,0-5.63,3.29c-1.18,1.07-2.37,2.14-3.6,3.15a15.78,15.78,0,0,0-3.3,3.81,8.71,8.71,0,0,0-1.15,2.17c-.31,1.1-.72,2.16-1.05,3.25a29.92,29.92,0,0,0-1.32,9.31C320.27,234.13,320.25,235.32,320.25,236.51Z"/><path class="cls-2" d="M436.35,427.92c-.2.46-.39.92-.6,1.38a2.29,2.29,0,0,1-.42.84,1.08,1.08,0,0,0-.3,1.44c.09.18,0,.45,0,.67,0,.65.23.8.85.53.29-.13.57-.3.87-.4a.74.74,0,0,1,1,.55,2.38,2.38,0,0,1,.11.53,1.82,1.82,0,0,1-.8,2,2.17,2.17,0,0,1-2.44-.1,2.51,2.51,0,0,1-1.2-1.91c-.07-.56-.14-1.07-.8-1.28-.33-.11-.4-.48-.43-.8-.11-1.23-.23-2.45-.31-3.68-.14-2.45-.17-4.92-.41-7.37-.29-3.08-.52-6.17-.86-9.25-.2-1.86-.4-3.71-.45-5.58a4.36,4.36,0,0,0-.14-.94,1.41,1.41,0,0,1,.37-1.51,1.73,1.73,0,0,0,.55-1.73.63.63,0,0,1,0-.27c.08-.39-.26-1,.12-1.15.58-.22.64.48.87.83.43.65.93.78,1.44.18a10.47,10.47,0,0,1,2.71-2.43c.35-.2.46-.66.6-1.05.38-1,.68-1.28,1.69-1.13a1.75,1.75,0,0,0,1.44-.48c.94-.7,1.67-1.69,2.85-2.06a.74.74,0,0,0,.33-.23,1.2,1.2,0,0,1,1.68-.34c.21.12.54,0,.81.05a1,1,0,0,1,1,1.06,31.88,31.88,0,0,0,.41,4.48c.07.64.14,1.27.2,1.91a28.88,28.88,0,0,0,.55,5.16,3.74,3.74,0,0,1,.07.95,66.19,66.19,0,0,0,1.2,9.08,1.92,1.92,0,0,1-.49,1.85,7.34,7.34,0,0,0-1.68,2.3.84.84,0,0,1-1.07.61,1.26,1.26,0,0,0-1.24.36,7.4,7.4,0,0,0-1.93,2.09,2.18,2.18,0,0,1-1.63,1.33,1.36,1.36,0,0,0-.91.78c-.46.78-.88,1.59-1.3,2.36.28.41.71.5,1,.73a1.83,1.83,0,0,1,.69.82,6,6,0,0,1,.13,3.76,1.19,1.19,0,0,1-.45.67c-.45.33-1.17.11-1.15-.43.05-1.05-.29-1.57-1.41-1.66-.62,0-1-1.11-.68-1.84a12.55,12.55,0,0,1,.79-1.43.29.29,0,0,0,0-.37.5.5,0,0,0-.24-.09.84.84,0,0,0-.27,0l-.66.18a2.67,2.67,0,0,1,.3-.61,2.31,2.31,0,0,0,.23-2.54.52.52,0,0,0-.49-.39.68.68,0,0,0-.65.4.5.5,0,0,0-.05.13,4.66,4.66,0,0,0,.15,2.4A1.34,1.34,0,0,0,436.35,427.92Zm.28-22.92c.16,1.58.34,3.29.68,5a3.86,3.86,0,0,1,.17,1.07,42.11,42.11,0,0,0,.47,6.25c.23,2,.59,4.05.9,6.08a1.86,1.86,0,0,0,.1.39.81.81,0,0,0,.8.41.58.58,0,0,0,.47-.6,4.4,4.4,0,0,0,0-.81c-.11-1-.27-2.08-.35-3.12-.25-3-.81-6-1.2-9.07-.13-1-.47-1.95-.57-2.94s-.28-2-.34-3a3.12,3.12,0,0,0-.47-1.54c0-.07-.17-.14-.22-.12s-.28.14-.29.23C436.69,403.77,436.67,404.31,436.63,405ZM445,418.58c-.33-1-.06-2.15-.46-3.25a4.1,4.1,0,0,1-.14-.94c-.18-1.72-.34-3.44-.53-5.16a31.73,31.73,0,0,0-.51-3.65,44.09,44.09,0,0,1-.72-5,6.3,6.3,0,0,0-.19-1.07,7.69,7.69,0,0,1-.35-2.28c0-.64-.05-1.27-.09-1.91,0-.07-.1-.16-.17-.18a.34.34,0,0,0-.25.06c-.23.16-.46.41-.32.68a6.58,6.58,0,0,1,.36,2.27c.3,2.26.58,4.51.84,6.77.13,1.13.18,2.27.32,3.4.24,1.9.56,3.78.73,5.68a20.44,20.44,0,0,0,.84,5,1.35,1.35,0,0,0,.18.36.27.27,0,0,0,.23,0C445,419.16,445,418.94,445,418.58Zm-5.6-20.52h-.21c0,.08-.1.16-.09.24.12,1.41.26,2.81.4,4.22a.85.85,0,0,0,.15.37c0,.05.16.06.24.07s.08,0,.09-.08a.49.49,0,0,0,.08-.25C439.85,401.11,439.62,399.58,439.4,398.06ZM435.47,415c-.25-.07-.35.05-.39.16a9.76,9.76,0,0,0-.29,2.15.68.68,0,0,0,.07.26.47.47,0,0,0,.7.12.87.87,0,0,0,.24-.62A9.23,9.23,0,0,0,435.47,415Zm5.38-3.69c0,.86-.05,1.49,0,2.11s.22,1.42.35,2.12a.25.25,0,0,0,.21.12.31.31,0,0,0,.15-.18,2.69,2.69,0,0,0,0-.4A9.51,9.51,0,0,0,440.85,411.26Zm-4.3,12a2.7,2.7,0,0,0-.16-1.83.52.52,0,0,0-.37-.36.47.47,0,0,0-.45.24c-.49.72-.45,1.11.23,1.6C436,423.05,436.19,423.29,436.55,423.25Zm3.93-16.86c-.11-.64-.23-1.38-.35-2.13a.14.14,0,0,0-.21-.12c-.07,0-.16.13-.15.19.1.88.21,1.76.34,2.64,0,.06.13.1.19.14a.81.81,0,0,0,.14-.2C440.46,406.78,440.46,406.64,440.48,406.39Zm-4.54,13.43a.34.34,0,0,0-.31-.38.22.22,0,0,0-.26.24.32.32,0,0,0,.3.37A.25.25,0,0,0,435.94,419.82Zm6.56,1.72c-.05-.18-.16-.31-.37-.24s-.12.13-.13.2.08.35.3.33S442.5,421.7,442.5,421.54Zm-7.7-9.25c-.05.06-.15.12-.14.16a.34.34,0,0,0,.33.33c.05,0,.15-.11.15-.16A.35.35,0,0,0,434.8,412.29Zm5.92-3.42-.09-.23a.71.71,0,0,0-.11.21.68.68,0,0,0,.09.22Zm-4.43-8.54-.1,0,.06.08Z"/><path class="cls-2" d="M457.23,410.63l-.81.07a.76.76,0,0,0-.75.5,1.78,1.78,0,0,1-1.14,1.1c-.5.22-1,.49-1.48.7a.58.58,0,0,1-.83-.46,9.35,9.35,0,0,1-.17-1.08c-.12-1.31-.28-2.63-.34-3.95-.09-1.69-.3-3.36-.5-5-.09-.77-.14-1.55-.16-2.32a6.05,6.05,0,0,0-.27-1.47,5.33,5.33,0,0,1-.23-2.69,4.44,4.44,0,0,0,0-1.5c-.12-1.36-.29-2.72-.42-4.08a9.94,9.94,0,0,1-.05-1.09,1.22,1.22,0,0,1,1-1.32,2.86,2.86,0,0,0,1-.49,1.24,1.24,0,0,1,.78-.16c.73,0,.75,0,.75-.73,0-.5-.05-1-.06-1.5a.86.86,0,0,1,.48-.78.71.71,0,0,1,1,.12,2.32,2.32,0,0,1,.58,1.36c.17,2,.33,4.09.5,6.13.06.73.13,1.45.19,2.18.05.55.13,1.09.14,1.64a9.42,9.42,0,0,0,.19,1.9,22.6,22.6,0,0,1,.3,2.84q.23,2.94.59,5.85c0,.05,0,.1,0,.14a7.74,7.74,0,0,1-.25,4.16Z"/><path class="cls-2" d="M457.19,410.67c.85-.19.95-.15,1.14.47.06.21,0,.46.21.64s.59-.12.9-.15a1.34,1.34,0,0,1,1.66,1.48,7.25,7.25,0,0,1-.49,2.53A1.77,1.77,0,0,1,459,417a1.5,1.5,0,0,0-1.34,1,1.43,1.43,0,0,1-1.1.93,1.76,1.76,0,0,0-1.27,1,2.91,2.91,0,0,1-1.77,1.42.94.94,0,0,0-.66.62,2.64,2.64,0,0,1-2.34,1.63,8,8,0,0,1-1.09,0,3.82,3.82,0,0,0-.68.05.46.46,0,0,0-.41.47.42.42,0,0,0,.4.46c.27,0,.55,0,.81.08a.59.59,0,0,1,.37,1,6.64,6.64,0,0,1-2.36,1.81.91.91,0,0,1-.8-.05.52.52,0,0,1-.32-.55,1.7,1.7,0,0,1,.15-.52,2,2,0,0,0,.12-1.33c-.09-.33.15-.86-.32-.93a1.46,1.46,0,0,0-1.07.53.69.69,0,0,0-.14.5,4,4,0,0,1-.32,1.73,1,1,0,0,0,.18,1.26,1.13,1.13,0,0,1,.21.35.7.7,0,0,1-.66.95,1.12,1.12,0,0,1-.75-.26.9.9,0,0,0-1.14-.11,2.09,2.09,0,0,1-.37.17.82.82,0,0,1-1-.21,4.38,4.38,0,0,1-1.1-1.71.74.74,0,0,1,.24-.86.61.61,0,0,1,.86,0,2.73,2.73,0,0,1,.27.31c.14.17.28.37.55.29s.14-.37-.06-.69a2.08,2.08,0,0,1-.29-.46.92.92,0,0,1,.17-1,1,1,0,0,1,1-.27c.17,0,.31.18.48.25a.78.78,0,0,0,1.14-.58c0-.09,0-.18,0-.27a2.45,2.45,0,0,1,1.93-2.06.84.84,0,0,0,.73-.86,3.58,3.58,0,0,1,.89-2.1,1.45,1.45,0,0,1,1.17-.6c.46,0,.91,0,1.37,0,.84.07.91,0,1-.86,0-.32,0-.64,0-.95a1.38,1.38,0,0,1,.17-.52.66.66,0,0,1,1.05-.1,1,1,0,0,1,.19.35c.09.24.23.42.5.33A.53.53,0,0,0,454,416a2.78,2.78,0,0,1,.2-1.34c.33-.76.82-.91,1.48-.4.24.19.43.33.72.21a.76.76,0,0,0,.45-.78,5.64,5.64,0,0,0,0-.82,3.29,3.29,0,0,1,.44-2.23Zm-8.14,9.77a2.48,2.48,0,0,0,.28,1.3.56.56,0,0,0,.43.3,1.26,1.26,0,0,0,1.58-1.09,1.76,1.76,0,0,0-1.35-1.49.8.8,0,0,0-.78.46A2.4,2.4,0,0,0,449.05,420.44Zm9.88-5.44a1.13,1.13,0,0,0,.22-.11.84.84,0,0,0,.13-.75c0-.15-.18-.18-.31-.13a.56.56,0,0,0-.26.87C458.75,414.94,458.85,415,458.93,415Z"/><path class="cls-2" d="M449.55,412.82c-.1-1.1-.19-2.19-.29-3.28-.21-2.31-.43-4.62-.63-6.94-.16-1.77-.28-3.54-.45-5.3s-.39-3.62-.59-5.43a6.19,6.19,0,0,1-.06-1,.68.68,0,0,1,.69-.69c.53-.06.89.1,1,.5a5.51,5.51,0,0,1,.22,1.2c.07,2,.41,4,.57,6,.21,2.63.42,5.27.65,7.9.17,1.9.34,3.81.55,5.7.08.73.3,1.43.42,2.15a1.73,1.73,0,0,1-1.25,2,.56.56,0,0,1-.74-.4,3.63,3.63,0,0,1-.15-1.35C449.52,413.54,449.53,413.17,449.55,412.82Z"/><path class="cls-2" d="M451.76,287.12a.13.13,0,0,1-.19.13.13.13,0,0,1-.07-.1c0-.11.07-.16.18-.12S451.74,287.09,451.76,287.12Z"/><path class="cls-2" d="M427.86,264.89l-.17.14s-.07-.08-.06-.09l.17-.14Z"/><path class="cls-2" d="M406.55,146.13l1.76.17a7,7,0,0,0,1.77-.07.72.72,0,0,1,.65.13.42.42,0,0,1,.07.23s-.05.08-.08.09a.65.65,0,0,1-.26.06,30.1,30.1,0,0,0-4.24-.2c-.13,0-.32,0-.27-.2s.2-.14.32-.2a.29.29,0,0,1,.13,0Z"/><path class="cls-2" d="M403.11,146.35s0-.09,0-.12a.57.57,0,0,1,.71,0c.07.08.05.2,0,.21a4.58,4.58,0,0,1-.64,0S403.14,146.38,403.11,146.35Z"/><polygon class="cls-2" points="412.09 146.51 412.12 146.41 412.21 146.48 412.09 146.51"/><path class="cls-2" d="M351.12,103.27a3,3,0,0,1-1.36-.4c-.69-.44-1.39-.84-2-1.35a5.19,5.19,0,0,0-3.24-1.29,1.68,1.68,0,0,1-1.55-.93,3.71,3.71,0,0,0-2.15-1.56,3.66,3.66,0,0,1-.9-.3.64.64,0,0,1-.31-.81.75.75,0,0,1,.72-.53,1.15,1.15,0,0,1,1,.56,5.55,5.55,0,0,0,1.28,1.41,2.93,2.93,0,0,0,1.32.68c.47.13.58.06.78-.46.05-.12.08-.26.14-.38a.41.41,0,0,1,.6,0,4.93,4.93,0,0,1,.44.68c.23.39.44.8.67,1.19a.8.8,0,0,0,.78.46,1.21,1.21,0,0,1,1.14.63,3.66,3.66,0,0,0,2.42,1.31,2.81,2.81,0,0,0,.41,0,.69.69,0,0,1,.5.72C351.78,103.12,351.54,103.28,351.12,103.27Z"/><path class="cls-2" d="M354.42,95.23a.49.49,0,0,0-.43.58,1.19,1.19,0,0,0,.51.78c.66.51.92,1.34,1.47,1.94.06,0,0,.27-.07.36a.25.25,0,0,1-.36,0c-1.23-.85-2.57-1.6-3.11-3.14a1.28,1.28,0,0,0-.37-.57c-.78-.61-1.19-1.61-2.12-2.09a.56.56,0,0,1-.25-.31.62.62,0,0,1,.07-.37s.17-.08.24,0a2.47,2.47,0,0,1,1.48,1.13,1.19,1.19,0,0,0,.63.69,1.25,1.25,0,0,0,.92.12c.31-.15.15-.49.19-.75s.32-.52.55-.3q1.26,1.15,2.49,2.34a1.33,1.33,0,0,1,.2.35s0,.11,0,.12-.19.09-.24.06c-.34-.21-.67-.45-1-.68A1.19,1.19,0,0,0,354.42,95.23Z"/><path class="cls-2" d="M361.8,87.7c.07,0,.21,0,.34,0a.43.43,0,0,1,.4.58,1.77,1.77,0,0,0,0,1.57.22.22,0,0,1-.18.3.28.28,0,0,1-.24-.08.84.84,0,0,1-.25-.31,2,2,0,0,0-1.26-1.33c-.2-.06-.13-.47.05-.58A2.61,2.61,0,0,1,361.8,87.7Z"/><path class="cls-2" d="M349.59,90.14a12.16,12.16,0,0,1,2,.94.75.75,0,0,1,.32.41,1.52,1.52,0,0,0,.47.65c.14.12.29.28.16.46s-.42.13-.62,0a4.43,4.43,0,0,1-.69-.43c-.5-.39-1-.8-1.46-1.21a.63.63,0,0,1-.1-.87Z"/><path class="cls-2" d="M358.35,95.08a1.36,1.36,0,0,1-1.42-.78c-.06-.13-.07-.28.06-.35a.44.44,0,0,1,.37,0,1.62,1.62,0,0,1,.95,1.2Z"/><path class="cls-2" d="M354.18,91.26a2.69,2.69,0,0,1,1.48,1.18,2.64,2.64,0,0,1-1.13-.48,1,1,0,0,1-.31-.73Z"/><path class="cls-2" d="M347.32,96.26a1,1,0,0,1,1.21.83c-.52-.15-.52-.15-1.17-.86Z"/><path class="cls-2" d="M359.68,100.44c-.06,0-.12.16-.18.16-.31,0-.31-.27-.3-.5a.24.24,0,0,1,.14-.18C359.5,99.9,359.7,100.21,359.68,100.44Z"/><path class="cls-2" d="M347.36,96.23a1.86,1.86,0,0,1-.3-.24s0-.14,0-.21.16.06.18.11a1.44,1.44,0,0,1,.1.37Z"/><path class="cls-2" d="M363.64,88.69s-.09,0-.09-.07.06-.16.16-.11a.13.13,0,0,1,0,.11A.3.3,0,0,1,363.64,88.69Z"/><path class="cls-2" d="M351.21,120.13c0-.38,0-.74.06-1.1,0-.14.1-.3.25-.26a.43.43,0,0,1,.27.27,12.24,12.24,0,0,1,.2,1.48,15.38,15.38,0,0,0,.23,2.44,3.34,3.34,0,0,1,0,1,.44.44,0,0,1-.29.41c-.18.07-.4-.12-.43-.41C351.41,122.65,351.31,121.38,351.21,120.13Z"/><path class="cls-2" d="M361.17,111.28a1.19,1.19,0,0,1-.62-.85c-.15-.53.17-.92.68-.75s.79-.09,1.28.06C362,110.29,361.36,110.59,361.17,111.28Z"/><path class="cls-2" d="M350.13,113.26c0,.64,0,1.27,0,1.9a.28.28,0,0,1-.16.19.21.21,0,0,1-.25-.23c.06-.63.14-1.26.21-1.89Z"/><path class="cls-2" d="M361.16,112.47c.23.13.2.36.17.58,0,0-.12.15-.16.14-.22-.06-.24-.24-.23-.42S361,112.51,361.16,112.47Z"/><path class="cls-2" d="M346.23,120.26v2.85a1.66,1.66,0,0,1-.2,1,.32.32,0,0,1-.22.14.27.27,0,0,1-.21-.13,1.8,1.8,0,0,1-.13-.52c0-.54-.05-1.09,0-1.63.05-1.9.12-3.79.17-5.69,0-.45,0-.9,0-1.35,0-.08.05-.21.11-.23s.23.09.25.21A34.82,34.82,0,0,1,346.23,120.26Z"/><path class="cls-2" d="M364.78,247.19a2.46,2.46,0,0,1,.54.09,33.89,33.89,0,0,1,5.08,2.35,6,6,0,0,1,1.34,1.16.86.86,0,0,1,.16,1,9.26,9.26,0,0,0-.78,3.31,4.61,4.61,0,0,1-.68,1.92,1.73,1.73,0,0,1-.68.66.85.85,0,0,1-.91,0,3.52,3.52,0,0,1-.41-.36,1.05,1.05,0,0,0-1.38-.1,27.64,27.64,0,0,1-2.51,1.38c-1.3.55-2.56,1.2-3.84,1.8-1.93.91-3.83,1.92-5.85,2.65a7.25,7.25,0,0,1-2.26.44,33.72,33.72,0,0,1-5.58-.56,4.29,4.29,0,0,1-1-.34,15.87,15.87,0,0,0-2.87-.88c-1.6-.37-3.18-.79-4.77-1.19a3.35,3.35,0,0,0-1.47-.24c-.23,0-.42.3-.32.5a5.26,5.26,0,0,0,.46.84.9.9,0,0,1-.81,1.34,12.68,12.68,0,0,1-1.75-.22.85.85,0,0,1-.53-.39,31.32,31.32,0,0,1-1.76-3.7,2,2,0,0,1,.2-1.83,4.9,4.9,0,0,0,.76-2.73,6.8,6.8,0,0,1,.54-2.26,1.52,1.52,0,0,1,2.37-.64c1.34,1.54,3.19,2,5,2.72.68.25,1.38.47,2.06.73a9.49,9.49,0,0,0,4.06.39c1-.05,2-.24,3-.37.23,0,.45-.05.68-.06a.29.29,0,0,1,.22.12s0,.16-.06.23-.16.1-.21.17a.31.31,0,0,0-.08.23.26.26,0,0,0,.2.15,10.67,10.67,0,0,0,3.27-.94,1.76,1.76,0,0,0,.68-.65A2.54,2.54,0,0,1,356,253a43.53,43.53,0,0,0,4.1-1.9,10.7,10.7,0,0,1,1.26-.51c.43-.18.85-.34,1.26-.54a1.07,1.07,0,0,0,.71-1.4C363.13,247.81,363.75,247.22,364.78,247.19ZM351,261.33a11.34,11.34,0,0,0,6.57-1.52,21.58,21.58,0,0,1,2.8-1.41c1.08-.38,2.1-.88,3.13-1.36a11.11,11.11,0,0,0,4-3.48c.79-1,.61-1.57-.55-2.1a1.94,1.94,0,0,0-1.46-.06L362,252.5a6.66,6.66,0,0,0-1.74.78,26,26,0,0,1-2.65,1.43,10.19,10.19,0,0,0-2.09,1.28,5.12,5.12,0,0,1-1.58.8l-1.43.47a8.79,8.79,0,0,1-4.71.38,9.66,9.66,0,0,0-1.08-.14,15.44,15.44,0,0,1-4.4-.94,5.31,5.31,0,0,0-1.06-.27c-1.15-.27-2.31-.54-3.46-.79a4.38,4.38,0,0,0-.94-.15.92.92,0,0,0-.95.81.82.82,0,0,0,.42,1,3.19,3.19,0,0,1,1.16.93,1.4,1.4,0,0,0,.82.47,20.43,20.43,0,0,0,2.67.56,9.58,9.58,0,0,1,2.64.67A18.56,18.56,0,0,0,351,261.33Z"/><path class="cls-2" d="M350.65,230.11a2.81,2.81,0,0,1-.29,1.54c-.64,1.47-1.31,2.92-1.85,4.42a23.56,23.56,0,0,1-1.82,4,2.11,2.11,0,0,0,.09,2.45,24.61,24.61,0,0,0,2.6,3.5,1.1,1.1,0,0,1-.45,1.94,1.23,1.23,0,0,1-.94,0,10,10,0,0,1-1.84-.88,28.08,28.08,0,0,1-3.22-2.54,1.85,1.85,0,0,1-.52-2.11,2.73,2.73,0,0,1,.24-.64c1.3-2,2-4.41,3.27-6.45a13.81,13.81,0,0,0,1.18-2.45c.52-1.32,1.31-2.51,1.73-3.86a2.54,2.54,0,0,1,.16-.38.87.87,0,0,1,.87-.54.94.94,0,0,1,.71.76A10.18,10.18,0,0,1,350.65,230.11Z"/><path class="cls-2" d="M329.5,224.63s0-.1,0-.13c.69-1.37.7-3,1.7-4.26a15.58,15.58,0,0,0,1.34-2.22,15.13,15.13,0,0,1,1.4-2.17,9.68,9.68,0,0,0,1.1-2,6,6,0,0,1,.95-1.5,1.37,1.37,0,0,1,1.94-.34c.64.34,1.29.64,1.44,1.51.11.66.48,1.28.08,2-.14.23,0,.43.23.54a3.54,3.54,0,0,1,.73.36.83.83,0,0,1,.06,1.31,5.36,5.36,0,0,1-1.05.64c-1,.49-2.05,1-3.1,1.43a3.76,3.76,0,0,0-1.86,1.53,6.89,6.89,0,0,1-.94,1.17,17.46,17.46,0,0,0-1.86,2.17,4.07,4.07,0,0,1-.75.8.86.86,0,0,1-1,.16A.89.89,0,0,1,329.5,224.63Z"/><path class="cls-2" d="M374.17,220.75a1.35,1.35,0,0,1-.33.84.67.67,0,0,1-1,.09,1,1,0,0,1-.28-.29,4.29,4.29,0,0,0-2-1.58c-1.44-.78-2.9-1.51-4.33-2.31-.71-.4-1.35-.92-2-1.39a1.85,1.85,0,0,1-.53-.93,7.41,7.41,0,0,1-.58-1.21c-.08-.46.52-.71.57-1.2a1,1,0,0,1,.91-.88,2.16,2.16,0,0,0,1.28-.7,1.52,1.52,0,0,1,2.26.21,2.47,2.47,0,0,1,.19.36,12.6,12.6,0,0,0,3,4.18,20.31,20.31,0,0,1,2.73,4.38A1.28,1.28,0,0,1,374.17,220.75Z"/><path class="cls-2" d="M339.22,231a5.07,5.07,0,0,1-.71,2.73,1.65,1.65,0,0,1-1.54,1,4.1,4.1,0,0,1-3-1.4,2.7,2.7,0,0,1-.51-1.39,5,5,0,0,1,.7-4.3,1.85,1.85,0,0,1,1.74-.85,3.68,3.68,0,0,1,3.16,2.62A4.7,4.7,0,0,1,339.22,231Z"/><path class="cls-2" d="M364.48,227.37a9.27,9.27,0,0,1,2.53.44,1.8,1.8,0,0,1,1,.72,3.28,3.28,0,0,0,1.33,1.15,1.82,1.82,0,0,1,.23.15c.31.27.67.51.56,1a1.43,1.43,0,0,1-1.12,1.23,2.33,2.33,0,0,1-1.59-.29,2.71,2.71,0,0,1-.45-.3,6.74,6.74,0,0,0-6-1.43,2.22,2.22,0,0,1-1.46-.15.65.65,0,0,1-.33-1,2,2,0,0,1,1.14-.93,7.32,7.32,0,0,1,1.74-.32l2-.25Z"/><path class="cls-2" d="M347.26,268.38a.94.94,0,0,1-1-.61,1,1,0,0,1,.41-1.19,2.89,2.89,0,0,1,.76-.28,20.61,20.61,0,0,0,2.86-.9,12.18,12.18,0,0,1,3.07-.45,1.26,1.26,0,0,1,.53.11.7.7,0,0,1,.29,1.26,3.63,3.63,0,0,1-.92.57,10.43,10.43,0,0,1-4,1.17A15.57,15.57,0,0,0,347.26,268.38Z"/><path class="cls-2" d="M352.67,280.44a3.74,3.74,0,0,1,.54-.06.81.81,0,0,1,.89,1.06c-.11.58-.28,1.15-.44,1.71a1.85,1.85,0,0,1-.62.88,1.05,1.05,0,0,1-1.58,0c-.42-.35-.84-.7-1.23-1.08a1,1,0,0,1-.18-1.36c.42-.74.94-1.36,1.94-1.19A4.66,4.66,0,0,0,352.67,280.44Z"/></g></svg>