<svg id="Layer_1" data-name="Layer 1" xmlns="http://www.w3.org/2000/svg" viewBox="0 0 600 600"><title>tonioportrait</title><path d="M167.86,540.23a7.62,7.62,0,0,0,2.16-.3,24.7,24.7,0,0,0,2.83-1.77c-1-.51-1.93-1.47-2.87-1.43-3.39.14-6.77.63-10.15,1-.93.09-1.87.13-2.8.2a27.81,27.81,0,0,1,.65-4.77c.15-.49,1.47-1,2.17-.9a51.15,51.15,0,0,0,9.11.9c-.5-.28-1-.52-1.48-.84-1.13-.75-2.23-1.54-3.34-2.32,2-1,3.82-2.38,5.88-2.74,3.69-.65,7.89.28,11.16-1.12,7-3,13.44-7.13,20.25-10.54,1.2-.6,3,.07,4.57.15-1,.83-2.13,1.61-3.12,2.5s-1.67,1.7-2.5,2.55c.74.35,1.48,1,2.21,1,4.72,0,13.69-6.68,15-11a5.71,5.71,0,0,0,.37-1.69,22.93,22.93,0,0,0-.42-2.72c1.64.09,4.06-.47,4.79.39,4.9,5.83,10.24,2,14.63.11,2.21-1,2.8-5.69,4.05-8.74.16-.4,0-1.37-.24-1.42-6.92-1.77-.47-4.93-.3-6.92.89-11.1,2.73-22.12,4.12-33.18.16-1.3,0-3.21-.85-4-2.89-2.72-4.39-5.36-2-9.26.32-.53-1-2.48-1.94-3.26-6.41-5.19-13-10.11-19.34-15.43-2-1.71-3.11-4.46-4.88-6.52-1.21-1.41-3-2.3-4.27-3.68-9.67-10.52-18-22-21.11-36.17-1.15-5.23-.26-10.88-1.16-16.18-.63-3.68-2.81-7.08-4.15-10.66-1.46-3.92-1.86-8.63-4.34-11.7-2.77-3.43-4.05-9.28-11.45-8.12-3.11.48-7.17-4.22-10.55-6.88-1.43-1.13-2.09-3.19-3.36-4.58-3.5-3.81-2.85-7.41-.91-11.91,1.21-2.81.92-7-.24-9.95-3-7.65-7.88-14.68-10.06-22.49-1.61-5.76-1.14-12.61.28-18.52.88-3.68,5.68-6.25,7.91-9.83,1.3-2.1,1.35-5.22,1.23-7.85-.05-1-2.51-1.64-3.32-2.82-2.36-3.41-4.43-7-6.62-10.53h3.87c-.05.2.14-.15,0-.24-8.5-8.71-.48-15.54,2.35-23.15,1.45-3.91,4.56-8.83-3-11.36-4.15-1.39-6.73-5.37-5.9-10.42.06-.36.44-.67.67-1,.57.63,1.65,1.3,1.62,1.89-.2,3.4,1.71,4,4.47,3.83a3.82,3.82,0,0,1,1.84.29c1.3.62,2.54,1.39,3.81,2.1-.32-1.94,0-4.6-1.11-5.65-2.1-1.93-5-4-7.68-4.09-8.26-.31-11.58-5.75-14.28-12.16-.24-.56.33-1.47.52-2.22.53.41,1.37.71,1.54,1.23,2.41,7.34,10.42,5,15,8.66.06,0,1.53-1.09,1.61-1.76.63-5.51,0-10.49-5.93-13.14a2.18,2.18,0,0,1-.85-2c1.12-2.53,2.48-5,3.6-7.13l4.35,4.89c.82-1,2.49-2.75,2.31-3a20.69,20.69,0,0,0-4.64-4.37c-1.1-.72-3.06-.26-4-1.07-2.67-2.35-6.13-4.69-7.18-7.76-1.11-3.28.17-7.37.41-11.11.5.32,1.25.53,1.46,1,.7,1.5,1,3.19,1.82,4.61,1.27,2.23,2.82,4.3,4.26,6.43,2-3.25,4-6.53,6-9.76,1.08-1.69,2.29-3.3,3.44-5,.46.9,1.28,1.78,1.31,2.69.05,2.16-1.14,5.64-.26,6.24,1.93,1.29,4.84,1.11,7.35,1.53-.05-2.86.65-6-.36-8.51-1.17-2.83-4-5-5.81-7.56-.57-.8-.51-2.16-.48-3.26,0-.44.73-.87,1.13-1.3a15.37,15.37,0,0,1,1.74,1.78c1.73,2.45,3.32,5,5.11,7.4.55.75,1.95,1.76,2.34,1.54a3.85,3.85,0,0,0,1.86-2.59c.1-1.33-.14-3.16-1-4-1.71-1.63-4.21-2.71.07-4.05-.51-1.5-1.09-3-1.5-4.5-.45-1.69-1.64-4.19-.94-5,3.52-4.15,7.53-7.9,11.43-11.74A13.7,13.7,0,0,1,178.26,92a11.23,11.23,0,0,1,.34,3.11c-2.06,11.07-1.48,11.1,6.4,14.33.89.36,3.81-1.52,3.95-2.59.34-2.7-.54-5.53-.58-8.31,0-1.2.8-2.41,1.25-3.62.83,1,2.35,2,2.4,3.09.35,7.54,4.11,5.47,6.82,2,2.34-3,3.3-7.06,4.76-10.69a4.92,4.92,0,0,0,.22-1.94c3.82,8,8.41,16.1,11.58,24.73,2.16,5.89,5.13,5.54,9.49,3.65,1-.44,2-.83,4.38-1.78-3.89-.39-6.48-.4-8.92-1-1.08-.28-1.85-1.78-2.76-2.73,1.17-.35,2.39-1.08,3.52-1,3.4.34,6.76,1,10.14,1.52a3.18,3.18,0,0,0,1.5-.51c-.36-1.26-.44-3-1.32-3.65C224,101.44,223,92.87,220.79,85.27c-2.37-8.14,4.16-19.48,11.93-22.89a5.76,5.76,0,0,1,2-.12c-.43.86-.63,2.06-1.32,2.53-11.78,8-8.33,20-5.12,30.21.31,1,3.38,2.19,3.58,1.94,1.31-1.53,3.42-3.85,3-5.17-3-9.14-4-17.93,1.42-26.59,1.07-1.7,1.33-3.89,2.16-5.76.16-.36,1.24-.3,1.9-.43a10.41,10.41,0,0,1,.24,2c-.42,6.17-.93,12.33-1.29,18.5-.09,1.53,2.42,4.94-2.13,2.43-.33.61-1.07,1.39-.91,1.8a45.34,45.34,0,0,0,3.24,6.46c.22.34,2.16.21,2.64-.31a74.12,74.12,0,0,0,6.64-8.07c3.48-5.11,6.66-10.43,10-15.61.59-.9,1.55-2,2.44-2.11.68-.08,1.83,1.14,2.25,2A123.42,123.42,0,0,1,268.67,78c1.4,4,3,5.12,6.26,1.68a10.25,10.25,0,0,1,2.51-1.5,8.27,8.27,0,0,0,.15,2.79c1.35,3.24,2.34,6.87,4.5,9.49,2,2.45,2,7,6.63,7.13,1.75,0,3.49.41,5.23.63-.21-2,.09-4.29-.78-6s-5.19-2.44-.33-4.73c.41-.19-1.09-4.3-1.6-6.61a13.51,13.51,0,0,1-.09-2.55c.67.42,1.34.83,2,1.26s1.52.73,1.86,1.33c3,5.3,5.49,5.6,8.46-.55-.39,3.27-.72,6.55-1.18,9.81-.19,1.36-1.17,2.83-.86,4a43.71,43.71,0,0,0,2.86,6.53c1.42-1.61,3.33-3,4.14-4.85,2.2-5,3.89-10.3,5.91-15.43.16-.4,1.32-.42,2-.56.06,0,.14.51.32.66,2.07,1.71,4.17,3.4,6.25,5.09.79-2.31,1.57-4.62,2.15-6.31a88.27,88.27,0,0,0,8.27,5.84c3.29,1.85,4.52-.11,4.95-3.32.2-1.48,1.24-2.86,1.9-4.28a50,50,0,0,0,3.43,4.08c3,2.91,6.12,5.65,9.1,8.55a18.47,18.47,0,0,1,2.53,3.39c.76,1.21,1.22,3.41,2.1,3.57,1.61.28,3.43-.62,5.16-1-.65-1.64-1-3.47-2-4.87-2.52-3.53-5.23-6.94-8.07-10.21-.81-.93-2.41-1.11-3.5-1.85-.71-.47-1.59-1.31-1.62-2,0-.89.71-1.82,1.12-2.73a16.2,16.2,0,0,1,1.88,1.49c6.36,6.73,12.95,13.25,18.93,20.3,3.9,4.61,6.88,10,10.3,15,.85,1.26,1.79,2.45,2.7,3.67l2.44-4.19c1.49,3.51,2.54,7.2,4.5,10.33s4.11,1.92,4.36-1.25c.56-6.91.65-13.86,1-20.78a7,7,0,0,1,.68-1.94c.55.68,1.56,1.33,1.59,2,.28,7.55.51,15.11.55,22.67.07,11.2.16,22.41-.15,33.61-.11,3.89-1.39,7.74-2.09,11.63-.2,1.07-.25,2.18-.36,3.27a31.86,31.86,0,0,0,2.88-2.12c1-.89,1.82-1.94,2.72-2.93a17.51,17.51,0,0,0-.94,4.17c.09,5.42-.06,10.91.74,16.24.76,5,2.94,9.83,3.87,14.85,1,5.41,1.22,11,2,16.42a3.35,3.35,0,0,0,2.44,2.13c3.7.08,7.41-.48,11.1-.33,4.79.2,7.3,2.77,9.43,7.43,4.36,9.52.78,17.81-1.7,26.64-2.42,8.63-3.37,17.68-5.93,26.26a187.6,187.6,0,0,1-9.55,24.28c-.71,1.56-4.17,1.78-6.26,2.82-1.23.62-3.11,1.54-3.22,2.5-1.13,9.31-1.78,18.69-3,28-.24,1.83-2.39,3.41-3.66,5.11-.28.37-.86,1-.77,1.11,3,4.45-.22,7-2.5,10.41-5.23,7.81-9.92,16-14.55,24.18-3.2,5.65-6.18,11.45-8.82,17.38-1.41,3.15-1.54,6.85-2.88,10-2,4.85-3.86,10.08-7.12,14-4.93,6-11.35,10.72-16.43,16.6-1.8,2.07-1.81,5.91-2.12,9-.18,1.83,1.09,3.79.93,5.63-1.4,16.68,6.13,31.37,10,46.91,2.37,9.56,10,10.55,16.84,12.06,7.77,1.72,16,1.46,24,2.17a12.49,12.49,0,0,1,3.29,1.31c-1,.5-2.05,1.38-3.11,1.43-3.77.17-7.56.07-11.69,1.13,4.39,1.22,8.85,2.24,13.14,3.72,3,1,8.39,3.4,8.24,4-1.29,4.95-5.54,3.75-9.14,3-7.12-1.44-14.19-3.11-21.28-4.69l-.74,1.61c7.37,3,14.7,6,22.11,8.89a36.7,36.7,0,0,0,6,1.28l3.82.83c-1.49.36-3,1.12-4.46,1a74.48,74.48,0,0,1-35.19-12.2c-1-.67-2.51-.66-3.78-1,.57,1,1.18,2.05,1.7,3.11.31.64.51,1.35.76,2-1.6.05-3.31.48-4.78.06-2.63-.75-5.44-1.59-7.57-3.19-1.8-1.36-3.05-3.72-4-5.87q-4.14-9.46-7.82-19.14c-1.62-4.25-3.49-8.55-4.13-13-1.76-12.15-2.9-24.4-4.45-36.59-.09-.71-1.75-1.79-2.64-1.75-5.75.2-11.54.39-17.24,1.12-9.34,1.2-18.61,3.05-28,4.13-3.49.4-7.13-.77-10.72-.87-1.9-.05-3.83.67-5.74,1,1.35,1.64,2.64,3.35,4.1,4.88.47.49,1.57.31,2.12.75a38.58,38.58,0,0,1,3,3c-1.15.28-2.44,1-3.42.74-5.16-1.55-6.52.73-5.92,5.4a3.4,3.4,0,0,1-.33,2.23c-8.82,11.73-9,27-16.06,39.39-2.77,4.92-5.31,10.06-8.71,14.53-1.63,2.13-5,3-7.62,4.31-1.31.69-3.08.91-4,1.92-5.31,5.91-13.39,3.83-19.65,7,5.72-4.52,11.46-9,17.15-13.58,2.56-2.06,5.11-4.15,7.48-6.42.5-.47.2-1.78.27-2.7a8.17,8.17,0,0,0-2.56,1.06c-7.62,6.9-15.84,12.28-26.2,14.7-7.86,1.84-15.21,5.79-22.9,8.5-4.38,1.55-9,2.5-13.48,3.72Zm7-271.69c.08.28.23.72.34,1.18,3.68,16,7.26,32.08,11.1,48.07,1.45,6,1.92,6.1,6.5,4.44a1.13,1.13,0,0,1,1,.2c1.91,2.83,4.46,5.49,5.43,8.62s.52,7,.59,10.52c.16,7.25,4.8,13.38,3.79,21.41-.64,5.1,4.29,11,7.14,16.37,1.48,2.77,7.16,4,2.46,8.63-.32.31.1,1.8.58,2.46,6.84,9.49,13.6,19.06,20.71,28.36,5.43,7.09,13,7.11,20.91,5.33a7.65,7.65,0,0,1,1.72,0,12.86,12.86,0,0,0-.71,1.57c-.42,1.43-.78,2.87-1.16,4.3,5.08.94,10.19,2.77,15.23,2.57,5.76-.23,11.41-2.45,17.18-3.36,1.28-.21,2.85,1.41,4.29,2.19-.67.59-1.69,1.05-1.93,1.78a8.46,8.46,0,0,0-.55,4.4c.25,1,1.76,2.54,2.62,2.48,4.07-.26,8.11-.94,12.14-1.59.61-.1,1.11-.83,1.66-1.28a7,7,0,0,0-2.22-1c-2.14-.1-4.32.25-6.42-.06-.77-.11-1.49-1.48-1.93-2.42-.14-.31.64-1.48,1.11-1.56,5.82-.93,11.77-2.89,17.47-2.33,14.23,1.38,23.16-8.08,30.24-16.79,7.5-9.22,13.32-20.86,13-34.09-.08-3.48,1.39-7.34,3.2-10.4,2.08-3.53,5.53-6.21,8-9.54,3.7-5,4.66-11.48,1.7-16.14-3.13-4.91.17-5.5,2.39-7.38a21.51,21.51,0,0,1,3.63-2.14c4.78-2.6,8.13-5.84,5.76-11.91a3.11,3.11,0,0,1,.23-1.87c3.36-9.93,7.12-19.73,10-29.79,4.25-14.66,11.18-28.89,8.25-44.9-1.72-9.38-3.05-18.85-5.28-28.1-.42-1.75-3.54-7.31-6.93-1.59-3.1,5.23-7,6.62-12.86,5.27-2.84-.66-6.09.33-9.13.75-.48.07-.82,1.09-1.23,1.66,4.07,1.82-.56,3.25-.22,4.89-1.34-.64-2.71-1.22-4-1.93s-2.94-2.55-4.16-2.34c-6.36,1.08-12.89,2-18.87,4.24-7.82,2.95-15.18,7.12-22.73,10.79-5,2.45-8.94,5.37-4.94,11.69.25.4-.09,1.21-.22,1.81-2.43,11-5,22.09-7.26,33.17-1.74,8.46-1.75,15.76,5.82,22.85,8.46,7.92,3,22.22-8.07,25.07-1,.26-5.68-.49-3.07,3.89.4.66-1.77,3-3,4.38a2.31,2.31,0,0,1-2.14-.16c-2.51-4.71-4.45-2.45-6.5.37-5.66,7.8-9.87,8.17-18.19,2.39-2.9-2-6.56-2.86-6.37-7.48,0-.53-1.64-1.36-2.64-1.66-3.48-1.06-7-1.92-10.52-2.91-5.55-1.56-6.49-4.64-4-9.83,2.11-4.36,1.44-8.72-2.79-12.05-.6-.48-.81-2.73-.4-3a161.33,161.33,0,0,1,14.61-9.48c1.16-.64,4,.26,5.07,1.39s.91,3.45,1.28,5.24c-5.61,1.16-4.15,6-4.34,9.39-.29,5.22-.93,11.14,6.51,12.71.55.12.78,1.39,1.3,2,2.11,2.46,4,5.2,6.53,7.12,1,.8,3.81.34,5.21-.5,4.45-2.68,8.59-5.87,12.95-8.72,1-.63,2.38-.52,3.48-1,3.36-1.47,8.12-2.2,9.65-4.81,2.34-4,0-7.63-4.22-10.76A15.79,15.79,0,0,1,293.26,299a177.5,177.5,0,0,1,1.12-27.16c.76-7.05,2.55-14,4.17-20.92,1-4.33,2.84-8.47,3.74-12.8.52-2.54-.13-5.3-.16-8a19.43,19.43,0,0,1,.28-4,4.86,4.86,0,0,1,1.27-2.8,31.29,31.29,0,0,1,4.6-2.49l-3.62-2.62a6.39,6.39,0,0,1,1.6-1.29c5.91-2.15,11.77-4.53,17.81-6.21,3.25-.9,7,.1,10.23-.88,14.58-4.49,29.23-4.12,44-1.63a19.23,19.23,0,0,0,4-.14c-.32-1.57-.6-3.14-1-4.69-.47-2-1-3.91-1.54-5.87l1.09-.24,2.07,2.22c.17-2.11.46-4.22.42-6.32a4.21,4.21,0,0,0-1.24-2.27c-8.07,2.85-4-4.8-6.34-6.92,1.22.35,2.06,1.23,3.08,1.58a16.93,16.93,0,0,0,3.73.46c-.15-1.33.18-3.3-.56-3.87a13.53,13.53,0,0,0-5.27-2c-2.15-.48-4.46-.34-6.56-1-6.52-1.9-13-4-19.46-6-.31-.1-.94.67-1.35,1.11-2.13,2.31-4.16,4.71-6.4,6.91a2.72,2.72,0,0,1-2.48.19,56.84,56.84,0,0,1-5.83-3.53c-4-2.63-8.92-4.59-11.61-8.2-3-4-4.12-9.41-5.52-14.36s-.79-10.48-7.18-12.32c-.43-.12-.61-1-.93-1.58-.47-.79-1-1.57-1.45-2.35-.73,1.26-1.38,2.6-2.23,3.78s-1.72,2.73-2.9,3.1c-1.69.53-3.68.13-6,.13.85-2.46,1.23-5.79,3-8s5.09-3.23,7.44-5.13c1.15-.92,2.64-3.43,2.28-3.89A28.94,28.94,0,0,0,303,122.8c-.64-.43-3.29,1-4.12,2.23-3.12,4.52-3.16,11.07-9.44,13.66-.77.32-.36,3.74-.22,5.71,0,.28,1.58.66,2.42.63,1-.05,2.85-.91,3-.69.83,1.53,2.3,4.09,1.72,4.79-4.35,5.25,1.45,3.63,3.05,4.63.95.59,3.24.62,3.24.94a63.84,63.84,0,0,1-.54,7.28c-1.18-.28-2.6-.24-3.48-.91-2.73-2.08-5.15-4.57-7.94-6.56-.61-.43-3.25.54-3.26.92-.36,10.57-4.74,21.24.49,31.72a15.44,15.44,0,0,1,.79,2.66c-1.11-.13-2.79.15-3.23-.46-2-2.78-4.59-5.65-5.16-8.81-.54-2.94-2.4-6.26,1.45-9.91,2.19-2.08.78-8.41.15-12.71-.22-1.55-2.91-3.89-4.41-3.85-2.35.07-5.83,1.27-6.71,3.05a16.39,16.39,0,0,0-1.49,10.07c1.29,5.9,3.81,11.53,5.82,17.27.19.55.4,1.09.6,1.64-.7.14-1.48.56-2.07.37-2.76-.85-5.6-3-8.16-2.65-11.17,1.44-15.56-5.72-19.71-14-.59-1.17-5.18-1.75-5.27-1.54-1.38,3.42-2.21,7.06-3.44,10.56a25,25,0,0,1-2.59,4.32c-.43-.36-1.14-.63-1.27-1.08-1.55-5.4-3.82-10.21-9.07-13.15-.94-.53-1.45-2.3-1.67-3.58-.53-3.18-.77-6.4-1.13-9.61L220,156c-.38,1.35-.76,2.7-1.15,4.05-.6-1.15-1-2.53-1.86-3.39a6.69,6.69,0,0,0-3.61-1.85c-.64-.07-2.13,1.55-2,2.22.16,1.05,1.74,2.89,2,2.77,4.34-1.88,2.43,1.51,2.69,3.05a14.55,14.55,0,0,0,.49,2.32c5.84-.51,2.65,3.06,3,5.62,1.3,10.58-2.06,22,5.53,31.65-2.88-3.14-5.08-6.7-7.74-9.87-1.95-2.33-4.48-5.1-6.66.13a2.79,2.79,0,0,1-2.57.69A68.74,68.74,0,0,1,198,188.27a11.49,11.49,0,0,1-4-5.27c-.38-1,1-2.76,1.89-4,.29-.38,1.54,0,2.35,0l-2.58-8.44c.06,6.66-3.35,4.79-6.73,3.15a44.22,44.22,0,0,0-4.63-1.85c-.46-.16-1.35-.19-1.52.06-2.36,3.58-4.23,2-5.82-.58-1.39-2.25-2.3-4.82-3.84-6.93-.76-1-2.48-1.38-3.77-2-.08,1.19-.58,2.57-.15,3.53a49,49,0,0,0,3.93,6.89c3.17,4.75,6.42,9.43,9.74,14.08a3.23,3.23,0,0,0,2.08.84,26.61,26.61,0,0,0,3.34,0c-.52,1.84-1.19,5.32-1.53,5.28-5.14-.48-10.24-1.46-15.35-2.24a15.4,15.4,0,0,0-4.87-.19c-.37.06-.42,2.19-.53,3.38-.09.89.07,1.8-.05,2.68-.91,7-2,13.92-2.76,20.9-.74,6.59-1.47,13.21-1.62,19.83-.07,2.77,1.14,5.66,2.19,8.32,1.55,4,4.39,7.61,5.05,11.65,1,6.5.49,6.59,6.83,4.25-.27,1.52-2,1.64-2.94,2.58a15.86,15.86,0,0,0-2.78,5.1c-.1.25,1.58,1.75,2.07,1.58C173.06,270.45,173.87,269.39,174.86,268.54Zm-5.42,9.64c-4.48-4-9-7.72-9.14-14.29,0-1.1-2.63-3.22-3.63-3-1.64.37-3,2.18-4.38,3.53-3.6,3.64.42,5.87,1.59,8.72,1.7,4.15-1.16,10.39,5.67,12.22.19.05.14.89.25,1.35.77,3.23,1.38,6.51,2.37,9.67,1.28,4.1,4.07,8.13,4,12.16-.08,5,.37,8.47,5.83,9.55.95.19,1.91.32,2.86.47.06-1,.49-2.12.12-2.88-1.49-3.11-3.42-6-4.77-9.16-.5-1.18.15-2.85.27-4.29,1.36.52,2.94.76,4,1.63s1.76,2.41,3.28,4.64c-2-10.71-3.7-20.07-5.46-29.43-.2-1-.58-2-.88-3.06ZM415.32,230.4c-5.23-.19-6.3,2.19-6.3,7.35,0,8.23-1.26,16.5-2.56,24.65-.77,4.81-2.57,9.47-4.11,14.12a41.41,41.41,0,0,1-2.79,5.52c2,.93,4,2.64,6,2.58s5.11-1.46,5.66-3c2.15-6.06,4.39-12.34,4.85-18.67.48-6.62,1-12.62,5-18.4C424.84,239,420.9,230.42,415.32,230.4ZM260.9,116.88l.34-.7c2.2.48,4.42.89,6.59,1.47a9.24,9.24,0,0,1,2.14,1.23,14.38,14.38,0,0,1-1.69,1.71c-.6.44-1.47.55-2,1a25.72,25.72,0,0,0-3.48,3.6c-.26.34.38,1.93.52,1.92a49.19,49.19,0,0,0,4.94-.77c.62-.12,1.62-.64,1.79-.44,5.54,6.69,8.64.18,12.31-2.39.58-.4.57-2.26.23-3.24-1.44-4.25-3.1-8.42-4.7-12.61a17.12,17.12,0,0,0-.86-2.1c-6.92,2.21-6-3.77-7-7.06-1.46-5-4.76-6.68-9.41-6.89a6.42,6.42,0,0,0-1.42.25c.21.54.43,1.07.62,1.61,1.71,4.9,3.47,9.78,5,14.73.22.69-.55,1.7-.87,2.57a17.15,17.15,0,0,0-1-2.26c-.76-1.2-1.45-2.63-2.56-3.36a3.11,3.11,0,0,0-2.93.93c-1.14,2.61-2.4,5.42-2.39,8.15C255.09,115.14,258.85,116,260.9,116.88Zm-25.28,31-.55-1.14c-3.34,1.63-7.57,2.49-9.8,5.08-3.55,4.1-.31,8.26,3,10.8,2,1.53,5.56,1.95,8.2,1.53,4.45-.71,6.87-3.13,9.15-8.09,3.12-6.8-1.19-6.44-4.38-7.74C239.6,147.6,237.52,148,235.62,147.84ZM179.1,168.61A39,39,0,0,0,183,166c2.08-1.68,6-4.23,5.65-5.23-1.53-4.49-4.31-8.54-6.59-12.77-.61-1.14-1-2.41-1.63-3.53-1-1.75-2.07-3.43-3.11-5.14-1.26.8-3.51,1.5-3.6,2.4-.45,4.76-1.2,9.75-.22,14.31S177.4,165,179.1,168.61Zm153.93-50c0-4.43-1.39-7.12-5.6-4.14a27.08,27.08,0,0,0-6.69,7.36,33.48,33.48,0,0,0-3.55,8.41c-.3,1,.83,2.28.83,3.44a29,29,0,0,1-.69,4.68c2.31-.4,5.55,0,6.75-1.38,2.47-2.84,4.51-6,7.14-8.87C333.15,126,332.56,121.56,333,118.57Zm-1.17,37-2.31,1.79a15,15,0,0,0-2-3.3,26.64,26.64,0,0,0-4-2.77c-.32,2.81-.76,5.62-.82,8.44,0,.33,2,.84,3.18,1a10.42,10.42,0,0,0,2.69-.3c-.35.72-.75,1.43-1,2.17s-.73,1.61-.47,2c2.54,3.37,4.8,7.2,8.06,9.69,1.53,1.17,5.86.59,7.44-.84,1.21-1.09.67-5-.17-7.21-.61-1.63-3.09-2.48-4.5-3.91C335.78,160.1,333.86,157.76,331.86,155.52Zm-112.31-10c2.93-1.31,7.51.42,4.67-4.61-2.11-3.75-3.64-8.09-6.55-11-2.16-2.2-6.07-3.14-9.33-3.57-1.28-.16-3.14,2.47-4.37,4.1-2.82,3.74,1.13,5.06,3,6.52C211.09,140.14,215.64,142.87,219.55,145.5Zm147.86,23.82c2.18,1.34,4.26,3,6.63,4,2.85,1.19,4.85,1.27,5.08-3.26.13-2.64,3.13-5.11,4.75-7.72.78-1.26,1.34-2.66,2-4-1.57-.42-3.14-.87-4.72-1.27-.35-.08-.75,0-1.09-.05-2.16-.5-4.29-1.17-6.48-1.48a2.59,2.59,0,0,0-2.14,1.21C370.09,160.53,369,164.4,367.41,169.32Zm-25.63-38.13,1,1.78c1.87-2.08,4.49-3.87,5.43-6.31,1.4-3.61,1.74-7.68,2.24-11.59.16-1.29-.58-2.7-.9-4.06-.64,1.09-1,2.57-2,3.18a21.5,21.5,0,0,1-5.08,1.92c-1.47.47-3.92.39-4.29,1.26a31.58,31.58,0,0,0-2,8.48C335.7,129.49,335.82,133,341.78,131.19Zm-33.13-18.6c1.39,1.68,2.25,3.66,3.53,4s3.65-.79,4.11-1.89c2.83-6.64,5.31-13.43,7.72-20.24.4-1.14-.15-2.62-.26-4-1.52.45-3.87.42-4.42,1.4C315.62,98.54,312.31,105.38,308.65,112.59Zm41.68,39.48.56,1.72-1.38,2.4a13.59,13.59,0,0,0-2.83-2.25,33.79,33.79,0,0,0-4.83-1.35c-.31,1.73-1.47,4.43-.79,5,3.48,3,7.52,5.45,11.18,8.31.9.71,1.28,2.23,1.62,3.46.17.63-.29,1.44-.46,2.17,1,.07,2.11.49,2.79.1a3.28,3.28,0,0,0,1-2.47c0-1.2-1-3-.51-3.52,3.08-3.14.35-3.28-1.75-4.21-1.28-.57-2.22-1.9-3.31-2.89,1.2-.09,2.41-.25,3.61-.27,1.39,0,2.84.35,4.14,0a5,5,0,0,0,2.49-2c.18-.27-.59-1.69-1.18-1.93a71.16,71.16,0,0,0-7.77-2.66A6.91,6.91,0,0,0,350.33,152.07Zm3.13-23.26c-.14-.31.05.84.72,1.35.45.34,1.7,0,2.4-.43,4.32-2.46,8.6-5,12.87-7.56a17.87,17.87,0,0,0,2.15-1.77,10.73,10.73,0,0,0-2.41-2.19,56.55,56.55,0,0,0-9.35-3.68c-1.19-.3-3.79.83-4.08,1.8C354.69,120,354.31,123.8,353.46,128.81Zm.2,13-1.85,1.12c2.37,1.72,4.59,3.73,7.16,5.05,1.49.76,3.54.41,5.34.57.15-1.82.67-3.7.38-5.45a86,86,0,0,0-2.58-10.82c-.18-.59-2.12-1.31-2.73-1C355.39,133.38,349.3,134.33,353.66,141.8ZM341.83,95.32c-3.21-2.95-5.54-6.81-8.53-7.43-4.33-.89-5.68,3.26-5.71,7.19,0,2,.2,3.92.25,5.87,0,1.34,0,2.68,0,4,1.21-.46,2.46-.84,3.62-1.41a43.07,43.07,0,0,0,6-3.25C338.71,99.42,339.56,98,341.83,95.32ZM214.18,170.43l1.77-.67-2.5-3.89c-.78.71-1.86,1.28-2.27,2.17s0,2.21-.34,3.22a9.3,9.3,0,0,1-2,3.82c-.61.57-2.12.17-3.23.21.41-.59,1.27-1.33,1.13-1.73a11.37,11.37,0,0,0-1.9-3.28c-.2-.26-1.08,0-1.65.05a46.93,46.93,0,0,0,.75,7c.21.84,1.8,1.33,2.72,2,1.83,1.35,3.73,2.62,5.43,4.12a30.25,30.25,0,0,1,3,3.55c.71-1.78,2.21-3.67,2-5.32C216.53,177.91,215.19,174.19,214.18,170.43Zm50.69-21.87.54,1.34c.5-.33,1-.9,1.49-1,3.74-.42,7.49-.87,11.24-1,1.69-.07,3.42.77,5.1.68.51,0,1.51-2.43,1.29-2.62-1.44-1.27-3-2.81-4.8-3.18-2.52-.53-5.38.42-7.83-.24C266.89,141.2,264.92,143.07,264.87,148.56Zm115.79-14c-3.07-3.07-5.07-5.82-7.76-7.37-1-.6-5.06,1.28-5.27,2.46-.8,4.65,3.92,10.24,7.78,9.53C377,138.9,378.23,136.79,380.66,134.56Zm-231.15,26.7c4.57,2.42,8.07,4.32,11.63,6.09.22.11,1.32-.75,1.29-1.08-.28-2.6-.05-5.63-1.35-7.63a9,9,0,0,0-6.26-3.35C153.62,155.21,152.21,158.09,149.51,161.26Zm60.34-.14c-.72-2-.85-3.36-1.28-3.46a33,33,0,0,0-8-1.37c-1.89,0-3.76,1.24-5.64,1.92l3.15,6.13c1.29-.85,2.53-1.76,3.86-2.54a19.41,19.41,0,0,1,2.53-1,17,17,0,0,1,.12,2.36,10.7,10.7,0,0,1-.55,2c.84.06,2,.5,2.46.1A37.1,37.1,0,0,0,209.85,161.12Zm72.9-63.07-.92.63c1.17,5.72,2.28,11.45,3.56,17.14a22.16,22.16,0,0,0,1.88,4.1c1.41-2,4.46-4.6,4-5.78C288.94,108.56,285.67,103.38,282.75,98.05Zm-42.24,39.48,2.9,2.35a53,53,0,0,0,3.46-7.66c.14-.5-2.3-2-3.7-2.66-2-1-4.24-1.63-6.3-2.58-.68-.32-1.12-1.16-1.67-1.77-.29,1.05-1.08,2.28-.78,3.12a45.62,45.62,0,0,0,3.47,7.43C238.36,136.58,239.61,137,240.51,137.53Zm-9.33-10.24-1.73-1.93-7.38,9.22,7.29,4.75C229.94,135.5,230.52,131.68,231.18,127.29ZM203.5,141.35c-.34.26-1.43.67-1.6,1.33s.13,2.38.65,2.59c3.64,1.44,7.38,2.59,11.08,3.88a16.27,16.27,0,0,1,3.36,1.46,12.41,12.41,0,0,1,2.07,2.2c-.21-1.3,0-3.35-.7-3.76C213.64,146.35,208.72,144,203.5,141.35Zm65.69-55.21-7-9.64c-1.2,2.26-4,5.55-3.27,6.58,1.39,2.1,4.58,3.06,7.12,4.29C266.47,87.6,267.38,86.87,269.19,86.14Zm-82.45,42c1.67.36,2.73.94,3.57.7,2.57-.72,5.94-9.17,4.42-11.27-.41-.57-2.86-.65-3.06-.27C190,120.44,188.69,123.74,186.74,128.15Zm58.31-12.68,1-.5-1.29-2.15c-.62.69-1.67,1.31-1.77,2.07-.35,2.55-.36,5.16-.49,7.74a20.38,20.38,0,0,0-.14,2.7c1.94.33,3.91.46,5.88.63,0-1.28.32-2.68-.09-3.82A70.43,70.43,0,0,0,245.05,115.47Zm11.61,52.31a13.75,13.75,0,0,0-.91-3.25,14.6,14.6,0,0,0-2.44-3c-.77,1.35-2.37,2.87-2.14,4a24,24,0,0,0,3.12,7.61c.72,1.19,2.53,1.71,3.85,2.53a25.41,25.41,0,0,1-1.44-3.47C256.47,171.31,256.66,170.29,256.66,167.78Z"/><path d="M284.51,85.47c0-4.35-.06-8.28.05-12.21,0-.65.82-1.27,1.26-1.9.94.73,2.74,1.51,2.69,2.17-.29,4.59-.94,9.16-1.59,13.73,0,.27-1,.41-1.54.61C285.05,87,284.72,86.07,284.51,85.47Z"/><path d="M247.39,232.63l2.49,3.13c-1,.45-2,1.28-3,1.31-7.33.15-14.67.26-22,.07-1.24,0-2.44-1.6-3.66-2.45,1.6-.54,3.25-1.64,4.78-1.49,4.21.43,8.37,1.38,12.55,2.13l.35-2.07c-4.48-.68-9-2-13.43-1.91-13.37.36-26.75,2.1-40.07,1.64-6-.2-11.83-4.21-17.57-6.88-1-.46-1.85-3.29-1.35-4.34,1-2,2.76-4.78,4.58-5.1,9.94-1.7,20-3,30-4,7.82-.77,15.93.09,23.52-1.56,11.11-2.41,19.56,4,29,7,2.53.81,4.23,4.2,6.29,6.43.25.27.62.79.52,1-3.28,6.56,5.11,9.76,4.38,16.17s1.7,13.06,1.6,19.59-1.51,12.77-2.64,19.11c-.17,1-1.88,1.68-2.87,2.51a12.47,12.47,0,0,1-.82-3.44c.45-9.24,1.36-18.47,1.44-27.7a70.7,70.7,0,0,0-2.07-15.4c-.32-1.47-2.44-3.19-4-3.6C252.94,232.18,250.28,232.63,247.39,232.63Z"/><path d="M299,381.18c-6.6-1-13.24-1.71-19.8-2.92-8.49-1.57-16.89-3.67-25.38-5.24-5.37-1-6.58-4.29-5.8-9,.07-.44,1.23-.88,1.94-1,13.48-2.05,25.39,4.23,37.95,7.13,2.26.52,5.07.73,7.1-.14,7-3,14-6.31,20.71-9.95,11.89-6.44,23.58-13.24,35.42-19.77,1.11-.61,2.69-.34,4.05-.48-.52,1.34-.73,2.95-1.61,4-8.69,10.27-19.37,17.77-31.42,23.79-5.65,2.83-10.11,8-15.37,11.71-2.19,1.55-5.07,2.1-7.64,3.1Z"/><path d="M335.09,258c-6.27-.06-13.4-5.33-13.41-9.9,0-5.35,8.1-12.78,13.92-12.74,3.18,0,11.77,10.44,11.77,14.28C347.38,253.69,341,258.07,335.09,258Z"/><path d="M225.16,252.87c0,6.7-3.42,10.16-10.07,10.18-7.58,0-11.19-2.37-11.14-7.38.07-7.06,6.84-15.62,12.31-15.56C221.38,240.17,225.15,245.58,225.16,252.87Z"/><path d="M291.39,399.54c-4.18-1.91-7.33-3-10.07-4.76-1-.65-1.93-3.69-1.49-4.1,2.13-1.92,4.59-4.33,7.19-4.7a181.2,181.2,0,0,1,20.85-1.28,4.06,4.06,0,0,1,3.07,2.22c.37,1-.12,3.22-.9,3.62C303.78,393.78,297.37,396.7,291.39,399.54Z"/><path d="M304.83,168.3c-.34,6.62-.58,12.95-1.07,19.27-.09,1.22-1.13,2.38-1.73,3.57,0-1.22,0-2.44,0-3.65,0-6.33-.15-12.66,0-19,0-1.37,1.16-2.71,1.78-4.06Z"/></svg>