<svg id="Layer_1" data-name="Layer 1" xmlns="http://www.w3.org/2000/svg" viewBox="0 0 600 600"><title>ajo</title><path d="M367.37,230c-1.84-2.37-5.32-2.21-7.83-5.57a145.88,145.88,0,0,1,34.83,17.19,20.09,20.09,0,0,0-5.48-8.09,44.46,44.46,0,0,0-15.28-9.33c-17.08-6.11-33-14.82-50.22-21.34.81,5.07,4.94,7.22,8.68,9.22,4.68,2.5,8.47,6.06,12.74,9.09a62.41,62.41,0,0,1-18.12-9.7c-.73,1.38.08,2.19.19,3.09s2.91,1.07.93,2.29-1.81-1.14-2.18-2a178.67,178.67,0,0,1-8.45-27.1C312,166.3,306.55,145,297.9,124.44c.13,2.32.25,4.64.38,7-1.65-.4-1.31-2.47-3.76-3.49,1.09,8.54,5.47,15.42,7.34,23s3.91,15.29,5.65,23c-5-12.32-6.64-25.74-12.78-37.67,1.63,10,5.59,19.46,6.16,29.66-1.92-10.8-6.48-20.79-9.37-31.29-.39,4.08.85,7.91,2.24,11.59a121.72,121.72,0,0,1,6.55,28.05c.3,2.43-.14,5.58,3.22,6.73.13.05.23.56.15.78-1.11,2.83,2.12,4.55,1.81,7.16,3.44-.21.13,4.93,3.79,4.89.33,0,.7,3,1.05,4.63-3.61-1.78-4-6.25-7.43-8.79a102.31,102.31,0,0,0,9.75,23.74c-3-1.93-4.1-5.21-5.38-8.23-2.28-5.38-4.28-10.89-6.4-16.36-1.08.36-.2,1.51-1.14,2.4-3.14-11.27-3.69-22.81-6.42-33.9,1.62,1.27,1.5,3.24,1.87,4.92,1.38,6.2,2.56,12.44,3.92,19.16,1.1-7.93-3.28-29.31-7.09-35.12,0,3.89,2.06,7.36,1.39,11.15l-2.61-9.53c.54,9.18,1.09,18.35,3.3,27.33-2.1-9.61-5.31-19-5.73-28.94-.2-4.84-2.23-9.47-4.09-14-1.32-3.2-.83-5.41,2.47-6.9,2-.89,4.68-1.39,3.19-5.23,2.23,1.84,1.41,4.45,4.05,6.48-.34-3.57-.51-6.23-2.86-8.44,1.95-1.48,5.37.47,6.39-2.9.12-.41,1.21-.16,1.27.42.43,4.09,3.91,6.59,4.79,10.8,2.94,14,8.14,27.54,11.29,41.58,1.62,7.21,3.39,14.4,4.87,21.64,1.4,6.88,5.19,11.78,11.78,14,14.19,4.78,27.2,12.29,41.25,17.38,12.15,4.39,22.08,11.4,26.68,24.19a6.45,6.45,0,0,0,2.38,2.84c15.39,12.14,24.23,27.77,25.57,47.54.91,13.42,1.69,26.91-2.2,39.91a63.8,63.8,0,0,0-2.41,18.85c0,11.19-.37,22.37-3.36,33.25-.75,2.7.73,3.31,2.68,4.12C435,397.25,447.59,394.52,460,390c8.61-3.18,14-10.34,19.48-17.17,3.92-4.9,7-10.47,13.65-12.42,1.58-.47,2-2.28,2.59-3.65a25,25,0,0,1,5.54-8.32c-1.32,2.46-2.69,4.9-4,7.39-1.14,2.22-1.18,3.76,2.1,3.33a18.31,18.31,0,0,1,4.43.14c-11.83,2.06-12.81,2.43-16.15,6.52,8.05-5.67,17.57-4.23,27.26-6.66-4.18,4.37-8.48,2-12.42,2.93l5.1,1.54c-1.77,1.79-3.81,1.3-5.82,1-4.18-.58-7.77-.22-9.12,4.81a6.74,6.74,0,0,1-2.59,3.72c-7.2,4.52-9.58,12.35-13.45,19.15-1.51,2.65-2.89,5.38-4.67,8.72a26,26,0,0,0,10.47-8c.55,2.5.53,2.47,0,3.09-7.64,8.88-17.17,15.38-27.13,21.3-3.8,2.26-7.22,4.77-8.8,9.12a2.47,2.47,0,0,1-.4.73c-15.51,18.55-28.8,39.14-50.74,51.57-12.06,6.83-24.87,9.5-38.31,10.52-20.13,1.52-39.61-1.2-58-9.84a77.12,77.12,0,0,1-36.52-35c-1.33-2.54-2-3.47-5-1.56-13,8.33-27.59,9.3-42.42,8-26-2.28-45.22-15.47-58.58-37.6A8.3,8.3,0,0,0,153,410c-34-17.6-48.81-44.46-46.18-77.49,1.51-18.89,5.58-37,16.12-53.11,11-16.9,25.72-29.28,44.8-36.21a7.87,7.87,0,0,0,4.18-3.21c12.16-18.69,31.39-24.68,51.72-28.69a7.31,7.31,0,0,1,2.08-.16c10.07,1,14.48-4.74,16.87-13.5C244,192.4,245.14,187,247.74,182c2.69,5.77-6.36,27.51-15.81,37.28l3.74-7.56c-11.48,1.41-22.63,2.55-32.85,7.85-3.84,2-7.78,3.8-11.77,5.47-6.6,2.77-12.24,7.31-14.76,13.6-1.79,4.49-5,4.29-7.88,5.62C138.69,258.09,121,281.56,113.34,313a91.62,91.62,0,0,0-1.62,33.74,19.24,19.24,0,0,0,1.16,4.42c1.41-8.86,1.77-17.87,5.09-26.33-1,13.54-3.87,27-1.4,40.69,1.12-20.25,4-39.92,15.64-57.24a124.41,124.41,0,0,0-12,52.08,78.36,78.36,0,0,0,.72,8.76c0,.29.48.54,1.19,1.28.6-22.23,5.88-42.54,18.81-61.33-.18,3.42-1.88,5.32-3,7.46a117.67,117.67,0,0,0-12.89,51.11,19.09,19.09,0,0,0,2.71,9.72c-.74-25.73,8.86-48.36,20.08-70.51,1.36.39,1.22.77,1,1.09-8.56,15.29-13.27,31.91-16.56,49-1.67,8.64.21,17.19,2.31,25.59A72,72,0,0,0,138.18,393c-7.82-31.29,4-58.62,17.18-85.64-3,8.21-6,16.41-8.9,24.64-4.26,12-7.9,24.17-8.13,37a58.09,58.09,0,0,0,.46,11.28c.66,3.63,2.29,7.09,3.65,10.66-5.8-30.64,3-58.11,18.2-84.17-6.56,13.64-11.93,27.68-14.41,42.71,4.07-16,12.62-29.64,21.67-43.08,5-7.41,10-14.8,14.4-22.61.48-.86.83-2.56,2.29-1.76s.16,2-.25,2.9c-4.57,9.63-10.74,18.29-16.6,27.13-8.89,13.42-15.77,27.69-18,43.8a80.64,80.64,0,0,0,6.05,44.3,163.37,163.37,0,0,1,5-54.25c-1.27,12.65-3.85,25.3-2.89,38s5,24.77,9.24,36.79c-3.44-23.14-7.11-46.19-.35-69.21l1.12,0c-.41,4.67-.77,9.34-1.25,14a154.14,154.14,0,0,0,.24,33.88,18.7,18.7,0,0,0,1.57,5.18c3,7.06,6.07,14.1,7.63,21.68a9.09,9.09,0,0,0,3.48,6c-7.69-25.24-8.22-50.33-5-75.63-1.51,15.05.13,30,1.45,45a11,11,0,0,0,2.32,6.53c2.38,2.87,2.79,6.62,3.61,10.15,1.45,6.19,2.48,12.57,7.18,18.23.69-2.21-.38-3.65-.55-5.12a35,35,0,0,0-1.14-4.89c-4.18-15.53-8.08-31.1-7.8-47.36a136.64,136.64,0,0,1,4.8-34.77c.29-1,.24-2.24,1.67-3.11-1,7.24-2.14,14.21-2.86,21.22-1.58,15.52-1.8,31.07,2.8,46.13,2.92,9.58,6.78,18.89,10.57,28.17,1.63,4,4.17,7.61,10.13,7.79-3.85-7.15-6.34-14.33-9.47-21.22-8.08-17.77-8.7-36.47-7.34-55.45A111.78,111.78,0,0,1,196,339.41c.76-2.19.7-4.66,1.09-7s-1.51-2.81-2.95-3.38c-4.66-1.85-9.64-3-13.17-7-1.06-1.17-1.6-.16-2.3.51a29.9,29.9,0,0,0-5.66,7.56c.14-4.87,3.58-7.33,5.19-10.67.5-1,1.27,0,1.63.29,5.63,5.28,12.85,6.74,20,8.38.94.22.51.7.47,1.05-.23,2.18,1.57,3.08,3,5,1.2-3.76,2.25-7.09,3.64-11.46.64,7-5.57,13.49,1.68,19.2.81-4.12,1.57-7.94,2.32-11.77l.35.07c-.58,5.52-1,11.06-1.77,16.55-3.95,29.06,4,55.58,17.15,81A47.57,47.57,0,0,0,234,438.43a15.59,15.59,0,0,0,10.25,5.41c-10.6-11.79-13.18-16.24-14.27-25.44,3.43,7.67,6.3,14.42,13.21,18.32-15.74-24.79-16.63-52.65-17.91-80.43,2,16.63,4.27,33.29,7.9,49.73,1.27,5.73,2.91,11.51,5.93,16.5a117.73,117.73,0,0,0,12.33,16.06c-5.92-8.09-10.1-17-13.66-26.28a64.65,64.65,0,0,1-4.1-29.53c1.35,20.79,7.95,39.27,23.36,54-10.5-15.19-19.33-30.94-17.55-51.48,1.7,10.07,2.25,19.36,6.92,27.54.81,1.41,1.31,3.06,3.05,4.24,1.14-4.37-1.5-8.21-.57-12.46,1.48,4.43,3,8.86,4.82,14.39,1.64-8.87.29-16.4-.7-24-2.38-18.31-2.42-36.75-2.6-55.19,1.31,19.13,3,38.21,5.78,57.23,1.87-5.52,3.76-10.74,3.57-16.9-.56-17.87-.2-35.76-.2-50.64,1.45,14.31,1.06,31.8,2.83,49.21,5.9-10.83,2.19-22.76,3.89-34.31,1.58,6.56,1.09,13.08,1.37,20.26a8.36,8.36,0,0,0,2.45-6.2c.12-3.86,2.13-7.42,1.78-11.61-2.61-31.26,1.15-62.22,4.77-93.17.13-1.11.13-2.23.21-3.35a6.62,6.62,0,0,1,.65-2.74c-2.24,34.39-7.06,68.69-3.55,103.52.86-2,1.35-5.27,4.48-2.23,1.81-2.21,4.83-2.41,6.9-4.13,2.64-2.19,6-3.67,7.45-7.13.08-.19-.07-.47.57-.6,4.22-.88,4.18-1,4.11-4.87,0-1.46-.53-3,.8-4.65a11.07,11.07,0,0,1,.64,2.48c0,3.14.88,3.85,4.35,3.17,3.08-.61,6.95-.07,8.71,3.85a3.14,3.14,0,0,0,3.8,1.83c.43-2.4-1.62-4.43-1-7.11a9.87,9.87,0,0,1,.87,1.31c2.93,7,2.93,7,10.89,6.86,2.07,0,3.15-.35,2.5-2.81-.74-2.81-1.15-5.71-1.93-9.7,2.13,3.66,2.55,6.72,3.33,9.63.35,1.3.26,3.2,2.32,2.69s.31-2,.3-3.06a25.78,25.78,0,0,0-1.05-4.68c2.7,3.82,2.09,9.25,7.79,8.44.79-.11.78-.21,1.17-3.33.14,4.32,3.28,4.68,6.62,5.15.63-2.53-1.19-4.74-1-7.47,1.32,1.55,1.27,3.29,1.85,4.79s.31,3.43,2.4,4.09c1.71.53,3.36,1.28,5.68,2.19a287.1,287.1,0,0,0-9.5-37.22c-2.14-6.37-6.94-11.43-8.54-18-1.65-6.75-4.67-12.92-7.7-19.13,3.28,2.58,5,6.15,6.52,9.81,6.17,15.1,12.82,30,17,45.88,1.57,6,3.83,11.9,4.95,18.09.69,3.8,4.41,3.75,7.19,5.9.05-4.84-1.9-8.78-2.26-13.34,3.91,5.76,1.67,14.43,9.94,17.77-1.08-8-3.53-15.18-5.45-22.53a80.16,80.16,0,0,1,6.43,19.7c.75,4,2.64,6.54,6.85,8-1.52-17.19-11.74-30.78-18.26-46.23.92.24,1.26.23,1.34.36,8.07,13,15.11,26.5,17.57,41.74.79,4.89,2.58,7.94,7.12,9.73-3-20.51-13.67-37.76-24.1-55.08l1.09-.65c.49.66,1,1.3,1.48,2,10.51,15.49,19.09,31.84,22.2,50.57.89,5.41.84,5.48,6.43,8.33-2.94-25.42-14.46-46.69-31.14-65.6l1.09-.76a20.09,20.09,0,0,1,1.84,1.6,115.16,115.16,0,0,1,29.15,62.84c.56,4.08.53,4.08,5.88,8.09-.42-14.21-3.34-27.32-7.24-40.28,4,8.42,6.28,17.38,7.87,26.5.84,4.81,1.29,9.69,1.84,14.54.18,1.59.36,3.06,3.1,3.68.14-28-9-52.27-25.79-75.11a46.8,46.8,0,0,1,10.37,12.29,136.4,136.4,0,0,1,19,63.1c.08,1.69-.89,4,1.54,4.83,3.11-25.42-2.39-49-15-71.06,7.16,11.25,12.11,23.39,16.41,35.83-1.35-15-7.64-28.39-13.5-41.95,7.65,10.4,12.09,22.27,15.9,34.45-.29-18.36-7.07-34.18-18.43-48.27C389.43,283.45,377,273,364.75,262.4c-7.72-6.67-15.46-13.32-22.47-20.76-1.1-1.17-2.49-2.15-3.09-4,.53.1,1,0,1.23.25,14.53,12.24,29.86,23.52,43.8,36.48,14.57,13.55,27.24,28.48,33.83,47.68,1.4,4.06,2.39,8.25,3.58,12.43,1.56-.94,1.33-2.43,1-3.73-2.13-8.25-4.58-16.36-8.66-23.94-11.35-21-27-38.29-46.17-52.38a56,56,0,0,1-7.54-6.53c30,16.63,49.91,42.11,63.85,72.94-5.8-16.1-11.74-32.06-23.92-44.83,2.82,1.51,4.74,3.85,6.59,6.24,2.05,2.65,4,5.39,5.94,8.11s3.73,5.24,5.52,7.91,3.42,5.3,5.29,8.22c.6-3.79-7-18.53-16.24-32.45,5.25,4.75,8.27,11.41,13.58,16.14-4.47-9-6.18-19.66-16-25.33,4,.9,6.61,3.6,8.91,6.63s4.52,6.32,7.11,9.26c-1.32-7.07-5.42-12.33-11-16.58.08-1,.72-.65,1.16-.62s.82.13,2.05.34c-6.75-9.16-14.91-15.65-24.13-21s-19.87-7.13-28.42-14.43c2.92-.6,4.55,1.91,6.87,1.4,4.45,3.25,9.8,4.46,14.75,6.56C377.61,233.43,372.89,230.76,367.37,230ZM273.45,366.69a14.11,14.11,0,0,0,4.86-8.37c.47-2.51,1.2-6.54.32-7-2.62-1.38-2.53,2.8-4.52,3.63a4,4,0,0,0-1.21,1.12c-1.1,1.2-1.41,2.39.15,3.5,1.7-.84,1.51-2.89,2.65-4.09,1.53,3.43,1.72,5.35.43,5.52l-.63-2.9c-.67,2.15-2.87,2.39-2.86,4.37a3.64,3.64,0,0,1-1.6,2.43c-5.05,6.63-6.5,14.71-8.85,22.39-8.57,28-2.89,52.63,17.47,73.78,1,1,2.12,1.92,3.19,2.88-7.9-11.24-15.64-22.31-17.33-36.37,5.55,13.34,11.13,26.63,22.86,36-6.74-9.17-13.83-18.11-15.23-30.08,5.72,13.2,13.21,25.1,24.4,34.35-6.6-9.37-14.17-18.13-18.64-30.1,12.12,19,23.8,36.82,45.38,44.5C305,471.27,291.58,455.25,283,435c7.95,11.59,15.14,23.82,26.7,32.5A91.87,91.87,0,0,1,289,436.37c7.1,10.87,13.6,22.21,23.94,30.5s22.4,12.85,35.53,14.41c-22.71-6.78-41.85-19.29-45.32-30.53,9.38,12.38,20.8,20.72,35.12,24.91,13.92,4.07,27.92,7.49,43.2,5.22-1.33-1.72-3.3-1-3.82-2.57,1.84-.5,3.81.36,6.28-1-3.89-.35-7.12-.1-10.83-1.51,6-1,11.36-.78,17.58-2.47l-6-.37c18.12-4.22,29.39-10.08,33.93-17.85-12.54,8.84-25.33,15.18-40.42,15.19,29.14-4.67,49-22.53,65.31-45.47-5.2,2.65-7.91,7.83-12,11.64,5.94-14.42,21.21-18.6,30.72-29.1l.79.82-3.39,3.78c4.78-2.06,8.33-5.6,12.38-8.91-2.13-.88-3.61,1.39-5.44.34,5.56-6.5,17.84-29.61,19.56-37.05-4.82,6-8.78,12-13.93,17.18-5.33,5.39-11.94,7.76-19.21,11.92,5.54-1,9.91-1.43,14.12-3-3.42,3-6.92,5.68-11.74,5.53-4.46-.13-8.93-.3-13.4-.4-12.36-.29-16.41-1.15-25.14-5.41a57.87,57.87,0,0,1-14.36-10.06c-12-11.39-25.74-20.54-39.77-29.21-10.69-6.61-22.2-10.36-35-9.57a36.47,36.47,0,0,1-8.36-.35c-3.9-.68-8.21-.87-10.2-5.35-.21-.47-.57-1-1.28-.77a.92.92,0,0,0-.66,1.29c1,2.68-.45,4.9-1.38,7.18-1.48,3.65-4.15,7.09-1.32,11.12-1.77,1-2.05-2.41-3.51-.84-1.05,1.13-2.29,2.52-1.29,4.33,1.66.2,1.29-2.13,3.1-2.06-.63,2.17-1.17,4.3.54,6.2.52.58.37,1.26-.4,1.71-.53.31-1.23.56-1.49,0-1.87-3.85-3.29-.28-3.89.57a23.25,23.25,0,0,1-5.78,5.34l.12-.1c-4.91,2.61-7.3,2.11-10.76-2.22a19.57,19.57,0,0,0-2.2-2.51c-1.39-1.21-2.63-1.87-2.77,1-.19,3.91-1.34,7.67-2.39,11.42-3.67,13.14-5.54,26.43-3.71,40.08a9.09,9.09,0,0,1,.12,2.08c-.05.64.67,1.55-.52,1.95a89.93,89.93,0,0,1,.93-39.38c1.35-5.76,4-11.36,3-17.54ZM200.1,334c-1.6,1.11-1.88,2.62-2.35,4a112.27,112.27,0,0,0-5.23,25.79c-2.13,25.16,0,49.41,14.64,71.14,2.7,4,5.39,8,10,10.21a71.21,71.21,0,0,1-11.56-22.41c-7.75-24.89-8.19-50.27-4.6-75.88A26.21,26.21,0,0,0,200.1,334Zm4.06,5.35c-3.29,12.83-3.22,25.52-2.7,38.21.62,14.93,1.62,29.83,6.69,44.1.6,1.69.9,3.61,2.45,4.76,3.7,2.75,5.9,6.65,8.3,10.41a27.19,27.19,0,0,0,8.56,8.45c1.76,1.11,3.38,1.5,6.13.26-1.79-1.5-3.25-2.56-4.51-3.81-8.45-8.43-15.05-18-17.47-29.92a272.75,272.75,0,0,1-4.38-33.58c-.76-9.91.18-19.81,0-29.71C207.17,345.31,207.43,342.05,204.16,339.34Zm9.11,64.37c1.78,9,2.49,18.48,10.63,24.61C220,420.27,217.39,411.63,213.27,403.71Zm-65-7.46A115.36,115.36,0,0,1,145,356.83C142.68,370.26,142.27,383.53,148.28,396.25Zm143.51-48.32c2.4,1.2,4.14,1.79,6.29-.17,1.85-1.68,1.12-2.92.27-5C296.65,345.32,294.21,346.33,291.79,347.93Zm-3,11c-2,3.31-4.53,4.94-5.21,7.85C285.93,365,288.91,363.71,288.83,359Z"/><path d="M232.4,290.29c-2.36,8.28-4.91,16.51-7,24.84-4.89,19-8.24,38.23-6.42,58,1.2,13.12,4.53,25.81,8,38.46.37,1.35,1.78,3.59.38,4.1-2,.76-2.23-2-2.82-3.3-8.14-18.05-9.64-37.14-8.47-56.59a180.59,180.59,0,0,1,8.82-45.5c1.08-3.3-.13-6.33-.27-9.47-.12-2.63-.4-5.22.72-8.13.88,3.56-.38,7,1.54,10.83,3.24-7.19-2-14.81,2.79-21.36.09,4.06-1.57,7.84-.12,11.75,2.08-.42,1.16-3.13,2.94-3.56Z"/><path d="M231.25,361.55c-1.63-17,1.41-33.83,1.55-51.59-4.39,12.32-4.9,24.58-6.59,36.63-1.12-19.46,3.08-37.88,10.74-55.67a182.08,182.08,0,0,0-3.14,35.1C233.76,337.87,231,349.57,231.25,361.55Z"/><path d="M266.64,139.19l5.25,26.65c-3-7.55-4.45-15.44-5.86-23.31-.57-3.16-1.06-5-5.11-3,2.1-2.92,3.51-3.48,7.77-3.36,2.9.07,5.82.54,8.39-1.06,1.53,9.47,2.59,18.72,4.63,27.76,1.33,5.92,1.28,11.82,1.53,17.73.39,9.2.95,18.34,3,27.42-.66-2.49-1.41-5-1.94-7.48a79.12,79.12,0,0,1-1.38-8.24c-.84-8.19-1.67-16.38-2.26-24.59-.32-4.51-1.69-8.74-2.87-13-.7-2.5.32-5.56-2.34-7.44,2.06-1.51,1.45-3.61,1.35-5.65-.16-3.5-2.42-3.3-5-3.13-3.43.24-1.6,2.54-1.65,4-.06,1.63,1.13,3.15.57,5.19C268.84,144.93,269.42,141.44,266.64,139.19Z"/><path d="M255,170.22c3.11,14.14,2.62,27.86-4,42.15,1.05-7.53,3.47-13.58,3.57-20.14l-1.91,4.65c-.26-3.51,1.23-6.1.41-10.12-3.42,10-6.21,19.09-11.61,27C247.37,199.66,252.82,185.46,255,170.22Z"/><path d="M248.87,180c3-13.89,3.24-27.95,2.45-42.07C256.44,142.67,254.59,173,248.87,180Z"/><path d="M259.84,203a40.89,40.89,0,0,1-.61,15c-.5,2.44.4,4.06,2.61,2.37s2.82,1.93,4.59.47c-3.71,1.72-3.32,5.73-5.22,8.33-.51.7-.14,2.42-2.47,1.28-2-1-.37-1.61-.32-2,.22-2.16.74-4.29.82-6.53-2.35,2.83-2.31,6.7-4.87,10.17,0-3-.64-5.35.09-7.74.19-.62.81-1.39-.17-1.74s-1.51.43-1.7,1.32a18.22,18.22,0,0,1-3.81,7.35c-.05-3.59,3.9-5.61,2.65-9.25-.23-.69,1.63-1.16,2.47-.94,2.92.75,3.17-1.3,3.5-3.16C258.22,213.26,258.93,208.6,259.84,203Z"/><path d="M323.88,265.05c-2.07,3.14,1,6.51-.61,9.9-1.31-4.7-.66-9.69-3.47-14.77-.24,3.73.64,6.74-.69,9.65-.23-4.84,0-9.79-3.35-14.44-.22,1.62-.39,2.82-.66,4.81-1-5.11-1.51-9.53-5.24-13.47-.17,2.71-.3,4.89-.44,7.06-.89-4.37-.94-8.83-3.63-13.81l-.42,4.7a84.36,84.36,0,0,0-3.89-15.46,172.85,172.85,0,0,0,17.23,27.44c2,2.64,4.27,5.11,5.09,8.46Z"/><path d="M200.43,233.37c3.93-2,8.12-3.51,10.4-7.6,1.39.85.26,1.56.34,2.43,2.32-1.13,3.81-3.14,5.85-4.82.15,2.61-2.79,3.15-3.16,5.85,4.65-1.43,6.13-6.24,10-8.35-.19,2.31-2.61,3-3.05,5.34,3.67-1.09,4.82-4.64,7.5-6.61,1.35.12-2.59,3.66,1.27,2.26.08,0-.05,1-.54,1.26-5.71,2.36-9.34,8.39-16.15,8.89C208.78,232.32,204.8,233.74,200.43,233.37Z"/><path d="M189.76,273.78c9.65-11.73,16.92-25.5,29.73-34.92C219.21,242.21,195.21,270.54,189.76,273.78Z"/><path d="M318.69,199c-6.78-21.1-12.51-42.48-19.63-63.41,1.34-.82,1.63.25,1.9.91a79.47,79.47,0,0,1,3.12,8.18c4.89,17.56,9.68,35.15,14.49,52.73A8.33,8.33,0,0,1,318.69,199Z"/><path d="M268.17,250.18c.16-5.3,4-10.06,1.53-15.58,3.75-3.91,3.24-9.15,4-13.86.91-5.37-.34-11,1.3-16.32C278.5,220.55,273.83,235.48,268.17,250.18Z"/><path d="M242.6,367.12c-2.87-17.57-1.8-34.95,2-52.23C243.87,332.31,241.1,349.67,242.6,367.12Z"/><path d="M274.7,126.09c1.46,1.42,1,4,3.27,4.8-.6-2.57-1.19-5-1.78-7.53l.8-.23c.53,1.62,1.07,3.24,1.6,4.86.41,1.3.63,2.74,2.66,2.22.57-.15,1.83.3,1.3,1-1,1.29.24,3.28-1.35,4.1-1.33.69-.69-1.05-1.31-1.36-2.67-1.35-5.54-.6-8.3-.66-1.51,0-3.08.7-4.15-.85-.74-1.09-1.39-.94-2.37-.39-1.37.75-2.63.53-3.93-1.2,3.47-.59,4.4-4.59,7.88-5,.31,1.47-.23,3.09,1.38,4.13,1.58-.65.1-2.31,1-3.09,1.66.83.64,4.43,3,3.77C276.4,130.1,273.94,127.77,274.7,126.09Z"/><path d="M136.93,296.78c1.75-9.12,20.1-30,28.23-32.28C152.87,273.08,146.05,285.91,136.93,296.78Z"/><path d="M339.24,279.16c10.6,12.62,17.1,27.24,21.13,43.06A301.31,301.31,0,0,0,339.24,279.16Z"/><path d="M236.17,353A329.09,329.09,0,0,1,245,292.87c-.45,10.2-2.72,20.11-4.69,30.05S237.35,343,236.17,353Z"/><path d="M293.25,321.44c.23-13.22-1.61-26.37-2.15-39.59A82.91,82.91,0,0,1,293.25,321.44Z"/><path d="M338.48,269.23a159.2,159.2,0,0,1,20.95,36.33C352.57,293.38,344.41,281.94,338.48,269.23Z"/><path d="M260.85,147c-3.08-2.3-3.71-6.2-6.34-8.72-1.19-1.14-1.16-1.94-.08-3.11a32.22,32.22,0,0,0,5-8,9.9,9.9,0,0,1-2.83,10C262.91,138.63,258.54,144,260.85,147Z"/><path d="M285.46,250.29c-3.33-7.68-6.28-15-5.83-23.21.85,9.86,7.68,17.07,10.94,25.89-1.55-2.24-3.1-4.48-4.73-6.82C284.39,247.44,286.32,248.69,285.46,250.29Z"/><path d="M360.27,237.87c10.7,2.91,19.31,9.36,27.58,16.38Z"/><path d="M380.57,310.61c-9.52-7.67-11.38-20.07-18.54-29.2C371.56,289,372,302.41,380.57,310.61Z"/><path d="M248,222.22l1.92-2.06c-.89,6.72-3.85,10.92-8.17,11.32,1-3.14,3.76-5.08,5-7.89-1.42-1-2.8-.69-4.14-.7-.58,0-1.57.47-1.41-.74.06-.51.33-1.53,1.26-1,1.39.84,2.07-.14,2.77-.95s1.44-1.52,2.44-1C249.15,219.94,246.81,221.14,248,222.22Z"/><path d="M335.37,246.18l17.12,24.22A60,60,0,0,1,335.37,246.18Z"/><path d="M358.29,242.16a101.64,101.64,0,0,1,27,16.8C376.5,253,366.7,248.76,358.29,242.16Z"/><path d="M176.07,353a31.59,31.59,0,0,1,6.74-21.76C180.18,338.32,178.59,345.76,176.07,353Z"/><path d="M296.57,281.71A69.18,69.18,0,0,1,299,313.83C299.53,303,297.75,292.38,296.57,281.71Z"/><path d="M510,366c7.57,2.68,16.36.62,23.63,6.62C524.86,372.24,517.67,368.14,510,366Z"/><path d="M310.94,188.6c3.12,9.6,7.88,18.3,11.9,27.33C318.13,207.08,312,198.84,310.94,188.6Z"/><path d="M236.78,254.31c6-7.09,11.58-14.49,15.39-23C249.12,240.32,245.53,249,236.78,254.31Z"/><path d="M286.69,170.81c-1.41-11.1-5.87-21.65-6.1-33C283,148.76,285.7,159.63,286.69,170.81Z"/><path d="M378.51,289.28l-17.77-20.87C368.22,274,373.69,281.31,378.51,289.28Z"/><path d="M328.76,273.6c3.13,3,4.22,6.61,4.33,11s1.65,8.39,1.41,13.84c-2.05-9-3.86-17-5.66-24.91Z"/><path d="M390.55,248.9c-6.61-4.17-13.78-7.3-20.59-11.13C377.87,239.47,384.57,243.48,390.55,248.9Z"/><path d="M331.23,249.18l16.15,23.62c-6.64-6.93-11.7-15-16.92-22.92Z"/><path d="M228.21,258.34l16.11-21.12C243.48,240.76,234.16,253.66,228.21,258.34Z"/><path d="M153,300.35c2.07-7.53,7.47-12.86,11.93-18.81C162.22,288.6,156,293.5,153,300.35Z"/><path d="M323.8,265.12a17.05,17.05,0,0,1,5,8.48l.08-.09c-1.22-.08-1.19.53-1.07,1.53a73.05,73.05,0,0,1,.5,9.14q-2.2-9.56-4.39-19.13Z"/><path d="M147.13,296.88c2.12-6.55,5.24-12.47,10.65-17C154.4,285.65,150.18,290.91,147.13,296.88Z"/><path d="M264.8,304.78q.85,12,1.73,24C263.93,321,263.76,312.91,264.8,304.78Z"/><path d="M200.8,238.36c-6.07,5-12.36,7.52-18.08,7.11A118.07,118.07,0,0,0,200.8,238.36Z"/><path d="M267.27,273.87a91.94,91.94,0,0,1-1.83,21C266.13,287.87,265.3,280.75,267.27,273.87Z"/><path d="M247.82,397.52c-2.36-5.07-4-10.26-3.85-15.82l1.07-.21Q246.42,389.5,247.82,397.52Z"/><path d="M290.71,237.72c-.21-6-2.88-11.39-4.92-17.66C289.81,224.27,291.71,231.23,290.71,237.72Z"/><path d="M317.92,219.35c.9.85,1.79,1.71,3.41,3.26L317.9,212c3.69,4.15,4.17,9.52,5.52,14.6C321.5,224.24,318.56,222.67,317.92,219.35Z"/><path d="M259,296.43c.67,7.09-.82,13.14-.72,19.26C256.9,310.7,257.14,302.14,259,296.43Z"/><path d="M301.72,198l5.94,17.91C304.11,210.52,301.79,204.69,301.72,198Z"/><path d="M291.69,222.27l5.4,19.07A57.11,57.11,0,0,1,291.69,222.27Z"/><path d="M295.2,114.48l-11.49,2.31C287.15,114.11,290.83,112.52,295.2,114.48Z"/><path d="M258.79,171.19q-1.08-9.87-2.17-19.74A58.58,58.58,0,0,1,258.79,171.19Z"/><path d="M342.3,318.36c-2.8-4.34-5.24-9-5.25-14.48Z"/><path d="M209.75,302a91.9,91.9,0,0,1-5.48,15.87c1.15-5.52,2.35-11,5.57-15.8Z"/><path d="M304,293.47q-1.46-5.93-2.92-11.86C304.57,285,304.53,289.25,304,293.47Z"/><path d="M317.82,230.76l8.58,11.86C322.63,239.32,319.47,235.59,317.82,230.76Z"/><path d="M268.11,211.12l-2.28-10.27C268.38,203.87,269.35,207.27,268.11,211.12Z"/><path d="M232.48,290.36c-.16-4.56-1-9.17,1.43-13.5-2.35,4.31,2.82,9.31-1.51,13.43Z"/><path d="M319,306.1a18.49,18.49,0,0,1,4.25,12.16C322,314.2,320.29,310.29,319,306.1Z"/><path d="M400.18,305.12l-8-9.61.87-.72,7.87,9.74Z"/><path d="M209.84,302.09c.48-4.64,4-7.65,6-11.49l.92.52-7,10.9Z"/><path d="M230.85,232.86l6.7-8C236.27,228.39,234.47,231.42,230.85,232.86Z"/><path d="M333.11,311a34.77,34.77,0,0,1,3,12A27.05,27.05,0,0,1,333.11,311Z"/><path d="M344.74,236.41l-8-6.64C340.51,230.71,342.75,233.47,344.74,236.41Z"/><path d="M288.91,269.63q-1.34-5-2.68-10C288.73,262.55,288.45,266.18,288.91,269.63Z"/><path d="M318.91,329.68q-1.79-5-3.55-10.05C318.15,322.31,318.45,325.93,318.91,329.68Z"/><path d="M253.81,214.55c.48-3.39.6-6.77,2.71-10.14C256.83,208.53,255.2,211.58,253.81,214.55Z"/><path d="M273.59,366.51c-4.41,6.78-4.69,14.68-6,22.29-1.69,10.17-2,20.48-2.65,30.77-1.42-7.3-.77-14.68-.94-22-1.93,8.19-1.53,16.53-1.71,24.83-2.74-11.34-1.86-22.6.74-33.81a108.71,108.71,0,0,1,6.72-19.75c.56-1.25,1.43-2.42,1.25-3.92a3.64,3.64,0,0,0,1.6-2.43c2.73.94,0,2.93.81,4.23Z"/><path d="M291.76,371.73c2.59.37,2.08,2.73,2.49,4.27,2,7.41,3.51,14.93,5.59,22.3,4.58,16.29,13.14,30.38,24.26,43-12.41-11.19-20-25.5-25.89-40.86,1.47,10.06,5.29,19.33,9.38,28.53-5.31-8-8.66-16.88-11.34-26-1.22-4.16-3.17-8.43-1-12.94a1.84,1.84,0,0,0-.27-1.6c-4.47-5-2.52-11.12-3.09-16.8Z"/><path d="M297.69,435.6c16.83,29.15,44.84,39,75.85,43.56C344.44,480.23,305.07,460.07,297.69,435.6Z"/><path d="M318.47,450.14c-14.45-10.05-19.8-25.6-25.34-41.14-.12,3.8,1.25,7.26,2.55,10.73s2.86,6.91,3.64,10.88c-5.88-5.9-10.13-28.43-8.35-38.24C295.85,413.69,301.81,434.48,318.47,450.14Z"/><path d="M285,425.82c-3.52-8.32-5-17.06-5.93-27-2.15,8.64-.59,16.18-.13,23.71-6.12-16.77,0-32.75,3.42-49C279.24,391.2,281.33,408.53,285,425.82Z"/><path d="M304.87,441.69c15.87,19.71,38.86,26,61.91,33a4.88,4.88,0,0,1-5.11.63c-14.77-5.25-30.35-8.63-43.16-18.46A53.82,53.82,0,0,1,304.87,441.69Z"/><path d="M274.89,425.06c-5.77-18.87-1.59-37.16,2.78-55.59,1.07,2.46,1.16,2.48.36,6-2.54,11.41-5.56,22.75-4.41,34.63C274.11,415.11,274.47,420.09,274.89,425.06Z"/><path d="M417.5,447c-11.07,11.18-24.84,16.46-40.08,18.5C392.16,462.28,405.14,455.32,417.5,447Z"/><path d="M327.9,450.84c12.23,10,26.71,13.53,42.11,14.39C359.85,468.53,338.72,461.94,327.9,450.84Z"/><path d="M287.3,375.3c.6,13.11-.25,26.27,2,39.31C286.88,401.57,285.31,388.51,287.3,375.3Z"/><path d="M304,387a75.92,75.92,0,0,0,5.62,12c2.26,3.75,4.76,7.43,5.16,12C309.36,403.82,305.28,396,304,387Z"/><path d="M371.54,407.09c10.65,4.48,21.5,7.86,34.13,7.57A53.12,53.12,0,0,1,371.54,407.09Z"/><path d="M415.21,395.91c5.86,6.88,14.31,4.41,21.53,6.31C428.89,402.57,420.74,404.08,415.21,395.91Z"/><path d="M315.39,346.47l-3.7-.94c-.43,3.67,2.8,4.36,4.55,6.3a14.3,14.3,0,0,1-6.78-3.89c-1.25-1.3-2.5-3.22-.67-4.7,1.54-1.24,3.76-2.1,4.57,1.24C313.55,345.25,315.07,345.13,315.39,346.47Z"/><path d="M284.82,381.13c-.77,8.32-.14,16.61.16,24.91C283.9,397.73,281.29,389.44,284.82,381.13Z"/><path d="M388.07,379.48c4.13,3.89,10.77,4.58,13.13,10.63C396.61,386.81,391.63,384,388.07,379.48Z"/><path d="M340.16,417.22a197.53,197.53,0,0,0,17.3,11.11C350.56,426.39,345,422.31,340.16,417.22Z"/><path d="M353.09,447.59c-6,.79-10.94-1.63-15.53-5.22C342.69,444.16,347.87,445.8,353.09,447.59Z"/><path d="M390,404.5a45.44,45.44,0,0,1-16.94-8.4Z"/><path d="M317.7,365.84l9.88,8.18-.81,1C322.14,373.81,320.75,368.85,317.7,365.84Z"/><path d="M403.3,451.75c4.52-2.87,8-7.39,13.19-9.4A48.32,48.32,0,0,1,403.3,451.75Z"/><path d="M290.8,420.6q1.8,5.22,3.62,10.44l-1,.39C291.57,428.18,290.1,424.76,290.8,420.6Z"/><path d="M370.58,460.94a123.4,123.4,0,0,0,15.85-1.87A34.36,34.36,0,0,1,370.58,460.94Z"/><path d="M381.34,381.37l8.64,8C386.2,387.68,383.62,384.68,381.34,381.37Z"/></svg>