<svg id="Layer_1" data-name="Layer 1" xmlns="http://www.w3.org/2000/svg" viewBox="0 0 600 600"><defs><style>.cls-1{fill:none;stroke:#000;stroke-miterlimit:10;stroke-width:3px;}</style></defs><title>opensalsa</title><path d="M230.44,190.65c-4.27-2.41-5.2-6.14-5.24-10q-.18-17.47.1-34.95c.06-4.28,2.48-7.52,5.84-10,5.81-4.32,12.48-6.18,19.59-6.58,3.65-.21,7.33-.08,11-.08,5,0,5.13,0,6.36-4.75,5-19.48,10-39,15-58.48,1.8-6.91,3.72-13.81,5.93-20.61,1.74-5.35,2.86-6,7.26-5.94,5.82.09,8,1.38,9.69,6,9,24.53,17.19,49.34,23.91,74.61,3.24,12.2,3.23,10.69,13.51,11.11,8.24.34,16.16,1.8,23.55,5.79,3.66,2,5.15,4.53,5.23,8.73.23,11.13.87,22.26,1.44,33.39.16,3.27-1.23,5.79-3.3,8.07-1.07,1.19-1.94,2.35-.57,3.89,5,5.62,5.8,12.66,6.1,19.63.45,10.81.42,21.65.49,32.47.22,33.33.32,66.65.6,100q.41,48,1.11,96c.25,17.33.91,34.65,1.18,52,.14,8.32-.1,16.66-.41,25a10,10,0,0,1-2,4.8c-3.33,4.94-8,8.48-13.08,11.4-10.87,6.19-22,12-34.62,13.39-27.6,3.07-54.53.4-80.35-10.51a44.51,44.51,0,0,1-19.52-15.83,18.6,18.6,0,0,1-3.21-11.76c.69-25,1.74-50,1.56-74.95-.35-49-1.42-98-2.23-147q-.65-38.49-1.44-77C223.87,201.83,223.83,195.26,230.44,190.65Zm1.13,9.61-5-1.34a33.54,33.54,0,0,0-.91,5.16c-.09,8.81-.29,17.64,0,26.44,1.26,39,3.32,77.92,3.89,116.89.69,47.47.23,95,.14,142.45a157.38,157.38,0,0,1-1.32,16.92c-.46,4.23.34,8.07,3.14,11.19a95.1,95.1,0,0,0,8.35,7.82c.76.67,1.91.89,3.5,1.58V503.54c.73,7.49,1.26,14.95,1.35,22.41a5,5,0,0,0,3.53,5.24c3.67,1.55,7.2,3.48,10.93,4.86,20.11,7.43,41,8.82,62,6.47,9-1,17.89-3.69,26.82-5.59,3-.65,4.5-2.56,4.78-5.57.2-2.08.48-4.16.73-6.24l.32.06.44,6.83.44,0q-.54-41.64-1.07-83.28c2.4,19.18.55,38.5,2.25,57.74q.86-23.13,1.7-46.24a10.84,10.84,0,0,1,.66,3.66c-.24,10-.47,20-.82,30-.38,11-.94,22-1.27,32.94-.05,1.93.64,3.89,1.14,6.69,2.85-3.09,2.39-5.86,2.47-8.38.56-18,1-36,1.48-54,.06-2,0-4,0-6a14.37,14.37,0,0,1,.83,6q-.49,26.49-1,53c0,1.87.21,3.74.35,6.26,1.49-.89,2.69-1.21,2.76-1.7,1-6.53,1.84-13.08,2.81-20.34v17.54c3.69-.43,4.14-2.58,4.17-5.38.13-10.66.61-21.31.62-32,0-14-.23-28-.53-42-.1-4.62-.72-9.23-1.11-13.85l1-.16a37.46,37.46,0,0,1,.82,4.53c.35,6.49.86,13,.84,19.46-.08,18.5-.43,37-.56,55.48,0,2.89-.7,5.94,1.07,8.94,2.48-2.76,2.83-5.85,2.83-9.05,0-14.32.11-28.64,0-42.95-.32-46-.81-92-1.06-137.95-.18-36-.06-72-.18-108a157.35,157.35,0,0,0-1.05-16.94c-.28-2.47-.17-5.37-2.67-7.36-.82.37-1.6.65-2.3,1.05A99,99,0,0,1,318.29,213c-12-.06-24-.11-35.92-1.31-12.88-1.29-25.66-3.77-38.42-6.06-3.13-.56-6-2.38-9-3.63,3.69,1,7.34,2.12,11.07,2.91a328.32,328.32,0,0,0,75.42,7.18,20.51,20.51,0,0,0,5.4-.8,3.23,3.23,0,0,0,1.69-4.79,13.51,13.51,0,0,0-1.82-2.31c-.74-.76-1.6-1.39-2.41-2.08-.31,1-.67,2-.9,3a20.66,20.66,0,0,0,0,3l-2.07-5.32-.82.15-.89,5.43c-.51-2.5-.88-4.28-1.25-6.06l-1.51,0L315.57,209c-.39-2.22-.71-4.08-1-5.94l-1.68-1.18-.18,2.22a33.18,33.18,0,0,1-5.41-1.35c-1.81-.77-2.84-.39-3.56,1.32-.37.9-.73,1.81-1.48,3.67a11.58,11.58,0,0,0,0-2.69,27.19,27.19,0,0,0-1.31-2.79c-.67.82-1.39,1.59-2,2.46a8.79,8.79,0,0,0-.6,2.13l-1.63-6.07c-1.45,2.61-2.23,4-3,5.44l-.52-.41v-4.56l-2.92,3.91c0-2.71-.13-4.6-3-2.7l-1.12.72c-2.17-3.71-3.26.07-5,.9.47-2.8-1-3.48-3.19-3.12-.92.15-2.22,1.17-2.6.86-3.32-2.64-7.35-1.79-11-2.2-2.91-.34-6.24-2.72-9,1-.15-1.5.59-3.35-1.62-2.22-.66.34-1,1.29-1.54,1.91-.1.11-.48,0-.62,0v-3.83l-3.64,3.09c1.31-4.06-1.37-4-3.4-4.39a20.13,20.13,0,0,0-4.11-.21c-1.09,0-2.19.36-3.27.32s-2.57-.15-2.78-.68c-1.24-3.08-1.9.4-3,.21-2.29-.43-3.08.33-2.4,1.93A18,18,0,0,0,231.57,200.26Zm93.52-62.19,3.66-1.07c2.88-.36,4.2-2.28,3.45-5.25-.61-2.41-1.39-4.79-2.12-7.17-7.53-24.47-14-49.27-23.2-73.23-1.95-5.07-3.7-9.28-10.27-7.53a1.7,1.7,0,0,1-.5,0c-5.2-.48-5.2-.48-6.76,4.4-.1.32-.22.63-.31,1Q278.6,89.2,268.19,129.27a9.39,9.39,0,0,0-.3,3.45c.07.58,1,1.05,1.49,1.57l1.85-2.73c-1,4.31,1.13,5.84,4,6.79a57.85,57.85,0,0,0,5.71,1.76c12.4,2.71,24.81,1.74,37.25.09,2.93-.39,3.78-1.5,3-4.2a12.45,12.45,0,0,1-.12-2.33c1.81,2.56,1.82-.1,2.49-.15Zm-60.87,57.74c4.92.67,9.35,1.35,13.8,1.84,3.24.36,3.87-.15,3.91-3.44.16-12.83.16-25.66.33-38.48,0-2.66-1.21-3.48-3.58-3.63-2.83-.18-5.65-.45-8.44-.87-2.43-.37-3.44.63-3.45,2.94,0,4-.05,8-.05,12q0,13.56,0,27.12H266V152.47c-1.13,10.31-.8,20.68-2,31-.34-9-.13-17.89,0-26.82a7.13,7.13,0,0,0-5.19-6.77,31.23,31.23,0,0,0-4.4-.91c-4.48-.64-5.13-.21-5.16,4.17-.08,11.16-.12,22.32,0,33.48.06,6.42.21,6.41,6.37,7.58,1.15.22,2.26.61,3.41.79,3.33.51,3.65,0,2.35-3.4a4.24,4.24,0,0,1-.16-1.47q0-12.89,0-25.78a145.48,145.48,0,0,1,.84,19c0,1.16-.4,2.86.2,3.4C265,189.16,264.06,192.34,264.22,195.81Zm40.06-18.28h-.68c0-6.82,0-13.64,0-20.46,0-2.73-1-4.3-4.2-4.12-3.32.18-6.65-.16-10-.16-4.31,0-4.37.12-4.44,4.5-.19,10.48-.41,21-.6,31.44,0,2,0,4,0,6,0,2.59,1.14,4,3.84,4.09,4.33.12,8.65.25,13,.47,2.42.12,3.19-1,3.16-3.28C304.22,189.85,304.28,183.69,304.28,177.53Zm20.25-24c-5.95,0-10.9,0-15.85,0-1.9,0-2.63,1.16-2.66,2.89-.06,3-.11,6-.12,9-.07,10-.16,20-.14,29.94,0,3.8.25,4,4,3.95s7.32-.14,11-.35c3.82-.22,4.17-.71,4.14-4.55,0-5.65,0-11.3-.05-16.95C324.75,169.49,324.63,161.53,324.53,153.53ZM341,151.41c-3.07.37-5.68.71-8.29,1-4.81.51-4.87.49-4.87,5.41q0,18.19.12,36.4c0,.5,0,1,0,1.49a2,2,0,0,0,2.54,2.24c3-.32,5.94-.67,8.9-1.08,2.12-.29,2.49-1.81,2.48-3.64-.06-12.3-.06-24.6-.17-36.89A33.69,33.69,0,0,0,341,151.41Zm25.7-11.78c-2.18-2.86-3.82-3-6.4-1.7a61.87,61.87,0,0,1-11.93,4.9,102.09,102.09,0,0,1-28.6,3.94c-14.49-.18-29-.26-43.44-1.11-13.48-.8-26.85-2.73-38.5-10.59-2.18-1.48-3.75.44-5.13,1.76-1.57,1.48-.37,3.13.77,3.78,3,1.69,6.07,3.75,9.34,4.25,12.32,1.88,24.69,3.72,37.11,4.61,17.92,1.28,35.87,2.83,53.86.66,9-1.07,17.79-2.64,26.05-6.44A76.28,76.28,0,0,0,366.72,139.63Zm-120.1,52.31c-.23-3.75-.52-7.2-.62-10.66-.17-5.32-.21-10.65-.31-16-.11-5.16-.16-10.32-.39-15.47-.11-2.6-2.25-3.89-5.75-4-2.89-.1-2.67,1.95-2.67,3.74q0,18.74.05,37.47c0,.85.43,2.31.95,2.46C240.75,190.35,243,193.38,246.62,191.94Zm112.07-.18c5.09-1.5,5.53-2,5.34-6.37-.1-2.48-.61-4.95-.61-7.43a88.83,88.83,0,0,1,.53-9.36c.19-1.9,1.26-3.84,1-5.63-.62-4.35-1.86-8.6-2.7-12.92-.33-1.71-.43-3.43-2.76-3.29s-3,1.76-2.88,3.8c.92,13-1.61,26.19,2.46,39C359.27,190.15,358.85,191,358.69,191.76ZM302,143.2l.29,1.2c11.78-.59,23.58-1,35.34-1.87a117,117,0,0,0,15.72-2.64c2.13-.45,4.61-.89,5.64-3.39-3.28-3.07-16.94-5.28-24.05-3.92l-.18,3.65C324.25,142,313.07,142.49,302,143.2Zm-73.34-1.07a10,10,0,0,0-.7,2.39c-.36,11-.79,21.92-.88,32.88,0,2.75.93,5.55,1.74,8.23.51,1.7,1.39,3.49,4,3a25.78,25.78,0,0,0,.35-2.9q.25-18,.44-35.92a28,28,0,0,0-.32-4C232.88,143.32,231.31,142.23,228.61,142.13ZM240.13,133c1.07,3.22,3.29,4,5.53,4.62,4.84,1.23,9.68,2.53,14.59,3.35,6.17,1,12.41,1.74,18.76.73-2.38-1.17-5-1.79-7.25-3s-5.63-2.51-6.26-4.49c-1.44-4.54-4.46-4.19-7.79-4a90.31,90.31,0,0,0-9.47.53A68.61,68.61,0,0,0,240.13,133Zm111.75,16.64c-4.46.83-4.77,1.05-5,5.17-.42,8.31-.7,16.63-1,24.94-.14,3.66-.3,7.32-.35,11,0,2,0,4.05,3.59,4.36,0-3.31,0-6.41,0-9.5s0-6.33.15-9.49c.1-2.89-.1-5.84.92-8.6,1,9-1.05,18,.65,28.09,1.23-1.52,2.09-2.1,2.09-2.67C353.06,178.49,352.78,164.09,351.88,149.63ZM369,183.92c2.36-2.11,2.36-2.11,2.78-6.19,1-9.5-1.19-33-3.6-36.33-.61,1.11-1.58,2.06-1.54,3a86.81,86.81,0,0,0,1,8.79c.15,1.11.81,2.18.81,3.26,0,5.61-.21,11.23-.14,16.84C368.27,176.7,368.69,180.14,369,183.92Z"/><path d="M364.12,323.05V291.42h.59q1,29.38,2,58.77l-.74.07q-.66-7.41-1.34-14.81H364v18.25h-.56Q362.27,324,361,294.32l.77,0q.76,14.32,1.52,28.65Z"/><path d="M358.27,308.88q-1.35-47-2.69-94l1.36,0,2.37,94.06Z"/><path d="M368.73,324.06q1.32,41.46,2.63,82.93l-.89,0L368,324.08Z"/><path d="M260.31,269.18a10.87,10.87,0,0,1,7.23,5,14.73,14.73,0,0,1,2.67,8.85,11.79,11.79,0,0,1-3.29,8.46,7.6,7.6,0,0,1-7,2.36c-2.86-.49-5.26-2.24-7.21-5.22a15.76,15.76,0,0,1-2.65-9,11.22,11.22,0,0,1,3.27-8.26A7.67,7.67,0,0,1,260.31,269.18Zm-.07,3.87a4.64,4.64,0,0,0-4.7,2.05,8.74,8.74,0,0,0-1.65,5.28,10.82,10.82,0,0,0,2.42,7.29A6.08,6.08,0,0,0,260,290a4.62,4.62,0,0,0,4.71-2.14,8.93,8.93,0,0,0,1.66-5.34,10.43,10.43,0,0,0-2.43-7.19A6.16,6.16,0,0,0,260.24,273.05Z"/><path d="M275,292l2.94.31.27-16.77-2.94-.31.06-3.58c5.68.64,8.53.88,14.23,1.2a7.3,7.3,0,0,1,5.74,2.86,7.83,7.83,0,0,1,1.46,4.94,8.43,8.43,0,0,1-3.07,6.67,6.21,6.21,0,0,1-4.39,1.53c-3-.17-4.47-.27-7.44-.53,0,1.74,0,2.61-.07,4.34,1.88.16,2.82.24,4.7.36l-.06,3.58c-4.6-.31-6.9-.52-11.49-1C274.94,294.16,275,293.45,275,292Zm6.91-7.25c2.6.22,3.9.32,6.5.47a4.4,4.4,0,0,0,3.67-1.38,4.53,4.53,0,0,0-2.33-7.31,9.45,9.45,0,0,0-1.19-.16c-2.6-.16-3.9-.25-6.5-.47Z"/><path d="M317.78,280.22l-.12,7.49-3,.14c0-1,0-1.46,0-2.43-2.47.1-3.71.14-6.17.18-.06,3.2-.08,4.8-.13,8,4.23-.07,6.35-.15,10.58-.39.23-1.3.34-2,.56-3.26l2.57-.17c-.25,2.74-.37,4.11-.62,6.85-8,.53-12,.64-20,.57l.06-3.58c1.2,0,1.8,0,3,0,.11-6.7.17-10.06.27-16.76h-3l.06-3.58c8,.08,11.94,0,19.88-.56.11,2.56.17,3.84.28,6.4l-2.48.15c-.14-1.13-.2-1.69-.34-2.83-4.23.25-6.35.32-10.58.39,0,2.08-.05,3.12-.09,5.19,2.47,0,3.71-.07,6.17-.17l0-1.49Z"/><path d="M330.82,272c5.09,6.36,7.64,9.48,12.72,15.59.08-5.48.13-8.22.22-13.71-1.31.2-2,.3-3.28.48,0-1.43,0-2.14.06-3.57,3.78-.53,5.67-.83,9.43-1.49l-.06,3.57c-.93.17-1.39.25-2.33.4-.13,8.26-.2,12.39-.33,20.64l-3.4.55c-5.28-6.36-7.92-9.6-13.22-16.24h-.09c-.09,5.63-.13,8.45-.22,14.09l3.33-.36c0,1.43,0,2.14-.06,3.57-3.83.44-5.74.62-9.57.91l.05-3.57,2.4-.2c.11-6.7.16-10.06.27-16.76l-2.39.19,0-3.57c2.57-.2,3.85-.31,6.42-.57Z"/><path d="M254.53,319.09a12.06,12.06,0,0,0-.61,3.64,5.53,5.53,0,0,0,1,3.43c-1.33-.29-2-.43-3.33-.74a5,5,0,0,0-2.69-3.42,6.75,6.75,0,0,0-1.93-.76c-1.74-.38-2.93-.18-3.56.64a1.63,1.63,0,0,0-.31.95c0,1.34.77,2.58,2.39,3.72,1.77,1.12,2.65,1.67,4.43,2.76a8.71,8.71,0,0,1,4.07,7.51,5.64,5.64,0,0,1-3,5.05,6.23,6.23,0,0,1-4.66.72,9.33,9.33,0,0,1-4.76-3.11c-.22-.28-.36-.21-.46.19a10.84,10.84,0,0,1-.66,1.72l-2.6-.62c.27-.65.4-1,.66-1.62a7.85,7.85,0,0,0,.42-2.55,13.72,13.72,0,0,0-.7-3.63c-.1-.32-.19-.54-.24-.66l2.59.65.53,1.37a8.75,8.75,0,0,0,3.6,3.92,5.82,5.82,0,0,0,1.68.68c2.1.47,3.36-.17,3.79-1.88a5.77,5.77,0,0,0,.1-1,5.15,5.15,0,0,0-2.55-4.38c-1.89-1.13-2.84-1.7-4.72-2.87a7.81,7.81,0,0,1-3.57-5.78,6.83,6.83,0,0,1-.06-1.13,4.16,4.16,0,0,1,3.43-4.28,8.3,8.3,0,0,1,4.18-.07,9.43,9.43,0,0,1,4.22,2.39c.28.26.47.28.51.11a5.66,5.66,0,0,1,.41-1.46Z"/><path d="M274.49,343.12l2.26.24-2-6.57c-2.13-.23-3.2-.36-5.32-.64-.9,2.43-1.34,3.64-2.23,6.06l2.25.3c0,1.43,0,2.14-.06,3.57-3.62-.47-5.43-.73-9.05-1.33,0-1.43,0-2.15.06-3.58,1.16.19,1.73.29,2.89.46,2.25-6.37,3.37-9.57,5.62-16-1.71-.23-2.57-.35-4.29-.61,0-1.43,0-2.15.06-3.58,4,.6,5.94.86,9.92,1.3,2.42,8.42,3.64,12.62,6.07,21l2.82.22c0,1.43,0,2.15-.06,3.58-3.59-.27-5.38-.44-9-.84C274.46,345.26,274.47,344.55,274.49,343.12Zm-4.37-9.52c1.58.21,2.38.3,4,.48-.8-2.38-1.2-3.57-2-5.95C271.3,330.32,270.91,331.42,270.12,333.6Z"/><path d="M291.65,327.66c-1.44-.06-2.16-.1-3.6-.18,0-1.43,0-2.15.06-3.58,4.47.27,6.7.35,11.18.42,0,1.43,0,2.15-.06,3.58-1.49,0-2.24,0-3.73-.09-.11,6.71-.16,10.06-.27,16.77,3.39.1,5.09.13,8.48.12.33-2.37.5-3.55.83-5.92,1.49,0,2.24,0,3.73,0-.41,3.8-.61,5.7-1,9.5-7.84.12-11.76,0-19.58-.42,0-1.43,0-2.15.06-3.58,1.45.09,2.18.13,3.63.19Z"/><path d="M331.41,322.24a13.27,13.27,0,0,0-.62,3.8,4.32,4.32,0,0,0,1,3.13l-3.37.26a3.31,3.31,0,0,0-2.73-2.61,5.79,5.79,0,0,0-2-.18c-1.77.14-3,.7-3.62,1.7a2,2,0,0,0-.32,1c0,1.34.79,2.34,2.43,3,1.81.58,2.71.87,4.51,1.42a5.88,5.88,0,0,1,4.05,5,7,7,0,0,1,.07,1.23,7.84,7.84,0,0,1-3,5.91,8.07,8.07,0,0,1-4.73,2.1,6.86,6.86,0,0,1-4.84-1.68c-.23-.21-.38-.09-.48.33a12.62,12.62,0,0,1-.67,1.91l-2.66.17c.27-.73.41-1.09.67-1.82a8.31,8.31,0,0,0,.43-2.65,11,11,0,0,0-.71-3.42c-.11-.27-.2-.47-.25-.58l2.66-.13.53,1.2a5.86,5.86,0,0,0,3.68,2.84,5.32,5.32,0,0,0,1.7.17c2.14-.16,3.42-1.18,3.85-3a5.36,5.36,0,0,0,.1-1,3.56,3.56,0,0,0-2.58-3.6c-1.93-.56-2.89-.84-4.81-1.44a5.35,5.35,0,0,1-3.65-4.69,6.35,6.35,0,0,1-.06-1.1c0-2.24,1.2-4,3.5-5.29a10.1,10.1,0,0,1,4.26-1.32,7.15,7.15,0,0,1,4.29,1.12c.28.18.48.15.51-.05a7.51,7.51,0,0,1,.41-1.56Z"/><path d="M351.4,340.24l2.24-.43c-.8-2.37-1.21-3.56-2-5.94-2.12.4-3.18.58-5.3.94-.89,2.68-1.34,4-2.23,6.68l2.25-.36-.05,3.57c-3.62.6-5.43.87-9.06,1.35,0-1.43,0-2.14.06-3.57l2.89-.4c2.25-7,3.38-10.53,5.63-17.59-1.72.28-2.58.42-4.29.67l.05-3.57c4-.59,5.95-.91,9.89-1.65,2.41,7.67,3.62,11.48,6,19.08,1.11-.23,1.67-.35,2.78-.6,0,1.43,0,2.14-.06,3.57-3.54.79-5.31,1.15-8.87,1.82C351.36,342.38,351.38,341.67,351.4,340.24Zm-4.35-8.18c1.58-.27,2.37-.41,3.94-.7-.79-2.13-1.19-3.19-2-5.33C348.23,328.44,347.84,329.65,347.05,332.06Z"/><path class="cls-1" d="M225.71,249c.32,9,39.68,14.8,88,13"/><path class="cls-1" d="M375,251.69c.16,4.48-27.25,9.11-61.29,10.34"/><path class="cls-1" d="M228,353c0,9.12,32.43,16.5,72.5,16.5"/><path class="cls-1" d="M376,348c0,11.88-33.77,21.5-75.5,21.5"/></svg>