<svg id="Capa_1" data-name="Capa 1" xmlns="http://www.w3.org/2000/svg" viewBox="0 0 386.08 411.49"><defs><style>.cls-1{fill:#f8cbdc;stroke:#1d1d1b;stroke-miterlimit:10;stroke-width:5px;}</style></defs><title>pinky</title><path class="cls-1" d="M238.74,155.64s-90.89,27.57-111.31,129.7S154,486.53,258.66,515.13,460.19,487.21,489,409.43c29.29-79.21,14-146-34-185.88s-95.24-44.9-107.4-43.4c-11.06,1.36.85,5.45,40.17,35.06s67,52,52.26,142.64C426.49,440.57,303,478,244.87,436.49c-56.68-40.49-73-92.94-45.44-160.34,22.91-56,65.49-64.37,78.87-67.55a81.57,81.57,0,0,1,9.06-1.82c10.16-1.27,30.17-3.27,45.85,4,19.07,8.85,24.59,7.32,29.11-1.53,4.25-8.35-23-12.77-27.58-28.09s38.3-5.11,55.66-1,24-2.55,24.51-16.85-20.42-7.66-31.14-18.9-24.77-32.17-62.3-27.57C284.43,121.37,279.6,141.34,238.74,155.64Z" transform="translate(-120.25 -113.68)"/><ellipse cx="238.38" cy="27.36" rx="3.12" ry="5.57"/><ellipse cx="404.22" cy="162.11" rx="3.7" ry="1.92" transform="translate(-133.16 173.63) rotate(-38.56)"/></svg>