<svg id="Layer_1" data-name="Layer 1" xmlns="http://www.w3.org/2000/svg" viewBox="0 0 600 600"><defs><style>.cls-1{fill:#40bcd3;}.cls-1,.cls-2,.cls-3{stroke:#000;stroke-miterlimit:10;stroke-width:2px;}.cls-2{fill:#084065;}.cls-3{fill:#66e8ff;}</style></defs><title>triuros</title><path class="cls-1" d="M275.86,227.44A58.3,58.3,0,0,0,239.1,271.6c-6.74,34.78,8.77,68.52,43.33,78.25s66.53-9.5,76-36c9.67-27,4.61-49.73-11.24-63.3s-31.44-15.29-35.46-14.78c-3.65.47.28,1.86,13.27,11.94s22.11,17.7,17.25,48.58c-4.44,28.17-45.22,40.91-64.4,26.78-18.71-13.79-24.11-31.65-15-54.61,7.57-19.07,21.63-21.91,26-23a26.36,26.36,0,0,1,3-.62c3.35-.43,10-1.11,15.13,1.37,6.3,3,8.12,2.49,9.61-.53,1.41-2.84-7.58-4.34-9.1-9.56s12.64-1.74,18.38-.35,7.92-.87,8.09-5.74-6.75-2.6-10.29-6.43-8.17-11-20.56-9.39C290.94,215.77,289.34,222.57,275.86,227.44Z"/><ellipse cx="315.43" cy="222.47" rx="1.03" ry="1.9"/><ellipse cx="330.48" cy="229.64" rx="1.24" ry="0.65" transform="translate(-70.24 266.68) rotate(-40.07)"/><path class="cls-2" d="M476.28,230a58.3,58.3,0,0,0-36.76,44.17c-6.74,34.78,8.77,68.51,43.33,78.25s66.53-9.51,76-36c9.67-27,4.61-49.73-11.24-63.29s-31.44-15.29-35.46-14.78c-3.65.46.28,1.85,13.27,11.94S547.56,268,542.7,298.86c-4.44,28.17-45.22,40.91-64.4,26.78-18.71-13.79-24.11-31.65-15-54.6,7.57-19.08,21.63-21.92,26-23a28.73,28.73,0,0,1,3-.62c3.35-.43,10-1.11,15.13,1.37,6.3,3,8.12,2.49,9.61-.52,1.41-2.84-7.58-4.35-9.1-9.57s12.64-1.73,18.38-.34,7.92-.87,8.09-5.74-6.75-2.61-10.29-6.44-8.17-10.95-20.56-9.39C491.36,218.33,489.76,225.13,476.28,230Z"/><ellipse cx="515.85" cy="225.03" rx="1.03" ry="1.9"/><ellipse cx="530.9" cy="232.2" rx="1.24" ry="0.65" transform="translate(-24.84 396.31) rotate(-40.07)"/><path class="cls-3" d="M75.28,227a58.3,58.3,0,0,0-36.76,44.17c-6.74,34.78,8.77,68.51,43.33,78.25s66.53-9.51,76-36c9.67-27,4.61-49.73-11.24-63.29s-31.44-15.29-35.46-14.78c-3.65.46.28,1.85,13.27,11.94S146.56,265,141.7,295.86c-4.44,28.17-45.22,40.91-64.4,26.78C58.59,308.85,53.19,291,62.29,268c7.57-19.08,21.63-21.92,26-23a28.73,28.73,0,0,1,3-.62c3.35-.43,10-1.11,15.13,1.37,6.3,3,8.12,2.49,9.61-.52,1.41-2.84-7.58-4.35-9.1-9.57s12.64-1.73,18.38-.34,7.92-.87,8.09-5.74-6.75-2.61-10.29-6.44-8.17-10.95-20.56-9.39C90.36,215.33,88.76,222.13,75.28,227Z"/><ellipse cx="114.85" cy="222.03" rx="1.03" ry="1.9"/><ellipse cx="129.9" cy="229.2" rx="1.24" ry="0.65" transform="translate(-117.06 137.45) rotate(-40.07)"/></svg>